<svg width="83" height="53" viewBox="0 0 83 53" fill="none" xmlns="http://www.w3.org/2000/svg">
<g clip-path="url(#clip0_1024_1088)">
<path d="M0 2H74.0489C77.7762 2 80.7979 5.02163 80.7979 8.749C80.7979 12.4764 77.7762 15.498 74.0489 15.498H23.3507C19.5993 15.498 16.5582 18.5391 16.5582 22.2905C16.5582 26.042 19.5993 29.0831 23.3507 29.0831H38.6738C44.1566 29.0831 48.6014 33.5278 48.6014 39.0106" stroke="#E8303A" stroke-width="3"/>
<path d="M47.4179 52.0607C48.0037 52.6465 48.9535 52.6465 49.5393 52.0607L59.0852 42.5147C59.671 41.929 59.671 40.9792 59.0852 40.3934C58.4994 39.8076 57.5497 39.8076 56.9639 40.3934L48.4786 48.8787L39.9933 40.3934C39.4075 39.8076 38.4578 39.8076 37.872 40.3934C37.2862 40.9792 37.2862 41.9289 37.872 42.5147L47.4179 52.0607ZM46.9786 38.4894V51H49.9786V38.4894H46.9786Z" fill="#E8303A"/>
</g>
<defs>
<clipPath id="clip0_1024_1088">
<rect width="83" height="53" fill="white"/>
</clipPath>
</defs>
</svg>
