<svg width="33" height="33" viewBox="0 0 33 33" fill="none" xmlns="http://www.w3.org/2000/svg">
<g clip-path="url(#clip0_884_1199)">
<path d="M28.2462 0.791016H4.87066C2.48922 0.791016 0.558594 2.72156 0.558594 5.10308V28.4788C0.558594 30.8603 2.48914 32.7909 4.87066 32.7909H16.3994L16.419 21.3558H13.4482C13.0621 21.3558 12.7488 21.0437 12.7473 20.6576L12.733 16.9716C12.7316 16.5834 13.0458 16.2679 13.434 16.2679H16.3995V12.7064C16.3995 8.57316 18.9238 6.32261 22.6108 6.32261H25.6364C26.0235 6.32261 26.3374 6.63643 26.3374 7.02361V10.1316C26.3374 10.5187 26.0237 10.8324 25.6367 10.8326L23.78 10.8335C21.7749 10.8335 21.3866 11.7863 21.3866 13.1846V16.268H25.7926C26.2124 16.268 26.5381 16.6346 26.4887 17.0515L26.0518 20.7375C26.01 21.0902 25.7109 21.356 25.3557 21.356H21.4063L21.3866 32.791H28.2464C30.6278 32.791 32.5584 30.8605 32.5584 28.479V5.10308C32.5583 2.72156 30.6277 0.791016 28.2462 0.791016Z" fill="#228AFF"/>
</g>
<defs>
<clipPath id="clip0_884_1199">
<rect width="32" height="32" fill="white" transform="translate(0.558594 0.791016)"/>
</clipPath>
</defs>
</svg>
