<svg width="33" height="33" viewBox="0 0 33 33" fill="none" xmlns="http://www.w3.org/2000/svg">
<g clip-path="url(#clip0_884_1219)">
<path d="M22.7981 0.169922H9.86403C4.60752 0.169922 0.331055 4.44639 0.331055 9.70289V22.6369C0.331055 27.8935 4.60752 32.1699 9.86403 32.1699H22.7981C28.0546 32.1699 32.3311 27.8935 32.3311 22.6369V9.70289C32.331 4.44639 28.0545 0.169922 22.7981 0.169922ZM29.1119 22.6369C29.1119 26.1239 26.2851 28.9507 22.7981 28.9507H9.86403C6.37706 28.9507 3.55025 26.1239 3.55025 22.6369V9.70289C3.55025 6.21586 6.37706 3.38912 9.86403 3.38912H22.7981C26.2851 3.38912 29.1119 6.21586 29.1119 9.70289V22.6369Z" fill="url(#paint0_linear_884_1219)"/>
<path d="M16.331 7.89453C11.7674 7.89453 8.05469 11.6073 8.05469 16.1708C8.05469 20.7343 11.7674 24.4471 16.331 24.4471C20.8946 24.4471 24.6074 20.7344 24.6074 16.1708C24.6074 11.6072 20.8946 7.89453 16.331 7.89453ZM16.331 21.228C13.538 21.228 11.2739 18.9639 11.2739 16.1709C11.2739 13.3779 13.5381 11.1137 16.331 11.1137C19.124 11.1137 21.3882 13.3779 21.3882 16.1709C21.3882 18.9638 19.124 21.228 16.331 21.228Z" fill="url(#paint1_linear_884_1219)"/>
<path d="M24.6238 9.93902C25.7191 9.93902 26.607 9.05112 26.607 7.95584C26.607 6.86056 25.7191 5.97266 24.6238 5.97266C23.5285 5.97266 22.6406 6.86056 22.6406 7.95584C22.6406 9.05112 23.5285 9.93902 24.6238 9.93902Z" fill="url(#paint2_linear_884_1219)"/>
</g>
<defs>
<linearGradient id="paint0_linear_884_1219" x1="16.3311" y1="32.0768" x2="16.3311" y2="0.418471" gradientUnits="userSpaceOnUse">
<stop stop-color="#E09B3D"/>
<stop offset="0.3" stop-color="#C74C4D"/>
<stop offset="0.6" stop-color="#C21975"/>
<stop offset="1" stop-color="#7024C4"/>
</linearGradient>
<linearGradient id="paint1_linear_884_1219" x1="16.331" y1="32.0777" x2="16.331" y2="0.419421" gradientUnits="userSpaceOnUse">
<stop stop-color="#E09B3D"/>
<stop offset="0.3" stop-color="#C74C4D"/>
<stop offset="0.6" stop-color="#C21975"/>
<stop offset="1" stop-color="#7024C4"/>
</linearGradient>
<linearGradient id="paint2_linear_884_1219" x1="24.6238" y1="32.0769" x2="24.6238" y2="0.41859" gradientUnits="userSpaceOnUse">
<stop stop-color="#E09B3D"/>
<stop offset="0.3" stop-color="#C74C4D"/>
<stop offset="0.6" stop-color="#C21975"/>
<stop offset="1" stop-color="#7024C4"/>
</linearGradient>
<clipPath id="clip0_884_1219">
<rect width="32" height="32" fill="white" transform="translate(0.331055 0.169922)"/>
</clipPath>
</defs>
</svg>
