<svg width="33" height="33" viewBox="0 0 33 33" fill="none" xmlns="http://www.w3.org/2000/svg">
<g clip-path="url(#clip0_884_1182)">
<path d="M29.2528 0.986328H3.04212C1.44346 0.986328 0.147461 2.28233 0.147461 3.88099V30.0916C0.147461 31.6903 1.44346 32.9863 3.04212 32.9863H29.2527C30.8515 32.9863 32.1475 31.6903 32.1475 30.0916V3.88099C32.1475 2.28233 30.8515 0.986328 29.2528 0.986328ZM10.0496 28.6172C10.0496 29.0825 9.67249 29.4596 9.20723 29.4596H5.62139C5.15613 29.4596 4.779 29.0825 4.779 28.6172V13.5855C4.779 13.1203 5.15613 12.7431 5.62139 12.7431H9.20723C9.67249 12.7431 10.0496 13.1203 10.0496 13.5855V28.6172ZM7.41431 11.3262C5.53293 11.3262 4.00773 9.80099 4.00773 7.91961C4.00773 6.03822 5.53293 4.51303 7.41431 4.51303C9.29569 4.51303 10.8209 6.03822 10.8209 7.91961C10.8209 9.80099 9.29578 11.3262 7.41431 11.3262ZM28.7891 28.6851C28.7891 29.1128 28.4423 29.4596 28.0146 29.4596H24.1667C23.739 29.4596 23.3922 29.1128 23.3922 28.6851V21.6344C23.3922 20.5826 23.7007 17.0253 20.6435 17.0253C18.272 17.0253 17.791 19.4601 17.6944 20.5528V28.6851C17.6944 29.1128 17.3477 29.4596 16.9199 29.4596H13.1984C12.7706 29.4596 12.4238 29.1128 12.4238 28.6851V13.5177C12.4238 13.09 12.7706 12.7431 13.1984 12.7431H16.9199C17.3476 12.7431 17.6944 13.09 17.6944 13.5177V14.8291C18.5738 13.5095 19.8806 12.4909 22.663 12.4909C28.8244 12.4909 28.7891 18.2472 28.7891 21.41V28.6851Z" fill="#0077B7"/>
</g>
<defs>
<clipPath id="clip0_884_1182">
<rect width="32" height="32" fill="white" transform="translate(0.147461 0.986328)"/>
</clipPath>
</defs>
</svg>
