<svg width="33" height="33" viewBox="0 0 33 33" fill="none" xmlns="http://www.w3.org/2000/svg">
<g clip-path="url(#clip0_884_1216)">
<path d="M32.684 0.533203H0.702734C0.697557 0.533203 0.693359 0.5374 0.693359 0.542578V32.5238C0.693359 32.529 0.697557 32.5332 0.702734 32.5332H32.684C32.6892 32.5332 32.6934 32.529 32.6934 32.5238V0.542578C32.6934 0.5374 32.6892 0.533203 32.684 0.533203Z" fill="#1DA1F2"/>
<path d="M28.0059 10.034C27.2559 10.409 26.3809 10.659 25.5059 10.784C26.4434 10.2215 27.1309 9.34653 27.5059 8.28403C26.6309 8.78403 25.6934 9.15903 24.6934 9.34653C24.0132 8.64993 23.1255 8.19269 22.1634 8.04343C21.2014 7.89418 20.2168 8.06096 19.3576 8.51875C18.4984 8.97654 17.8108 9.70064 17.398 10.5824C16.9853 11.4641 16.8696 12.456 17.0684 13.409C13.5684 13.2215 10.1934 11.5965 8.00586 8.78403C7.70821 9.25944 7.50761 9.78907 7.41562 10.3424C7.32363 10.8957 7.34208 11.4617 7.4699 12.0079C7.59772 12.554 7.83239 13.0695 8.16037 13.5245C8.48834 13.9795 8.90315 14.3651 9.38086 14.659C8.69336 14.659 8.00586 14.534 7.38086 14.2215C7.44336 16.284 8.88086 18.0965 10.8809 18.534C10.2559 18.7215 9.56836 18.7215 8.88086 18.5965C9.50586 20.409 11.1934 21.659 13.0684 21.7215C11.2559 23.2215 8.81836 23.909 6.50586 23.534C8.43831 24.8235 10.6933 25.546 13.0153 25.6196C15.3373 25.6932 17.6335 25.115 19.6438 23.9505C21.654 22.786 23.2979 21.0817 24.3892 19.0308C25.4805 16.9799 25.9756 14.6644 25.8184 12.3465C26.6934 11.7215 27.4434 10.9715 28.0059 10.034Z" fill="white"/>
</g>
<defs>
<clipPath id="clip0_884_1216">
<rect x="0.693359" y="0.533203" width="32" height="32" rx="5" fill="white"/>
</clipPath>
</defs>
</svg>
