<svg width="33" height="33" viewBox="0 0 33 33" fill="none" xmlns="http://www.w3.org/2000/svg">
<g clip-path="url(#clip0_884_1179)">
<path d="M32.4457 0.0742188H0.464453C0.459275 0.0742188 0.455078 0.0784161 0.455078 0.0835938V32.0648C0.455078 32.07 0.459275 32.0742 0.464453 32.0742H32.4457C32.4509 32.0742 32.4551 32.07 32.4551 32.0648V0.0835938C32.4551 0.0784161 32.4509 0.0742188 32.4457 0.0742188Z" fill="#45D354"/>
<path d="M19.7051 17.1367C19.5176 17.0117 19.3301 16.9492 19.1426 17.1992L18.3926 18.1992C18.2051 18.3242 18.0801 18.3867 17.8301 18.2617C16.8926 17.7617 15.5801 17.1992 14.4551 15.3242C14.3926 15.0742 14.5176 14.9492 14.6426 14.8242L15.2051 13.9492C15.3301 13.8242 15.2676 13.6992 15.2051 13.5742L14.4551 11.7617C14.2676 11.2617 14.0801 11.3242 13.8926 11.3242H13.3926C13.2676 11.3242 13.0176 11.3867 12.7676 11.6367C11.3926 13.0117 11.9551 14.9492 12.9551 16.1992C13.1426 16.4492 14.3926 18.6992 17.0801 19.8867C19.0801 20.7617 19.5176 20.6367 20.0801 20.5117C20.7676 20.4492 21.4551 19.8867 21.7676 19.3242C21.8301 19.1367 22.1426 18.3242 21.8926 18.1992M16.9551 24.0742C14.3926 24.0742 12.4551 22.6992 12.4551 22.6992L9.39258 23.5117L10.1426 20.5117C10.1426 20.5117 8.89258 18.5742 8.89258 16.1367C8.89258 11.6367 12.5801 7.88672 17.1426 7.88672C21.3926 7.88672 25.0176 11.1992 25.0176 15.8242C25.0176 20.3242 21.3926 24.0117 16.9551 24.0742ZM7.01758 25.8867L12.2051 24.4492C13.7075 25.2184 15.3819 25.5896 17.0686 25.5275C18.7553 25.4654 20.3979 24.972 21.8396 24.0944C23.2814 23.2168 24.4741 21.9843 25.304 20.5146C26.1339 19.0449 26.5732 17.387 26.5801 15.6992C26.5801 10.3242 22.3301 6.01172 16.9551 6.01172C15.2299 6.01613 13.536 6.47243 12.042 7.33516C10.548 8.1979 9.30617 9.43697 8.44004 10.929C7.57392 12.421 7.11378 14.1139 7.10546 15.839C7.09713 17.5642 7.5409 19.2614 8.39258 20.7617" fill="white"/>
</g>
<defs>
<clipPath id="clip0_884_1179">
<rect x="0.455078" y="0.0742188" width="32" height="32" rx="5" fill="white"/>
</clipPath>
</defs>
</svg>
