<svg width="78" height="14" viewBox="0 0 78 14" fill="none" xmlns="http://www.w3.org/2000/svg">
<path d="M23 0L24.5716 4.83688H29.6574L25.5429 7.82624L27.1145 12.6631L23 9.67376L18.8855 12.6631L20.4571 7.82624L16.3426 4.83688H21.4284L23 0Z" fill="#1055DB"/>
<path d="M7 0L8.5716 4.83688H13.6574L9.5429 7.82624L11.1145 12.6631L7 9.67376L2.8855 12.6631L4.4571 7.82624L0.342604 4.83688H5.4284L7 0Z" fill="#1055DB"/>
<path d="M39 0L40.5716 4.83688H45.6574L41.5429 7.82624L43.1145 12.6631L39 9.67376L34.8855 12.6631L36.4571 7.82624L32.3426 4.83688H37.4284L39 0Z" fill="#1055DB"/>
<path d="M55 0L56.5716 4.83688H61.6574L57.5429 7.82624L59.1145 12.6631L55 9.67376L50.8855 12.6631L52.4571 7.82624L48.3426 4.83688H53.4284L55 0Z" fill="#1055DB"/>
<path d="M71 0L72.5716 4.83688H77.6574L73.5429 7.82624L75.1145 12.6631L71 9.67376L66.8855 12.6631L68.4571 7.82624L64.3426 4.83688H69.4284L71 0Z" fill="#1055DB"/>
</svg>
