<svg width="80" height="23" viewBox="0 0 80 23" fill="none" xmlns="http://www.w3.org/2000/svg">
<path d="M38.6729 13.8477H34.4649L33.4086 17.1522C33.393 17.2511 33.3289 17.3014 33.2164 17.3014H31.3132C31.1851 17.3014 31.1538 17.2349 31.1851 17.1182L34.9618 5.92685C35.0415 5.74362 35.1055 5.3788 35.1212 4.86479C35.1212 4.7821 35.1696 4.74805 35.2493 4.74805H37.8572C37.9213 4.74805 37.9697 4.78048 38.0009 4.84696L42.2089 17.1344C42.2402 17.2511 42.2089 17.2998 42.0964 17.2998H39.9526C39.8729 17.2998 39.8088 17.2495 39.776 17.1668L38.6729 13.8477ZM34.929 12.0219H38.1931C38.1447 11.8387 37.8884 11.0426 37.4244 9.63027C36.9759 8.20176 36.6728 7.2224 36.529 6.69218H36.5134C36.3853 7.33914 35.8571 9.11627 34.929 12.0219Z" fill="#E63523"/>
<path d="M47.3303 17.4833C45.9224 17.4833 44.802 17.0845 43.9379 16.3045C43.0895 15.5068 42.6738 14.328 42.6738 12.7843C42.6738 11.3899 43.1223 10.2435 44.0333 9.33063C44.9458 8.41775 46.1771 7.95239 47.7131 7.95239C48.1287 7.95239 48.4819 7.98482 48.7366 8.06913V3.85171C48.7366 3.76902 48.785 3.71875 48.8647 3.71875H50.9288C51.0085 3.71875 51.0413 3.75118 51.0413 3.8355V15.1922C51.0413 15.4079 51.057 15.8392 51.0898 16.4699C51.1054 16.5526 51.0585 16.6191 50.9773 16.6353C49.8429 17.2012 48.6256 17.4833 47.3303 17.4833ZM48.7225 15.523V9.81058C48.4506 9.67762 48.099 9.61115 47.6662 9.61115C46.8662 9.61115 46.2255 9.87706 45.7458 10.4251C45.2661 10.957 45.0255 11.7028 45.0255 12.6838C45.0255 13.7134 45.2661 14.4772 45.7458 14.9749C46.2255 15.4727 46.8334 15.7224 47.5865 15.7224C48.0819 15.7403 48.4506 15.6738 48.7225 15.523Z" fill="#E63523"/>
<path d="M56.8816 7.95312C58.2582 7.95312 59.3458 8.40065 60.1302 9.29732C60.9146 10.194 61.3146 11.3225 61.3146 12.6846C61.3146 14.1617 60.899 15.3405 60.0833 16.2047C59.2676 17.0511 58.1785 17.4825 56.8519 17.4825C55.38 17.4825 54.2753 17.0171 53.5081 16.1042C52.7393 15.1751 52.3721 14.045 52.3721 12.717C52.3721 11.3225 52.7877 10.1762 53.6034 9.27948C54.4331 8.40065 55.5222 7.95312 56.8816 7.95312ZM56.7863 9.59729C56.1628 9.59729 55.6503 9.87942 55.2659 10.4275C54.8815 10.9755 54.6893 11.723 54.6893 12.6862C54.6893 13.6493 54.8815 14.413 55.2659 14.9773C55.6503 15.5416 56.1941 15.8237 56.8816 15.8237C57.4738 15.8237 57.9692 15.5578 58.3692 15.0438C58.7692 14.5119 58.9614 13.732 58.9614 12.7024C58.9614 11.7555 58.7848 11.0096 58.4176 10.4437C58.066 9.87942 57.5223 9.59729 56.7863 9.59729Z" fill="#E63523"/>
<path d="M62.7543 3.71875H64.7856C64.8809 3.71875 64.9294 3.76902 64.9294 3.86793V8.301C65.5216 8.06913 66.1451 7.9686 66.817 7.9686C68.0811 7.9686 69.0889 8.3837 69.8405 9.2301C70.6093 10.0603 70.9765 11.1402 70.9765 12.4519C70.9765 14.0296 70.5124 15.2587 69.5686 16.1716C68.6248 17.0683 67.5045 17.5158 66.1919 17.5158C64.8325 17.5158 63.6793 17.2839 62.7199 16.8023C62.6402 16.7699 62.6074 16.7034 62.6074 16.6191V3.85009C62.6262 3.75118 62.659 3.71875 62.7543 3.71875ZM68.6264 12.6676C68.6264 11.7045 68.4186 10.9748 67.9858 10.4754C67.5701 9.9776 67.0092 9.72789 66.2904 9.72789C65.7622 9.72789 65.2981 9.8268 64.9138 10.0262V15.5214C65.2653 15.7208 65.7294 15.8197 66.306 15.8197C66.9467 15.8197 67.4904 15.5538 67.9373 15.0058C68.403 14.4609 68.6264 13.681 68.6264 12.6676Z" fill="#E63523"/>
<path d="M77.9237 13.1496H74.2751C74.2907 13.9133 74.5157 14.5278 74.9626 14.9932C75.4267 15.4407 76.083 15.6742 76.9627 15.6742C77.8268 15.6742 78.5784 15.525 79.219 15.2088C79.2987 15.1764 79.3315 15.2088 79.3315 15.3077V16.7184C79.3315 16.8352 79.3003 16.9016 79.219 16.9503C78.4503 17.3151 77.5393 17.4983 76.483 17.4983C75.6673 17.4983 74.9626 17.3654 74.3548 17.0995C73.7469 16.8335 73.2829 16.4849 72.9469 16.0196C72.611 15.572 72.3547 15.0726 72.1781 14.5424C72.0188 13.9944 71.9375 13.4301 71.9375 12.8156C71.9375 11.4535 72.3219 10.2926 73.0735 9.36184C73.8423 8.41491 74.897 7.95117 76.2252 7.95117C77.4893 7.95117 78.4331 8.33384 79.0565 9.11376C79.68 9.89368 80.0003 10.8066 80.0003 11.854C80.0003 12.2367 79.9691 12.6015 79.9206 12.9339C79.905 13.0166 79.8566 13.0669 79.7769 13.0831C79.444 13.1334 78.819 13.1496 77.9237 13.1496ZM74.2595 11.6886H76.8361C77.4127 11.6886 77.7315 11.6724 77.7955 11.6562C77.8112 11.6059 77.8112 11.5233 77.8112 11.3903C77.8112 10.9087 77.683 10.4936 77.4112 10.1126C77.1549 9.72992 76.7393 9.54831 76.147 9.54831C75.5705 9.54831 75.1236 9.74775 74.8032 10.1628C74.4985 10.5601 74.3235 11.0741 74.2595 11.6886Z" fill="#E63523"/>
<path d="M15.1055 0H23.9527V22L15.1055 0Z" fill="#E63523"/>
<path d="M8.86441 0H0V22L8.86441 0Z" fill="#E63523"/>
<path d="M11.9853 8.10352L17.6168 22.0011H13.9213L12.2416 17.568H8.11328L11.9853 8.10352Z" fill="#E63523"/>
</svg>
