<svg width="69" height="18" viewBox="0 0 69 18" fill="none" xmlns="http://www.w3.org/2000/svg">
<mask id="mask0_1057_1127" style="mask-type:luminance" maskUnits="userSpaceOnUse" x="0" y="0" width="69" height="18">
<path d="M68.3091 12.304C68.223 12.304 68.0507 12.3744 68.0507 12.5153C67.363 14.1326 66.4168 15.1174 65.6415 15.1174C65.2108 15.1174 65.0399 14.6949 65.0399 14.0622C65.0399 12.4449 66.2445 8.9989 66.8461 7.45196C66.9323 7.24071 66.9323 7.09988 66.9323 6.96015C66.9323 6.53765 66.5877 6.25709 65.9 6.25709C65.1261 6.25709 64.1799 6.53875 63.4046 7.73362C63.1462 6.67848 62.2 6.18668 60.9954 6.18668C59.5324 6.18668 58.1569 6.96015 57.0385 8.15611C55.92 9.35208 54.5431 9.77347 53.597 9.56222C54.2847 8.0857 54.6293 7.03056 54.6293 6.25709C54.6293 4.99071 53.8554 4.21724 52.6508 4.21724C50.7584 4.21724 49.7261 5.69377 49.7261 7.24181C49.7261 8.43778 50.4139 9.63264 51.7907 10.2664C50.5861 12.5164 48.7799 14.5562 48.177 14.5562C47.3169 14.5562 47.0585 11.1103 47.1446 8.57861C47.1446 7.17249 47.3169 7.10208 47.3169 6.67958C47.3169 6.39792 47.1446 6.25709 46.3707 6.25709C44.5645 6.25709 43.9616 7.52347 43.8754 9C43.8754 9.56223 43.7031 10.1255 43.5309 10.6174C42.757 12.8674 41.2078 14.5562 40.1755 14.5562C39.6587 14.5562 39.5739 14.1337 39.5739 13.6419C39.5739 12.0246 40.6923 9.98472 40.6923 8.29694C40.6923 7.03056 40.0046 6.25709 38.7139 6.25709C37.2508 6.25709 35.1862 7.73362 33.38 10.4765C33.9816 8.36626 34.24 6.32751 32.4338 6.32751C32.0031 6.32751 31.6599 6.39792 31.3154 6.53875C31.0569 6.60917 30.8847 6.82042 30.9708 7.03056C31.1431 9.28056 28.7339 14.9776 26.497 14.9776C26.0663 14.9776 25.8954 14.6256 25.8954 14.0633C25.8954 12.446 27.1 9.07042 27.7016 7.45306C27.7877 7.24181 27.7877 7.10098 27.7877 6.89083C27.7877 6.46834 27.4432 6.25819 26.7554 6.25819C25.9815 6.25819 25.0353 6.53985 24.2601 7.73472C24.0017 6.67958 23.0555 6.18778 21.8509 6.18778C19.7863 6.18778 17.5494 7.94597 16.6032 10.196C15.3125 13.2205 12.5601 16.1736 8.94629 16.1736C5.67706 16.1736 3.95698 13.9236 3.95698 10.4072C3.52629 5.4143 8.08625 1.26418 11.4416 1.26418C13.0755 1.26418 13.8508 2.10807 13.8508 3.37445C13.8508 4.9214 12.8185 5.69487 12.8185 6.25819C12.8185 6.46944 12.9908 6.61027 13.3353 6.61027C14.7983 6.61027 16.5184 5.20416 16.5184 3.23472C16.5184 1.26528 14.626 1.78626e-06 11.2707 1.78626e-06C5.67841 -0.00329895 0 4.56822 0 10.4754C0 15.1878 2.83853 18 7.74304 18C11.0984 18 14.0231 15.8897 15.5722 13.3581C15.7445 15.3979 16.8629 16.5224 18.6692 16.5224C20.2183 16.5224 21.5077 15.7489 22.4539 14.4121C22.7984 15.8182 23.8307 16.452 25.0353 16.452C26.4983 16.452 27.7029 15.6785 28.9062 14.2713C28.9062 15.3968 29.1646 16.3815 30.3692 16.3815C30.886 16.3815 31.5738 16.3111 31.6599 15.8897C32.8645 11.7407 35.9615 8.36516 36.8215 8.36516C37.0799 8.36516 37.1661 8.57641 37.1661 8.85697C37.1661 9.98252 36.2199 12.3029 36.2199 13.7795C36.2199 15.3968 37.0799 16.452 38.8013 16.452C40.6937 16.452 42.6722 14.5529 43.8768 11.7396C44.3075 14.3417 45.1675 16.452 46.5444 16.452C48.1783 16.452 51.1905 13.5682 52.9967 10.5447C53.6844 10.6152 54.8029 10.6152 55.7491 9.98252C55.3184 10.8968 55.0613 11.8815 55.0613 12.8663C55.0613 15.6796 56.6952 16.4531 58.1583 16.4531C59.7074 16.4531 60.9968 15.6796 61.943 14.3428C62.2875 15.5388 63.0614 16.3826 64.5244 16.3826C66.8475 16.3826 68.9121 14.4132 68.9121 12.8663C68.8246 12.5857 68.5662 12.304 68.3091 12.304ZM20.0447 14.9765C19.0985 14.9765 18.754 14.2031 18.754 13.0775C18.754 11.1081 20.3879 7.73252 22.1955 7.73252C22.9694 7.73252 23.2278 8.50599 23.2278 9.42029C23.2278 11.3897 21.68 14.9765 20.0447 14.9765ZM52.2201 8.9989C51.6185 8.43668 51.4462 7.73252 51.4462 7.02946C51.4462 6.18558 51.7907 5.55293 52.2201 5.55293C52.6508 5.55293 52.8217 5.90501 52.8217 6.39682C52.8231 7.17029 52.4785 8.36626 52.2201 8.9989ZM59.5338 14.9765C58.5876 14.9765 58.243 14.0622 58.243 13.0775C58.243 11.1785 59.877 7.73252 61.6846 7.73252C62.4585 7.73252 62.7169 8.50599 62.7169 9.42029C62.7169 11.3897 61.1677 14.9765 59.5338 14.9765Z" fill="white"/>
</mask>
<g mask="url(#mask0_1057_1127)">
<path d="M69.0827 -0.988281H-0.258789V18.914H69.0827V-0.988281Z" fill="url(#paint0_linear_1057_1127)"/>
</g>
<defs>
<linearGradient id="paint0_linear_1057_1127" x1="14.5928" y1="-8.29799" x2="42.2518" y2="27.7503" gradientUnits="userSpaceOnUse">
<stop stop-color="#00C4CC"/>
<stop offset="0.9122" stop-color="#7A28EB"/>
<stop offset="1" stop-color="#7A28EB"/>
</linearGradient>
</defs>
</svg>
