<svg width="69" height="34" viewBox="0 0 69 34" fill="none" xmlns="http://www.w3.org/2000/svg">
<g clip-path="url(#clip0_872_1163)">
<path d="M8.65197 0.161353C8.65197 0.230117 8.52961 0.29124 8.33078 0.321802C8.14724 0.344723 7.79546 0.436409 7.5431 0.528094C5.55478 1.18517 3.98707 2.76675 3.38293 4.71506C3.00821 5.92989 2.99291 6.18203 2.99291 11.0414C2.99291 14.4948 2.96997 15.6333 2.90115 15.702C2.83997 15.7632 2.40407 15.7937 1.44815 15.7937H0.0869141V17.933H1.45579C2.50348 17.933 2.83997 17.956 2.90879 18.0324C2.96233 18.1088 3.00056 19.3007 3.00821 21.9901L3.03115 25.8409L4.1859 25.8638C5.08829 25.8791 5.3636 25.8638 5.42478 25.7798C5.49361 25.7034 5.52419 24.5573 5.53184 21.822L5.55478 17.9712L9.302 17.933L13.0492 17.8948V15.8319L9.34023 15.809C7.30603 15.8014 5.60832 15.7632 5.57773 15.7326C5.53949 15.6944 5.51655 13.662 5.51655 11.2094C5.51655 6.52585 5.53184 6.34248 5.88362 5.28809C6.2354 4.24135 6.98484 3.31686 7.78782 2.91955C9.03434 2.31596 10.7397 2.27776 12.1698 2.82023C13.011 3.14877 13.8369 3.90517 14.2651 4.74562L14.5634 5.3263L15.1446 5.34158C15.4658 5.34922 15.9782 5.35686 16.284 5.3645C16.9647 5.37978 17.0717 5.31102 16.9876 4.89079C16.7429 3.65304 15.7411 2.20135 14.6093 1.42967C13.7986 0.871914 12.7968 0.45169 11.9939 0.321802C11.8333 0.298881 11.6803 0.222476 11.6574 0.161353C11.5962 0.000903266 8.65197 0.000903266 8.65197 0.161353V0.161353Z" fill="black"/>
<path d="M15.3815 6.27203C14.9456 6.39427 14.632 6.56236 14.3644 6.8145C13.4085 7.72371 13.4085 9.28236 14.3567 10.1457C14.8844 10.6194 15.1368 10.7111 15.9168 10.7111C16.7351 10.7035 17.0716 10.5812 17.561 10.0999C18.0351 9.61854 18.1651 9.27472 18.1651 8.4954C18.1651 7.78484 18.1039 7.5709 17.7216 7.05899C17.3851 6.60821 16.4521 6.14978 15.9015 6.1727C15.8021 6.1727 15.5727 6.21854 15.3815 6.27203V6.27203ZM24.2907 11.1314C23.7248 11.2078 23.2889 11.3529 22.6006 11.6662C20.1764 12.797 18.5934 15.601 18.5934 18.7718C18.5934 20.277 18.8304 21.2779 19.5264 22.7219C19.9164 23.5242 20.0693 23.7534 20.5893 24.3111C21.8053 25.5871 22.8759 26.1448 24.5048 26.3435C26.3784 26.5727 28.2291 25.9385 29.5674 24.6091C29.8121 24.3646 30.0262 24.2118 30.0797 24.2424C30.225 24.334 30.1027 27.543 29.9268 28.246C29.7509 28.9183 29.5827 29.4302 29.4374 29.6976C28.6573 31.1264 27.5255 31.7529 25.7054 31.7606C24.1607 31.7606 22.9524 31.2181 22.1647 30.1637C21.5988 29.4073 21.377 28.8801 21.3005 28.0855C21.27 27.7952 21.2088 27.5278 21.1552 27.4819C21.0941 27.4284 20.6429 27.4055 19.9623 27.4208L18.861 27.4437L18.8381 27.7111C18.8228 27.8563 18.8687 28.2689 18.9375 28.628C19.2587 30.2172 19.7252 31.134 20.6964 32.112C21.0788 32.4864 21.5988 32.9219 21.8512 33.0747C22.3635 33.3727 23.3195 33.7547 23.893 33.8922C24.3595 33.9992 26.9673 33.9992 27.4414 33.8922C29.8121 33.3345 31.6321 31.5466 32.2286 29.201C32.5422 27.9862 32.5422 27.9938 32.5651 19.7498C32.5881 14.1035 32.5728 11.6967 32.5116 11.5898C32.4351 11.4446 32.3586 11.437 31.3798 11.437C30.6609 11.437 30.2939 11.4675 30.2327 11.5287C30.1715 11.5898 30.1409 11.8954 30.1409 12.3997C30.1409 12.8963 30.1103 13.2019 30.0568 13.2401C30.0109 13.2707 29.8044 13.1102 29.575 12.8734C28.8638 12.1246 28.0455 11.6203 26.9825 11.2765C26.4396 11.1008 25.0325 11.0244 24.2907 11.1314V11.1314ZM26.7378 13.5534C29.4679 14.3785 30.7756 17.5952 29.705 20.8729C29.3303 22.0266 28.4967 23.0657 27.5408 23.57C26.8525 23.9367 26.5314 24.0055 25.4378 24.0055C24.3366 24.0055 24.1683 23.9749 23.4495 23.6006C22.7 23.2185 21.9047 22.3628 21.5147 21.5224C21.4153 21.2931 21.3005 21.0487 21.2623 20.9799C21.2317 20.9111 21.1323 20.552 21.0482 20.1853C20.7499 18.9628 20.8417 17.5264 21.2853 16.3269C21.6523 15.3336 22.5394 14.3251 23.4877 13.8208C24.3136 13.3776 25.7743 13.263 26.7378 13.5534ZM39.5089 11.1237C38.6754 11.2765 37.7806 11.8037 37.2224 12.4608C37.0159 12.6976 36.8171 12.8657 36.7865 12.8352C36.7482 12.797 36.7176 12.4837 36.7024 12.1246L36.6794 11.4752L35.54 11.4523C34.7676 11.437 34.3699 11.4599 34.3011 11.521C34.1405 11.6509 34.1405 25.8163 34.3011 25.9462C34.3699 26.0073 34.7676 26.0302 35.54 26.0149L36.6794 25.992L36.7253 21.4842C36.7712 16.7776 36.7941 16.3803 37.1383 15.4253C37.4594 14.5314 37.9718 13.9354 38.706 13.5992C39.0577 13.4464 39.2489 13.4158 39.8531 13.4158C40.7478 13.4082 41.1531 13.5687 41.612 14.0958C41.9637 14.4931 42.0861 14.7376 42.3155 15.5246C42.4608 16.0289 42.4761 16.3269 42.522 21.0257L42.5679 25.992H44.9386L44.9845 21.4842C45.0303 16.7012 45.0609 16.2428 45.428 15.2648C45.7263 14.4702 46.3227 13.8284 47.0263 13.5534C47.531 13.3547 48.7852 13.3547 49.2211 13.5534C49.7258 13.7826 49.9323 13.9507 50.2 14.3633C50.7429 15.2037 50.7353 15.0967 50.7735 20.7583C50.7888 24.1583 50.827 25.8698 50.8806 25.9309C51.0029 26.0837 53.106 26.0684 53.236 25.9156C53.3048 25.8316 53.3201 24.6473 53.2971 20.6666C53.2666 16.1358 53.2436 15.4635 53.1289 14.9898C52.7465 13.4158 52.1883 12.4149 51.4006 11.8648C50.4753 11.223 50.0241 11.0932 48.6858 11.1008C47.7987 11.1008 47.5234 11.1314 47.0875 11.2689C46.101 11.5898 45.298 12.094 44.8162 12.7129C44.388 13.2554 44.365 13.2783 44.2503 13.2172C44.1891 13.179 44.0056 12.9651 43.8373 12.7435C43.3479 12.0864 42.6749 11.6203 41.7267 11.2765C41.2984 11.1161 39.9984 11.032 39.5089 11.1237V11.1237ZM60.0421 11.1237C57.5414 11.4752 55.469 13.2783 54.6278 15.8302C53.8707 18.1376 54.0236 20.5597 55.0407 22.5538C55.8361 24.1048 56.8608 25.1287 58.2832 25.7781C59.0021 26.1066 59.2315 26.1754 60.0345 26.2976C60.9369 26.4428 61.2886 26.4428 62.191 26.2976C63.5905 26.0837 64.5617 25.5947 65.5635 24.6091C65.8006 24.3722 66.03 24.2042 66.0759 24.2347C66.1294 24.2653 66.16 24.6015 66.16 25.1134C66.16 25.7934 66.183 25.9462 66.2824 25.9844C66.3512 26.0073 66.8789 26.0302 67.4677 26.0302H68.5307L68.6072 25.8392C68.7142 25.5642 68.7066 11.7808 68.6072 11.5898C68.5307 11.4523 68.4389 11.437 67.4371 11.437C66.6877 11.437 66.313 11.4675 66.2518 11.5287C66.1906 11.5898 66.16 11.903 66.16 12.4455C66.16 13.1561 66.1447 13.2707 66.0377 13.2707C65.9688 13.2707 65.8465 13.179 65.7547 13.072C65.2653 12.4531 63.927 11.6203 62.864 11.2842C62.3134 11.1084 60.7763 11.0244 60.0421 11.1237V11.1237ZM62.4511 13.5534C63.5446 13.8972 64.3705 14.5008 64.9594 15.3947C65.64 16.4109 65.8465 17.1826 65.8541 18.619C65.8541 19.8567 65.7088 20.5291 65.25 21.4842C64.73 22.5538 63.8964 23.3331 62.7875 23.7916C62.3363 23.9749 62.2063 23.9902 61.151 23.9979C59.8968 24.0055 59.568 23.9367 58.7803 23.486C57.8167 22.9358 56.9985 21.8127 56.6008 20.5062C55.7137 17.557 56.9908 14.5543 59.5374 13.6069C60.1874 13.3624 61.7475 13.3318 62.4511 13.5534ZM14.7315 11.4523C14.7085 11.5057 14.7009 14.7835 14.7085 18.7336L14.7315 25.9156L15.8786 25.9385C16.888 25.9538 17.0333 25.9462 17.1174 25.8239C17.1939 25.7246 17.2169 24.1889 17.2169 18.6496C17.2169 12.3462 17.2016 11.5898 17.0945 11.4828C16.9951 11.3835 16.7733 11.3606 15.8709 11.3606C15.0603 11.3606 14.7544 11.3835 14.7315 11.4523V11.4523ZM40.6713 27.3062C40.5872 27.3902 40.6102 28.7808 40.6943 28.7808C40.7402 28.7808 40.7708 28.6738 40.7708 28.5516C40.7708 28.3911 40.8396 28.2536 40.9696 28.1314C41.1149 27.9938 41.1378 27.9403 41.0614 27.9403C40.9925 27.9403 40.9008 27.8869 40.8472 27.8257C40.7708 27.734 40.7784 27.6729 40.8778 27.5201C40.9466 27.4131 41.0384 27.3444 41.0766 27.3673C41.1225 27.3979 41.1531 27.3749 41.1531 27.3367C41.1531 27.2451 40.7555 27.2221 40.6713 27.3062V27.3062ZM43.8526 27.3597C43.4626 27.5736 43.3709 27.7188 43.3709 28.1161C43.3709 28.4522 43.4015 28.521 43.6538 28.7502C43.9903 29.0558 44.4568 29.117 44.5868 28.8648C44.6633 28.7349 44.6403 28.7273 44.3268 28.7655C44.0438 28.7961 43.9521 28.7731 43.7915 28.6203C43.5162 28.3529 43.5238 27.8487 43.8144 27.5965C44.0362 27.3979 44.3574 27.352 44.5027 27.4972C44.5486 27.543 44.6174 27.566 44.648 27.5354C44.7321 27.4514 44.4185 27.2603 44.2121 27.2603C44.105 27.268 43.9444 27.3138 43.8526 27.3597ZM45.2062 27.3062C45.2062 27.3444 45.2598 27.4361 45.3209 27.5125C45.3974 27.6194 45.4357 27.8563 45.4357 28.2612C45.4357 28.5974 45.4662 28.8572 45.5121 28.8572C45.6039 28.8572 45.6574 28.628 45.688 28.0167C45.7033 27.7417 45.7415 27.459 45.7721 27.3826C45.8257 27.268 45.7951 27.2527 45.5198 27.2527C45.3439 27.2527 45.2062 27.2756 45.2062 27.3062ZM46.7663 27.3597C46.3916 27.566 46.3533 27.6424 46.3533 28.1314C46.3533 28.5898 46.3686 28.6203 46.6133 28.8113C46.9881 29.094 47.3169 29.0788 47.6763 28.7502C47.9287 28.521 47.9593 28.4522 47.9593 28.1161C47.9593 27.8181 47.921 27.7035 47.791 27.5889C47.3857 27.2451 47.0875 27.1763 46.7663 27.3597ZM47.5004 27.5736C47.6993 27.7111 47.7299 27.7875 47.7299 28.0855C47.7299 28.5363 47.5157 28.7808 47.1181 28.7808C46.7357 28.7808 46.5445 28.5592 46.5445 28.1314C46.5445 27.8792 46.5904 27.757 46.7357 27.6118C46.9804 27.3749 47.2175 27.3597 47.5004 27.5736ZM48.5099 27.3444C48.4028 27.4514 48.3799 28.8266 48.487 28.8878C48.5252 28.9107 48.594 28.8266 48.6399 28.7044C48.7164 28.4752 48.877 28.3911 48.877 28.5745C48.877 28.6738 49.1752 28.9642 49.2287 28.9107C49.244 28.8954 49.1905 28.7426 49.1064 28.5592L48.9458 28.2383L49.1064 28.0167C49.3052 27.734 49.2517 27.5201 48.9534 27.3673C48.6858 27.2298 48.6246 27.2298 48.5099 27.3444V27.3444ZM48.9764 27.8792C48.9076 27.9556 48.8081 28.0167 48.747 28.0167C48.6475 28.0167 48.6093 27.7417 48.6934 27.5278C48.7317 27.4208 48.7623 27.4284 48.9152 27.5736C49.0834 27.734 49.0834 27.757 48.9764 27.8792V27.8792ZM57.5414 27.3826C57.3655 27.4972 57.312 27.7493 57.4267 27.9098C57.4573 27.948 57.6103 28.0626 57.7709 28.1619C58.0079 28.3071 58.0615 28.3758 58.0385 28.5439C58.0079 28.7808 57.6867 28.8725 57.5797 28.6738C57.5108 28.5516 57.3656 28.5745 57.3656 28.7044C57.3656 28.8343 57.6103 29.01 57.7785 29.01C58.0079 29.01 58.2832 28.7044 58.2832 28.4523C58.2832 28.2994 58.2068 28.2001 57.962 28.0397C57.7785 27.9251 57.6179 27.8257 57.6026 27.8105C57.5873 27.8028 57.6026 27.7035 57.6256 27.5889C57.6791 27.3902 57.7173 27.3826 58.0921 27.5201C58.2374 27.5736 58.2297 27.566 58.0768 27.4131C57.8779 27.2221 57.7709 27.2145 57.5414 27.3826V27.3826ZM65.1888 27.3826C65.1276 27.5048 65.12 27.8716 65.1506 28.5287C65.1659 28.819 65.3188 28.8725 65.3188 28.5898C65.3188 28.4522 65.3953 28.3529 65.5635 28.246C66.03 27.9633 66.0759 27.5278 65.6477 27.3367C65.3876 27.2145 65.2576 27.2298 65.1888 27.3826V27.3826ZM65.8159 27.7493C65.8159 27.7493 65.7394 27.8334 65.6477 27.9327L65.4794 28.1161L65.3876 27.9251C65.3265 27.7799 65.3265 27.6882 65.3953 27.5583L65.4871 27.3902L65.6477 27.566C65.7394 27.6653 65.8159 27.7493 65.8159 27.7493V27.7493ZM66.5118 27.4437C66.2594 27.6806 66.3206 27.8487 66.7718 28.1314C67.0701 28.3224 67.1236 28.4217 67.0318 28.6585C66.9706 28.819 66.6418 28.8114 66.55 28.6433C66.4889 28.5439 66.4583 28.5363 66.3818 28.6051C66.3053 28.6815 66.3283 28.7349 66.4736 28.8572C66.7106 29.0558 66.9859 29.0253 67.1618 28.7808C67.3683 28.4905 67.2765 28.2001 66.9171 27.9938C66.5883 27.8105 66.5424 27.6042 66.7948 27.4514C66.8942 27.3902 66.9477 27.3902 67.0012 27.4819C67.0395 27.543 67.093 27.566 67.1236 27.5354C67.2001 27.459 67.0012 27.2527 66.8483 27.2527C66.7795 27.2527 66.6265 27.3367 66.5118 27.4437V27.4437ZM37.1077 27.5278C37.0159 27.6424 36.9471 27.8105 36.9471 27.9098C36.9471 28.0091 36.9165 28.0931 36.8782 28.0931C36.8171 28.0931 36.5647 28.7502 36.5647 28.903C36.5647 28.9336 36.6488 28.8648 36.7559 28.7502C36.9012 28.5974 37.0082 28.5516 37.2759 28.5516C37.5512 28.5516 37.6277 28.5821 37.6583 28.7044C37.7042 28.8801 37.8648 28.9107 37.8648 28.7426C37.8648 28.628 37.7042 28.223 37.513 27.8487C37.4518 27.7417 37.4059 27.5965 37.4059 27.5354C37.4059 27.3215 37.2683 27.3215 37.1077 27.5278V27.5278ZM37.4059 28.0473C37.4059 28.2612 37.2759 28.3758 37.1612 28.2612C37.1077 28.2078 37.1153 28.1314 37.1688 28.0244C37.2912 27.8105 37.4059 27.8181 37.4059 28.0473V28.0473ZM38.3542 27.4437C38.3236 27.5125 38.3618 27.6271 38.4307 27.7035C38.5836 27.8716 38.5913 28.3453 38.4383 28.4752C38.3083 28.5821 38.2854 28.8572 38.4001 28.8572C38.446 28.8572 38.5148 28.7731 38.553 28.6662C38.6448 28.4217 38.7442 28.4217 38.9813 28.6815C39.0807 28.7884 39.1877 28.8648 39.2107 28.8343C39.2719 28.7731 39.1725 28.4752 39.0807 28.4752C38.9583 28.4752 39.0042 27.7722 39.1419 27.6194C39.2336 27.5201 39.2413 27.4513 39.1877 27.3979C39.1266 27.3367 39.0807 27.3597 39.0195 27.4743C38.9201 27.6576 38.553 27.6958 38.553 27.5278C38.553 27.3597 38.4077 27.2985 38.3542 27.4437V27.4437ZM42.1549 27.6882C42.0632 27.8869 41.9332 28.1543 41.8796 28.2689C41.7496 28.521 41.7267 28.7808 41.8414 28.7808C41.8873 28.7808 41.9408 28.7273 41.9637 28.6662C42.0326 28.4905 42.6138 28.5134 42.782 28.7044C42.8508 28.7884 42.9426 28.8572 42.9808 28.8572C43.042 28.8572 42.912 28.3835 42.7667 28.1084C42.7285 28.0397 42.652 27.8716 42.6061 27.734C42.4379 27.2909 42.3385 27.2833 42.1549 27.6882V27.6882ZM42.4761 28.032C42.5296 28.2307 42.4838 28.3224 42.3308 28.3224C42.262 28.3224 42.2238 28.2383 42.2238 28.0931C42.2238 27.8257 42.4149 27.7799 42.4761 28.032ZM59.1244 27.6729C59.025 27.8869 58.918 28.1237 58.8721 28.2078C58.8262 28.2918 58.7727 28.4675 58.7421 28.6051C58.6885 28.8343 58.6962 28.8496 58.8262 28.7731C58.9027 28.7349 58.9715 28.6662 58.9715 28.628C58.9715 28.4981 59.6368 28.5363 59.6904 28.6662C59.7133 28.7273 59.7821 28.7808 59.8357 28.7808C59.958 28.7808 59.9274 28.4522 59.7745 28.2078C59.7209 28.1237 59.6598 27.9709 59.6292 27.8639C59.6062 27.757 59.5145 27.5889 59.438 27.4819L59.2927 27.2985L59.1244 27.6729ZM59.4303 28.0931C59.4303 28.246 59.3921 28.3224 59.3156 28.3224C59.2392 28.3224 59.2009 28.246 59.2009 28.0931C59.2009 27.9403 59.2392 27.8639 59.3156 27.8639C59.3921 27.8639 59.4303 27.9403 59.4303 28.0931ZM67.7201 27.4361C67.6819 27.5278 67.7048 27.6118 67.7736 27.6653C67.9572 27.8105 68.1483 28.246 68.1483 28.5134C68.1483 28.6585 68.1789 28.7884 68.2172 28.8113C68.3013 28.8648 68.3778 28.6738 68.3778 28.3988C68.3778 28.0931 68.6148 27.6424 68.7831 27.6347C68.8595 27.6347 68.9131 27.5736 68.9131 27.4819C68.9131 27.2451 68.7142 27.2985 68.4619 27.6118C68.2325 27.8869 68.2248 27.8945 68.1178 27.7493C67.7736 27.268 67.7813 27.2756 67.7201 27.4361ZM34.584 27.8792C34.454 28.4828 34.4387 28.8114 34.5381 28.8572C34.584 28.8801 34.6223 28.7426 34.6376 28.5287C34.6529 28.3147 34.6987 28.1696 34.7523 28.1696C34.9129 28.1772 35.1117 28.3758 35.1117 28.5287C35.1117 28.6127 35.1652 28.7273 35.2264 28.7808C35.3794 28.9107 35.5705 28.7579 35.5705 28.5057C35.5705 28.3758 35.6317 28.2918 35.7694 28.246C35.8764 28.2001 35.9759 28.1696 35.9911 28.1696C36.0064 28.1696 36.0294 28.33 36.0447 28.5287C36.06 28.7349 36.1059 28.8878 36.1441 28.8725C36.2435 28.8419 36.2129 28.3224 36.1059 28.2154C36.0676 28.1772 36.0294 27.9709 36.0294 27.7722C36.0294 27.5201 35.9988 27.4055 35.93 27.4055C35.8153 27.4055 35.5705 27.8716 35.5705 28.0931C35.5705 28.2154 35.517 28.246 35.3411 28.246C35.2111 28.246 35.1117 28.2078 35.1117 28.1543C35.1117 27.9785 34.844 27.4055 34.7676 27.4055C34.7217 27.4055 34.6452 27.6194 34.584 27.8792V27.8792ZM49.7641 27.5736C49.787 27.6729 49.8635 27.8028 49.9247 27.8716C49.9858 27.948 50.0547 28.1925 50.0776 28.4293C50.1158 28.819 50.2535 28.9718 50.2535 28.6203C50.2535 28.437 50.5288 27.8181 50.6359 27.7493C50.7582 27.6729 50.7276 27.4055 50.5976 27.4055C50.5364 27.4055 50.4829 27.4666 50.4829 27.543C50.4829 27.6271 50.3988 27.7264 50.2841 27.7722C50.1082 27.8563 50.0853 27.8487 50.0164 27.6347C49.917 27.3597 49.6799 27.3062 49.7641 27.5736ZM53.5954 27.9556C53.4348 28.6203 53.4272 28.8801 53.5648 28.8419C53.6107 28.819 53.6642 28.6662 53.6795 28.4905C53.6948 28.3147 53.7407 28.1696 53.7789 28.1696C53.9166 28.1696 54.1384 28.437 54.169 28.628C54.2148 28.9947 54.4978 28.8037 54.6431 28.3071C54.6813 28.1925 54.7119 28.1848 54.8802 28.2612C55.0255 28.33 55.0713 28.4064 55.0713 28.5974C55.0713 28.7349 55.1096 28.8725 55.1478 28.8954C55.2472 28.9565 55.2472 28.3758 55.1555 28.2765C55.1096 28.2383 55.0713 28.0397 55.056 27.8334C55.0407 27.6271 54.9949 27.4437 54.9566 27.4284C54.8572 27.3979 54.6125 27.7952 54.6125 27.9785C54.6125 28.1237 54.406 28.3147 54.2531 28.3224C54.1995 28.3224 54.1537 28.2536 54.1537 28.1696C54.1537 27.9862 53.8707 27.4055 53.7866 27.4055C53.7483 27.4055 53.6642 27.6576 53.5954 27.9556V27.9556ZM56.1114 27.5736C56.0426 27.6653 55.989 27.8028 55.989 27.8792C55.989 27.9556 55.9584 28.0167 55.9126 28.0167C55.8743 28.0167 55.8131 28.1084 55.7902 28.223C55.7596 28.3453 55.6831 28.5134 55.622 28.6127C55.5455 28.7273 55.5302 28.8114 55.5837 28.8648C55.6372 28.9183 55.7061 28.8801 55.7902 28.7502C55.8973 28.5821 55.9737 28.5516 56.2567 28.5516C56.5473 28.5516 56.6085 28.5821 56.7079 28.7579C56.8073 28.9489 56.8226 28.9565 56.8761 28.8266C56.9067 28.7426 56.8838 28.5821 56.8073 28.4293C56.6238 28.0473 56.4708 27.6958 56.4173 27.5354C56.3637 27.3597 56.249 27.3673 56.1114 27.5736ZM56.4479 28.0549C56.4479 28.2689 56.2567 28.3911 56.1267 28.2612C56.0578 28.1925 56.0731 28.1314 56.1802 28.0167C56.3637 27.8105 56.4479 27.8257 56.4479 28.0549ZM60.4092 27.5048C60.3557 27.6958 60.4398 28.8572 60.5086 28.819C60.5469 28.7884 60.5774 28.6891 60.5774 28.5898C60.5774 28.4905 60.6004 28.3911 60.6386 28.3758C60.6998 28.33 61.0363 28.5821 61.0363 28.6738C61.0363 28.7349 61.2734 28.926 61.3651 28.9336C61.4875 28.9336 61.4034 28.7655 61.151 28.4828C61.0057 28.3224 60.8833 28.139 60.8833 28.0702C60.8833 28.0091 60.9904 27.8487 61.1128 27.7264C61.2428 27.5965 61.3422 27.4743 61.3422 27.4514C61.3422 27.352 61.1051 27.4131 61.0669 27.5201C61.0363 27.5812 60.9751 27.6347 60.9216 27.6347C60.868 27.6347 60.7992 27.6882 60.7763 27.757C60.7151 27.9098 60.5774 27.8257 60.5774 27.6347C60.5774 27.4666 60.4551 27.3673 60.4092 27.5048V27.5048ZM61.954 28.1237C61.954 28.819 62.0457 29.0864 62.1452 28.6815C62.2216 28.3758 62.1528 27.459 62.0534 27.4208C61.9769 27.3979 61.954 27.5736 61.954 28.1237ZM63.8811 27.4972C63.8276 27.5507 63.7893 27.6653 63.7893 27.7646C63.7893 27.8639 63.7588 27.9403 63.7129 27.9403C63.6746 27.9403 63.6058 28.0779 63.5599 28.246C63.514 28.4064 63.4452 28.5669 63.407 28.5898C63.3076 28.6509 63.3076 28.9336 63.407 28.9336C63.4529 28.9336 63.5217 28.8496 63.5599 28.7426C63.6211 28.5745 63.6746 28.5516 64.0188 28.5516C64.3629 28.5516 64.4164 28.5745 64.4776 28.7502C64.5235 28.8572 64.5847 28.9183 64.6306 28.8954C64.7453 28.8266 64.73 28.7502 64.4853 28.2307C64.3629 27.9633 64.2405 27.6729 64.2099 27.5736C64.1564 27.3902 64.0264 27.352 63.8811 27.4972ZM64.2023 28.0091C64.2788 28.1313 64.1641 28.3224 64.0188 28.3224C63.8964 28.3224 63.7893 28.1848 63.7893 28.0091C63.7893 27.9174 64.1488 27.9174 64.2023 28.0091ZM52.2265 27.8105C52.0277 27.9556 52.0047 27.9633 51.8747 27.841C51.7983 27.7723 51.6759 27.7111 51.5994 27.7111C51.4771 27.7111 51.4847 27.734 51.6224 27.9327C51.783 28.1619 51.8289 28.3224 51.7294 28.3224C51.6912 28.3224 51.63 28.4064 51.5765 28.5134C51.4694 28.7426 51.5459 28.7579 51.8059 28.5516C51.9742 28.414 52.0277 28.4064 52.1653 28.4905C52.2495 28.5439 52.3183 28.6127 52.3183 28.6433C52.3183 28.6815 52.3718 28.7044 52.433 28.7044C52.5859 28.7044 52.5783 28.6127 52.4024 28.3911C52.2571 28.1925 52.2724 28.032 52.4636 27.8869C52.5477 27.8257 52.563 27.7723 52.5095 27.7264C52.4636 27.6729 52.3565 27.7035 52.2265 27.8105V27.8105ZM36.9853 29.881C36.4423 30.1179 36.1212 30.7215 36.2129 31.3251C36.3582 32.219 37.4747 32.7844 38.0712 32.2648C38.2624 32.0967 38.2701 32.0738 38.1477 32.0203C38.0712 31.9974 37.9259 32.0051 37.8189 32.0585C37.4441 32.2266 37.1918 32.1655 36.8324 31.7988C36.5341 31.5008 36.4882 31.4167 36.4882 31.134C36.4882 30.4235 37.0694 29.9803 37.7653 30.1484C38.1401 30.2478 38.2165 30.2248 38.1401 30.0415C38.0483 29.7817 37.4059 29.6976 36.9853 29.881V29.881ZM38.5836 29.8887C38.5224 30.0491 38.6142 30.1561 38.8207 30.1561H39.0042L39.0272 31.241C39.0501 32.1502 39.0654 32.3336 39.1648 32.3336C39.2566 32.3336 39.2872 32.1502 39.3178 31.2639L39.356 30.1943L39.5854 30.1714C39.8837 30.1331 39.9831 30.0415 39.8531 29.8887C39.7231 29.7282 38.6448 29.7206 38.5836 29.8887V29.8887ZM41.6502 29.881C41.3061 30.0491 41.1914 30.1637 41.0078 30.5152C40.7019 31.1264 40.8778 31.7911 41.4743 32.219C42.0249 32.6239 42.7591 32.4788 43.2256 31.8828C43.4703 31.5696 43.4856 30.6756 43.2561 30.37C42.8738 29.8657 42.1396 29.6442 41.6502 29.881V29.881ZM42.5602 30.1866C43.0726 30.4006 43.302 31.1646 42.9961 31.6307C42.805 31.921 42.4302 32.1426 42.132 32.1426C41.6884 32.1426 41.1531 31.5772 41.1531 31.1111C41.1531 30.8972 41.3367 30.4999 41.5125 30.3242C41.742 30.0949 42.1932 30.0338 42.5602 30.1866V30.1866ZM47.6152 29.8963C47.4469 30.072 47.4775 32.3336 47.6534 32.3336C47.7375 32.3336 47.7757 32.2037 47.8063 31.7835C47.8293 31.4855 47.8675 31.2105 47.9057 31.1799C47.9363 31.1493 48.0969 31.1035 48.2728 31.0806C48.6705 31.0194 48.6934 30.8896 48.3034 30.859C47.9134 30.8284 47.791 30.7215 47.8216 30.4311C47.8446 30.2096 47.8675 30.1943 48.1887 30.1714C48.594 30.1408 48.7087 30.0567 48.5711 29.8887C48.4411 29.7282 47.7834 29.7358 47.6152 29.8963V29.8963ZM50.5212 29.8887C49.9858 30.1408 49.7794 30.4846 49.7794 31.1111C49.7794 31.6612 49.9017 31.8981 50.3606 32.2266C50.98 32.6774 51.8824 32.3947 52.0965 31.6765C52.2342 31.2257 52.1424 31.1111 51.6224 31.1111C51.3088 31.1111 51.2094 31.1417 51.2094 31.2257C51.2094 31.3021 51.3012 31.348 51.5 31.3633C51.7677 31.3862 51.7906 31.4091 51.7677 31.5925C51.7371 31.8293 51.3241 32.1426 51.0412 32.1426C50.5823 32.1426 50.0241 31.5696 50.0241 31.0958C50.0241 30.7826 50.4447 30.2248 50.7506 30.1408C51.0488 30.0567 51.5535 30.1408 51.6071 30.2783C51.653 30.4006 52.0124 30.4235 52.0124 30.3012C52.0124 30.0797 51.4235 29.774 51.0029 29.774C50.8653 29.7817 50.6512 29.8275 50.5212 29.8887V29.8887ZM54.8955 29.8275C54.8649 29.8505 54.8419 30.4388 54.8419 31.1264C54.8419 32.1808 54.8572 32.3718 54.9566 32.3718C55.0407 32.3718 55.0713 32.2725 55.0713 31.9669C55.0713 31.7376 55.0943 31.5314 55.1249 31.5084C55.1784 31.4473 55.5302 31.7453 55.5302 31.8522C55.5302 31.9974 55.8743 32.3718 56.0043 32.3718C56.1955 32.3718 56.1802 32.2878 55.8743 31.8446C55.5531 31.3862 55.5455 31.2869 55.8055 31.0958C56.0578 30.9125 56.142 30.4006 55.9661 30.1255C55.8208 29.9116 55.0331 29.69 54.8955 29.8275V29.8275ZM55.6678 30.2478C55.8284 30.4082 55.7749 30.7367 55.5684 30.8743C55.2166 31.1035 55.0713 31.0042 55.0713 30.5075C55.0713 30.37 55.0943 30.2325 55.1249 30.2096C55.209 30.1255 55.5684 30.1484 55.6678 30.2478V30.2478ZM56.6467 29.8887C56.5473 29.9956 56.5243 30.2019 56.5243 31.1111C56.5243 32.4482 56.532 32.4635 57.2814 32.4329C57.6714 32.4176 57.7862 32.3871 57.7862 32.2954C57.7862 32.2113 57.6867 32.1731 57.4267 32.1579C57.2355 32.1426 57.0291 32.0891 56.9832 32.028C56.9373 31.9745 56.9067 31.7453 56.922 31.5161L56.9449 31.1111L57.3656 31.0729C57.595 31.05 57.7862 30.9965 57.7862 30.9583C57.7862 30.9125 57.595 30.8666 57.3656 30.8437L56.9449 30.8055L56.922 30.4846L56.8991 30.1637L57.3426 30.1408C57.725 30.1179 57.7862 30.0949 57.7862 29.9651C57.7862 29.8275 57.725 29.8122 57.2814 29.7893C56.8914 29.774 56.7385 29.797 56.6467 29.8887ZM59.6445 29.8887C59.5068 29.9651 59.4227 30.0873 59.3921 30.2554C59.3156 30.6451 59.4533 30.8743 59.9198 31.134C60.1492 31.2716 60.3786 31.4397 60.4169 31.5161C60.5239 31.7071 60.3557 32.0051 60.0957 32.0967C59.9198 32.1579 59.8586 32.1426 59.6751 31.9669C59.2774 31.5848 59.0709 31.7606 59.438 32.1731C59.6292 32.3947 59.7286 32.4482 59.958 32.4482C60.111 32.4482 60.3174 32.3947 60.4092 32.326C60.608 32.1884 60.8069 31.8293 60.8069 31.6154C60.8069 31.3938 60.501 31.0729 60.0727 30.8437C59.7821 30.6909 59.6904 30.5992 59.6751 30.4388C59.6445 30.179 59.9274 30.0415 60.241 30.1561C60.5163 30.263 60.5774 30.2554 60.5774 30.0949C60.5774 29.8122 60.0192 29.69 59.6445 29.8887V29.8887ZM61.2351 29.8963C61.0516 30.072 61.0592 32.1502 61.2351 32.3336C61.4034 32.5017 62.3746 32.4711 62.3746 32.2954C62.3746 32.2113 62.2599 32.1731 61.954 32.1426L61.5334 32.1044V31.1111L61.954 31.0729C62.1834 31.05 62.3746 30.9965 62.3746 30.9583C62.3746 30.9125 62.1834 30.8666 61.954 30.8437L61.5334 30.8055L61.5104 30.477L61.4875 30.1561H61.9081C62.3516 30.1561 62.4893 30.072 62.3363 29.8887C62.1987 29.7282 61.3957 29.7358 61.2351 29.8963V29.8963ZM63.0017 29.8734C62.8793 29.9574 62.8717 30.1026 62.887 31.1493C62.9099 32.1426 62.9252 32.3336 63.0246 32.3336C63.1087 32.3336 63.147 32.2266 63.1623 31.8905C63.1852 31.4931 63.2005 31.4626 63.3229 31.5314C63.407 31.5696 63.5599 31.7606 63.667 31.9516C63.8888 32.3183 64.1258 32.5017 64.2099 32.3642C64.2405 32.326 64.1411 32.0967 63.9882 31.8752C63.6746 31.4015 63.6517 31.2792 63.8505 31.134C64.1717 30.9048 64.2635 30.4464 64.0494 30.1179C63.9729 29.9956 63.8123 29.9116 63.5523 29.8581C63.0934 29.7588 63.1546 29.7588 63.0017 29.8734ZM63.7893 30.3471C63.9346 30.7291 63.5676 31.1493 63.2923 30.9201C63.1776 30.8284 63.1317 30.3012 63.2311 30.2096C63.254 30.179 63.3764 30.1561 63.4987 30.1561C63.6593 30.1561 63.7358 30.2019 63.7893 30.3471ZM65.51 29.8963C65.4029 30.0033 65.3876 30.1866 65.4106 31.1646C65.4259 32.0738 65.4565 32.3183 65.5482 32.3718C65.6094 32.4176 65.8847 32.4406 66.16 32.4329C66.5653 32.41 66.6571 32.3871 66.68 32.2725C66.703 32.1655 66.6495 32.1426 66.3206 32.1426C65.8541 32.1426 65.6935 31.9745 65.7547 31.539C65.8159 31.1417 65.9 31.0729 66.3206 31.0729C66.5959 31.0729 66.6953 31.0424 66.6953 30.9583C66.6953 30.8819 66.5806 30.8437 66.2594 30.8284C65.8541 30.8055 65.8235 30.7902 65.77 30.5839C65.6782 30.263 65.8006 30.1561 66.2518 30.1561C66.5195 30.1561 66.6342 30.1255 66.6724 30.0338C66.7412 29.8505 66.5577 29.774 66.0683 29.774C65.77 29.774 65.5941 29.8122 65.51 29.8963V29.8963ZM67.483 29.9269C67.2612 30.0567 67.2307 30.1179 67.2307 30.4082C67.2307 30.6603 67.2765 30.7826 67.4065 30.9048C67.506 30.9965 67.6207 31.0729 67.6589 31.0729C67.6971 31.0729 67.8577 31.157 68.0183 31.2639C68.3625 31.5008 68.4084 31.8293 68.133 32.0203C67.896 32.1884 67.7354 32.1731 67.5289 31.9516C67.3071 31.7224 67.1542 31.7071 67.1542 31.9134C67.1542 32.1579 67.5366 32.4482 67.8501 32.4482C68.286 32.4482 68.6072 32.112 68.6072 31.6612C68.6072 31.3556 68.5766 31.2869 68.3242 31.0806C68.1636 30.9507 67.9801 30.8437 67.9113 30.8437C67.8425 30.8437 67.7354 30.7826 67.6666 30.7062C67.353 30.3624 67.6513 29.9803 68.0795 30.1637C68.2631 30.2325 68.3319 30.2325 68.4007 30.1637C68.4695 30.0873 68.4542 30.0338 68.3089 29.9192C68.0795 29.7358 67.7966 29.7358 67.483 29.9269V29.9269ZM34.8135 30.0491C34.7293 30.1637 34.6529 30.2936 34.6529 30.3547C34.6529 30.4082 34.607 30.5457 34.5458 30.668C34.4923 30.7826 34.3852 31.0118 34.3164 31.1722C34.2552 31.3251 34.1481 31.5696 34.087 31.7071C34.0181 31.837 33.9493 32.0433 33.9187 32.1579C33.8805 32.3336 33.8958 32.3718 34.0105 32.3718C34.1022 32.3642 34.2093 32.2496 34.3087 32.0433C34.454 31.73 34.477 31.7224 34.8593 31.6994C35.3105 31.6765 35.5705 31.7758 35.5705 31.9821C35.5705 32.0509 35.6547 32.1961 35.7617 32.2954C35.93 32.4558 35.9529 32.4558 35.9988 32.3412C36.0294 32.2725 35.9988 32.1044 35.93 31.9669C35.8688 31.8293 35.647 31.3251 35.4482 30.8437C35.2494 30.3624 35.0658 29.9345 35.0352 29.9039C35.0046 29.8657 34.9052 29.9345 34.8135 30.0491V30.0491ZM35.1882 30.9812C35.3029 31.2792 35.2111 31.3938 34.8823 31.3633C34.6299 31.3327 34.5993 31.0882 34.8135 30.8131C34.997 30.5839 35.0352 30.6069 35.1882 30.9812ZM40.2125 29.9039C40.1437 29.9651 40.1437 32.0891 40.2048 32.2496C40.2737 32.4253 40.4419 32.3947 40.4955 32.1961C40.5796 31.8675 40.549 30.0415 40.4496 29.9421C40.3425 29.8352 40.2813 29.8275 40.2125 29.9039V29.9039ZM43.8909 29.8963C43.8526 29.9269 43.8297 30.4999 43.8297 31.1646C43.8297 32.1731 43.845 32.3718 43.9444 32.3718C44.0974 32.3718 44.1662 31.9287 44.1127 31.3098C44.0515 30.5381 44.1279 30.4922 44.6403 31.0347C45.7415 32.1961 45.9174 32.3718 45.9786 32.3718C46.0168 32.3718 46.0474 31.8217 46.0474 31.1493C46.0474 29.9803 46.0398 29.9269 45.8945 29.9269C45.7492 29.9269 45.7415 29.9803 45.7415 30.6909C45.7415 31.6078 45.6574 31.7071 45.2674 31.2563C44.6174 30.5152 43.9368 29.8428 43.8909 29.8963ZM49.1599 29.9039C49.1293 29.9269 49.1064 30.4999 49.1064 31.1646C49.1064 32.1426 49.1293 32.3718 49.2135 32.3718C49.3817 32.3718 49.4123 32.1884 49.4123 31.1111C49.4123 29.9498 49.3588 29.6976 49.1599 29.9039ZM52.6012 29.9039C52.5706 29.9269 52.5477 30.3853 52.5477 30.9201V31.8905L52.8307 32.1655C53.0601 32.4024 53.1595 32.4482 53.4272 32.4482C53.8095 32.4482 54.0772 32.2648 54.2607 31.8828C54.3525 31.6918 54.3831 31.4015 54.3831 30.7826C54.3831 29.9269 54.3295 29.7511 54.1154 29.9269C54.0236 30.0033 54.0007 30.2248 54.0007 30.8972C54.0007 31.7224 53.9931 31.7758 53.8095 31.9516C53.5189 32.2496 53.1518 32.1961 52.9683 31.8293C52.8918 31.6842 52.8536 31.3709 52.8536 30.8514C52.8536 29.9498 52.7924 29.7129 52.6012 29.9039V29.9039ZM64.707 31.1111C64.707 32.1808 64.7223 32.3718 64.8217 32.3718C64.9212 32.3718 64.9364 32.1808 64.9364 31.1111C64.9364 30.0415 64.9212 29.8505 64.8217 29.8505C64.7223 29.8505 64.707 30.0415 64.707 31.1111Z" fill="black"/>
</g>
<defs>
<clipPath id="clip0_872_1163">
<rect width="69" height="34" fill="white"/>
</clipPath>
</defs>
</svg>
