<svg width="49" height="22" viewBox="0 0 49 22" fill="none" xmlns="http://www.w3.org/2000/svg">
<g clip-path="url(#clip0_872_1085)">
<path d="M2.53581 16.065L2.32712 16.5721C2.24993 16.5327 2.16417 16.5214 2.05268 16.5214C1.7525 16.5214 1.51808 16.6961 1.51808 17.0623V17.4595H2.35285V18.0004H1.51808V20.612H0.917732V18.0004H0.317383V17.4595H0.917732V17.0426C0.917732 16.4002 1.38086 15.9805 2.05268 15.9805C2.25565 15.9833 2.39859 16.0086 2.53581 16.065V16.065Z" fill="#010101"/>
<path d="M5.80618 19.0365C5.80618 19.9944 5.12007 20.7156 4.16237 20.7156C3.20467 20.7156 2.51855 19.9944 2.51855 19.0365C2.51855 18.0786 3.20467 17.3574 4.16237 17.3574C5.12007 17.3574 5.80618 18.0786 5.80618 19.0365ZM5.20583 19.0365C5.20583 18.3153 4.69696 17.8983 4.16237 17.8983C3.62777 17.8983 3.1189 18.3153 3.1189 19.0365C3.1189 19.7577 3.62777 20.1747 4.16237 20.1747C4.69696 20.1747 5.20583 19.7549 5.20583 19.0365Z" fill="#010101"/>
<path d="M6.28906 20.6125V17.4628H6.86368V17.9783H6.88941C7.02092 17.6177 7.48404 17.3867 7.81566 17.3867C8.01006 17.3867 8.14157 17.4121 8.2645 17.4628L8.03579 18.015C7.95003 17.984 7.84711 17.9699 7.71561 17.9699C7.30394 17.9699 6.88655 18.3108 6.88655 18.8883V20.6125H6.28906V20.6125Z" fill="#010101"/>
<path d="M10.5349 16.5741V18.0334H12.4532V18.5856H10.5349V20.0449H12.6619V20.6112H9.93457V16.0078H12.6619V16.5741H10.5349V16.5741Z" fill="#010101"/>
<path d="M13.8423 17.8983H13.868C14.0367 17.6082 14.4426 17.3574 14.88 17.3574C15.6948 17.3574 16.1007 17.904 16.1007 18.6815V20.6114H15.5004V18.7717C15.5004 18.1153 15.1688 17.8983 14.7113 17.8983C14.1882 17.8983 13.8709 18.3857 13.8709 18.8703V20.6114H13.2705V17.4617H13.8451V17.8983H13.8423Z" fill="#010101"/>
<path d="M16.9929 19.6542V18.0005H16.4326V17.4596H16.9929V16.4961H17.5933V17.4596H18.3766V18.0005H17.5933V19.6092C17.5933 19.9641 17.7419 20.1247 18.025 20.1247C18.1365 20.1247 18.2137 20.1106 18.2994 20.074L18.5081 20.5811C18.3709 20.6403 18.2279 20.6656 18.025 20.6656C17.3532 20.6628 16.9929 20.2966 16.9929 19.6542Z" fill="#010101"/>
<path d="M18.8857 20.6125V17.4628H19.4604V17.9783H19.4861C19.6176 17.6177 20.0807 17.3867 20.4123 17.3867C20.6067 17.3867 20.7382 17.4121 20.8612 17.4628L20.6325 18.015C20.5467 17.984 20.4438 17.9699 20.3123 17.9699C19.9006 17.9699 19.4832 18.3108 19.4832 18.8883V20.6125H18.8857Z" fill="#010101"/>
<path d="M20.875 19.0365C20.875 18.1434 21.5011 17.3574 22.4416 17.3574C23.3936 17.3574 24.0082 18.0195 24.0082 19.0365C24.0082 19.0816 24.0025 19.1464 24.0025 19.1464H21.4782C21.5097 19.8141 22.0014 20.1747 22.4959 20.1747C22.8476 20.1747 23.1992 20.0338 23.3707 19.6338L23.9053 19.8535C23.7167 20.3043 23.2449 20.7156 22.5102 20.7156C21.5268 20.7128 20.875 19.9859 20.875 19.0365V19.0365ZM22.4273 17.8983C21.9842 17.8983 21.6326 18.1941 21.5125 18.6562H23.365C23.3479 18.3801 23.1134 17.8983 22.4273 17.8983V17.8983Z" fill="#010101"/>
<path d="M25.0632 20.1747H25.0375L25.0632 20.6114V22.0003H24.4629V17.4617H25.0375V17.8983H25.0632C25.2462 17.6082 25.6436 17.3574 26.1524 17.3574C26.9615 17.3574 27.6733 18.0702 27.6733 19.0365C27.6733 20.0028 26.9615 20.7156 26.1524 20.7156C25.6436 20.7128 25.2462 20.462 25.0632 20.1747V20.1747ZM27.073 19.0365C27.073 18.3294 26.5898 17.8983 26.0552 17.8983C25.5206 17.8983 25.0375 18.3153 25.0375 19.0365C25.0375 19.7577 25.5206 20.1747 26.0552 20.1747C26.5898 20.1747 27.073 19.7436 27.073 19.0365Z" fill="#010101"/>
<path d="M28.125 20.6125V17.4628H28.6996V17.9783H28.7253C28.8569 17.6177 29.32 17.3867 29.6516 17.3867C29.846 17.3867 29.9775 17.4121 30.1004 17.4628L29.8717 18.015C29.786 17.984 29.683 17.9699 29.5515 17.9699C29.1399 17.9699 28.7225 18.3108 28.7225 18.8883V20.6125H28.125V20.6125Z" fill="#010101"/>
<path d="M30.1143 19.0365C30.1143 18.1434 30.7403 17.3574 31.6809 17.3574C32.6329 17.3574 33.2475 18.0195 33.2475 19.0365C33.2475 19.0816 33.2418 19.1464 33.2418 19.1464H30.7175C30.7489 19.8141 31.2406 20.1747 31.7352 20.1747C32.0868 20.1747 32.4385 20.0338 32.61 19.6338L33.1446 19.8535C32.9559 20.3043 32.4871 20.7156 31.7495 20.7156C30.7661 20.7128 30.1143 19.9859 30.1143 19.0365V19.0365ZM31.6666 17.8983C31.2235 17.8983 30.8718 18.1941 30.7518 18.6562H32.6043C32.5871 18.3801 32.3498 17.8983 31.6666 17.8983Z" fill="#010101"/>
<path d="M34.3032 17.8983H34.3289C34.4976 17.6082 34.9036 17.3574 35.341 17.3574C36.1557 17.3574 36.5617 17.904 36.5617 18.6815V20.6114H35.9613V18.7717C35.9613 18.1153 35.6297 17.8983 35.1723 17.8983C34.6491 17.8983 34.3318 18.3857 34.3318 18.8703V20.6114H33.7314V17.4617H34.3061L34.3032 17.8983V17.8983Z" fill="#010101"/>
<path d="M37.0156 19.0365C37.0156 18.1434 37.6417 17.3574 38.5823 17.3574C39.5342 17.3574 40.1489 18.0195 40.1489 19.0365C40.1489 19.0816 40.1432 19.1464 40.1432 19.1464H37.6188C37.6503 19.8141 38.142 20.1747 38.6366 20.1747C38.9882 20.1747 39.3398 20.0338 39.5114 19.6338L40.046 19.8535C39.8573 20.3043 39.3856 20.7156 38.6509 20.7156C37.6674 20.7128 37.0156 19.9859 37.0156 19.0365V19.0365ZM38.568 17.8983C38.1248 17.8983 37.7732 18.1941 37.6531 18.6562H39.5056C39.4885 18.3801 39.2541 17.8983 38.568 17.8983Z" fill="#010101"/>
<path d="M42.862 20.6126V20.1759H42.8362C42.659 20.4661 42.2616 20.7168 41.8242 20.7168C41.0009 20.7168 40.6035 20.1703 40.6035 19.3927V17.4629H41.2039V19.2941C41.2039 19.9505 41.5355 20.1759 41.9929 20.1759C42.5161 20.1759 42.8334 19.6801 42.8334 19.1983V17.4629H43.4337V20.6126H42.862V20.6126Z" fill="#010101"/>
<path d="M44.0996 20.6125V17.4628H44.6742V17.9783H44.7C44.8315 17.6177 45.2946 17.3867 45.6262 17.3867C45.8206 17.3867 45.9521 17.4121 46.075 17.4628L45.8463 18.015C45.7606 17.984 45.6577 17.9699 45.5261 17.9699C45.1145 17.9699 44.6971 18.3108 44.6971 18.8883V20.6125H44.0996Z" fill="#010101"/>
<path d="M46.1611 19.8152L46.6957 19.5954C46.8644 19.9927 47.1789 20.187 47.5648 20.187C47.9364 20.187 48.2052 20.0067 48.2052 19.7447C48.2052 19.5841 48.108 19.4095 47.7678 19.3278L47.1217 19.1728C46.8272 19.1024 46.2669 18.8517 46.2669 18.2995C46.2669 17.7276 46.8673 17.3613 47.5334 17.3613C48.088 17.3613 48.5711 17.6121 48.7655 18.0938L48.2423 18.3051C48.1194 18.0093 47.825 17.8882 47.5105 17.8882C47.1703 17.8882 46.8787 18.0347 46.8787 18.2938C46.8787 18.4939 47.0474 18.6037 47.3018 18.6601L47.9336 18.8066C48.5654 18.9531 48.8141 19.339 48.8141 19.725C48.8141 20.2856 48.3052 20.7139 47.5562 20.7139C46.7901 20.7139 46.3527 20.2659 46.1611 19.8152V19.8152Z" fill="#010101"/>
<path d="M39.0508 0.765625H40.8004V12.3023H39.0508V0.765625Z" fill="#010101"/>
<path d="M16.767 4.69336C14.5629 4.69336 12.7676 6.34427 12.7676 8.61781C12.7676 10.8772 14.5629 12.5423 16.767 12.5423C18.9712 12.5423 20.7665 10.8772 20.7665 8.61781C20.7665 6.34146 18.9712 4.69336 16.767 4.69336V4.69336ZM16.767 10.9956C15.5606 10.9956 14.52 10.0152 14.52 8.61781C14.52 7.20636 15.5606 6.24004 16.767 6.24004C17.9735 6.24004 19.0141 7.20636 19.0141 8.61781C19.0141 10.0152 17.9735 10.9956 16.767 10.9956Z" fill="#010101"/>
<path d="M6.3864 5.89593V7.56094H10.4288C10.3087 8.49627 9.99135 9.18086 9.50822 9.65698C8.9193 10.2373 7.99877 10.8769 6.3864 10.8769C3.89638 10.8769 1.9524 8.89914 1.9524 6.4453C1.9524 3.99147 3.89638 2.01656 6.3864 2.01656C7.73004 2.01656 8.71061 2.53776 9.43389 3.20545L10.626 2.03065C9.61399 1.07842 8.27321 0.351562 6.3864 0.351562C2.97585 0.351562 0.111328 3.08712 0.111328 6.44812C0.111328 9.80911 2.97871 12.5447 6.3864 12.5447C8.22747 12.5447 9.61399 11.9502 10.7003 10.8346C11.8181 9.73305 12.164 8.18919 12.164 6.93832C12.164 6.55236 12.1326 6.19456 12.0726 5.89875H6.3864V5.89593Z" fill="#010101"/>
<path d="M45.5973 10.9945C44.7082 10.9945 44.0735 10.5944 43.6647 9.8056L48.9907 7.63349L48.8106 7.18836C48.479 6.3122 47.4669 4.68945 45.4 4.68945C43.3474 4.68945 41.6436 6.28121 41.6436 8.6139C41.6436 10.8142 43.3331 12.5383 45.5973 12.5383C47.4241 12.5383 48.479 11.4368 48.9164 10.8001L47.5584 9.90702C47.1067 10.5634 46.4892 10.9945 45.5973 10.9945V10.9945ZM45.4629 6.20796C46.1576 6.20796 46.7465 6.54885 46.9409 7.04187L43.3817 8.49839C43.336 6.97989 44.571 6.20796 45.4629 6.20796V6.20796Z" fill="#010101"/>
<path d="M36.1839 5.56953H36.1239C35.7322 5.1075 34.9775 4.69336 34.0255 4.69336C32.0329 4.69336 30.209 6.41752 30.209 8.63471C30.209 10.835 32.0358 12.5451 34.0255 12.5451C34.9746 12.5451 35.7293 12.1281 36.1239 11.652H36.1839V12.2183C36.1839 13.7199 35.3691 14.5228 34.0569 14.5228C32.9849 14.5228 32.3216 13.7649 32.0501 13.1254L30.5263 13.7509C30.9637 14.7904 32.1244 16.0695 34.0569 16.0695C36.1096 16.0695 37.8448 14.8806 37.8448 11.9816V4.93001H36.1839V5.56953ZM34.177 10.9956C32.9706 10.9956 31.9586 9.99826 31.9586 8.63189C31.9586 7.24862 32.9706 6.23722 34.177 6.23722C35.3691 6.23722 36.304 7.24862 36.304 8.63189C36.304 10.0011 35.3691 10.9956 34.177 10.9956Z" fill="#010101"/>
<path d="M25.4858 4.69336C23.2817 4.69336 21.4863 6.34427 21.4863 8.61781C21.4863 10.8772 23.2817 12.5423 25.4858 12.5423C27.6899 12.5423 29.4853 10.8772 29.4853 8.61781C29.4853 6.34146 27.6899 4.69336 25.4858 4.69336V4.69336ZM25.4858 10.9956C24.2794 10.9956 23.2388 10.0152 23.2388 8.61781C23.2388 7.20636 24.2794 6.24004 25.4858 6.24004C26.6922 6.24004 27.7328 7.20636 27.7328 8.61781C27.7357 10.0152 26.6951 10.9956 25.4858 10.9956Z" fill="#010101"/>
</g>
<defs>
<clipPath id="clip0_872_1085">
<rect width="49" height="22" fill="white"/>
</clipPath>
</defs>
</svg>
