<svg width="148" height="131" viewBox="0 0 148 131" fill="none" xmlns="http://www.w3.org/2000/svg">
<path d="M57.5922 83.0767H58.649V89.3153C58.649 89.8721 58.5467 90.3451 58.3422 90.7344C58.1376 91.1236 57.8493 91.419 57.4771 91.6207C57.105 91.8224 56.666 91.9233 56.1603 91.9233C55.6831 91.9233 55.2584 91.8366 54.8862 91.6633C54.514 91.4872 54.2214 91.2372 54.0084 90.9133C53.7953 90.5895 53.6888 90.2045 53.6888 89.7585H54.7285C54.7285 90.0057 54.7896 90.2216 54.9118 90.4062C55.0368 90.588 55.2072 90.7301 55.4231 90.8324C55.639 90.9346 55.8848 90.9858 56.1603 90.9858C56.4643 90.9858 56.7228 90.9219 56.9359 90.794C57.149 90.6662 57.3109 90.4787 57.4217 90.2315C57.5353 89.9815 57.5922 89.6761 57.5922 89.3153V83.0767ZM63.2896 91.9403C62.6987 91.9403 62.1802 91.7997 61.7342 91.5184C61.291 91.2372 60.9444 90.8437 60.6944 90.338C60.4473 89.8324 60.3237 89.2415 60.3237 88.5653C60.3237 87.8835 60.4473 87.2883 60.6944 86.7798C60.9444 86.2713 61.291 85.8764 61.7342 85.5951C62.1802 85.3139 62.6987 85.1733 63.2896 85.1733C63.8805 85.1733 64.3976 85.3139 64.8407 85.5951C65.2868 85.8764 65.6334 86.2713 65.8805 86.7798C66.1305 87.2883 66.2555 87.8835 66.2555 88.5653C66.2555 89.2415 66.1305 89.8324 65.8805 90.338C65.6334 90.8437 65.2868 91.2372 64.8407 91.5184C64.3976 91.7997 63.8805 91.9403 63.2896 91.9403ZM63.2896 91.0369C63.7385 91.0369 64.1078 90.9219 64.3976 90.6917C64.6873 90.4616 64.9018 90.1591 65.041 89.7841C65.1802 89.4091 65.2498 89.0028 65.2498 88.5653C65.2498 88.1278 65.1802 87.7201 65.041 87.3423C64.9018 86.9645 64.6873 86.6591 64.3976 86.4261C64.1078 86.1932 63.7385 86.0767 63.2896 86.0767C62.8407 86.0767 62.4714 86.1932 62.1817 86.4261C61.8919 86.6591 61.6774 86.9645 61.5382 87.3423C61.399 87.7201 61.3294 88.1278 61.3294 88.5653C61.3294 89.0028 61.399 89.4091 61.5382 89.7841C61.6774 90.1591 61.8919 90.4616 62.1817 90.6917C62.4714 90.9219 62.8407 91.0369 63.2896 91.0369ZM67.7907 91.804V85.2585H68.7964V91.804H67.7907ZM68.302 84.1676C68.106 84.1676 67.937 84.1008 67.7949 83.9673C67.6557 83.8338 67.5861 83.6733 67.5861 83.4858C67.5861 83.2983 67.6557 83.1378 67.7949 83.0042C67.937 82.8707 68.106 82.804 68.302 82.804C68.4981 82.804 68.6657 82.8707 68.8049 83.0042C68.9469 83.1378 69.0179 83.2983 69.0179 83.4858C69.0179 83.6733 68.9469 83.8338 68.8049 83.9673C68.6657 84.1008 68.4981 84.1676 68.302 84.1676ZM71.644 87.8665V91.804H70.6383V85.2585H71.6099V86.2812H71.6951C71.8486 85.9488 72.0815 85.6818 72.394 85.4801C72.7065 85.2755 73.1099 85.1733 73.6042 85.1733C74.0474 85.1733 74.4352 85.2642 74.7676 85.446C75.1 85.625 75.3585 85.8977 75.5432 86.2642C75.7278 86.6278 75.8201 87.088 75.8201 87.6449V91.804H74.8145V87.713C74.8145 87.1988 74.6809 86.7983 74.4139 86.5113C74.1469 86.2216 73.7804 86.0767 73.3145 86.0767C72.9934 86.0767 72.7065 86.1463 72.4537 86.2855C72.2037 86.4247 72.0062 86.6278 71.8613 86.8949C71.7165 87.1619 71.644 87.4858 71.644 87.8665ZM85.1579 89.1278V85.2585H86.1635V91.804H85.1579V90.696H85.0897C84.9363 91.0284 84.6976 91.3111 84.3738 91.544C84.0499 91.7741 83.6408 91.8892 83.1465 91.8892C82.7374 91.8892 82.3738 91.7997 82.0556 91.6207C81.7374 91.4389 81.4874 91.1662 81.3056 90.8025C81.1238 90.4361 81.0329 89.9744 81.0329 89.4176V85.2585H82.0385V89.3494C82.0385 89.8267 82.1721 90.2074 82.4391 90.4915C82.709 90.7755 83.0527 90.9176 83.4704 90.9176C83.7204 90.9176 83.9746 90.8537 84.2331 90.7258C84.4945 90.598 84.7133 90.402 84.8894 90.1378C85.0684 89.8736 85.1579 89.5369 85.1579 89.1278ZM92.6419 86.7244L91.7385 86.9801C91.6817 86.8295 91.5978 86.6832 91.4871 86.5412C91.3791 86.3963 91.2314 86.277 91.0439 86.1832C90.8564 86.0895 90.6163 86.0426 90.3237 86.0426C89.9231 86.0426 89.5893 86.1349 89.3223 86.3196C89.0581 86.5014 88.926 86.7329 88.926 87.0142C88.926 87.2642 89.0169 87.4616 89.1987 87.6065C89.3805 87.7514 89.6646 87.8721 90.051 87.9687L91.0226 88.2074C91.6078 88.3494 92.0439 88.5667 92.3308 88.8594C92.6177 89.1491 92.7612 89.5227 92.7612 89.9801C92.7612 90.3551 92.6532 90.6903 92.4373 90.9858C92.2243 91.2812 91.926 91.5142 91.5425 91.6846C91.1589 91.8551 90.7129 91.9403 90.2044 91.9403C89.5368 91.9403 88.9842 91.7954 88.5467 91.5057C88.1092 91.2159 87.8322 90.7926 87.7157 90.2358L88.6703 89.9971C88.7612 90.3494 88.9331 90.6136 89.1859 90.7898C89.4416 90.9659 89.7754 91.054 90.1873 91.054C90.6561 91.054 91.0282 90.9545 91.3038 90.7557C91.5822 90.554 91.7214 90.3125 91.7214 90.0312C91.7214 89.804 91.6419 89.6136 91.4828 89.4602C91.3237 89.304 91.0794 89.1875 90.7498 89.1108L89.6589 88.8551C89.0595 88.713 88.6192 88.4929 88.3379 88.1946C88.0595 87.8934 87.9203 87.517 87.9203 87.0653C87.9203 86.696 88.024 86.3693 88.2314 86.0852C88.4416 85.8011 88.7271 85.5781 89.0879 85.4162C89.4515 85.2542 89.8635 85.1733 90.3237 85.1733C90.9714 85.1733 91.48 85.3153 91.8493 85.5994C92.2214 85.8835 92.4856 86.2585 92.6419 86.7244Z" fill="#1055DB"/>
<rect x="0.5" y="0.5" width="147" height="129.588" rx="4.5" stroke="#1055DB"/>
<g clip-path="url(#clip0_574_16645)">
<path d="M84.1569 62.392V59.4901C84.1569 57.9508 83.5454 56.4745 82.4569 55.3861C81.3685 54.2976 79.8922 53.6862 78.3529 53.6862H68.1961C66.6568 53.6862 65.1805 54.2976 64.0921 55.3861C63.0036 56.4745 62.3922 57.9508 62.3922 59.4901V62.392" stroke="#1055DB" stroke-width="2" stroke-linecap="round" stroke-linejoin="round"/>
<path d="M73.2745 47.8823C76.4799 47.8823 79.0784 45.2838 79.0784 42.0783C79.0784 38.8729 76.4799 36.2744 73.2745 36.2744C70.0691 36.2744 67.4706 38.8729 67.4706 42.0783C67.4706 45.2838 70.0691 47.8823 73.2745 47.8823Z" stroke="#1055DB" stroke-width="2" stroke-linecap="round" stroke-linejoin="round"/>
<path d="M89.9608 43.5293V52.2352" stroke="#1055DB" stroke-width="2" stroke-linecap="round" stroke-linejoin="round"/>
<path d="M94.3137 47.8823H85.6078" stroke="#1055DB" stroke-width="2" stroke-linecap="round" stroke-linejoin="round"/>
</g>
<defs>
<clipPath id="clip0_574_16645">
<rect width="34.8235" height="34.8235" fill="white" transform="translate(60.9412 31.9215)"/>
</clipPath>
</defs>
</svg>
