<svg width="61" height="18" viewBox="0 0 61 18" fill="none" xmlns="http://www.w3.org/2000/svg">
<path fill-rule="evenodd" clip-rule="evenodd" d="M22.7222 7.67771C22.7222 6.01573 23.9791 4.85563 26.2658 4.85563C27.659 4.85563 28.8008 5.28466 29.4194 5.70494C29.5835 5.80714 29.6474 6.00826 29.5709 6.18139L29.0673 7.19625C28.9742 7.36191 28.7372 7.34067 28.6161 7.28083C28.1754 7.06558 27.4538 6.70229 26.7988 6.6351C26.636 6.6183 26.4656 6.6096 26.2931 6.61322C25.7085 6.62565 25.2209 6.82123 25.0482 7.2509C25.0134 7.3363 24.9947 7.42152 24.9929 7.50622C24.9778 8.07239 25.7941 8.2766 26.7838 8.43952C28.6253 8.74367 30.0169 9.26387 30.0169 11.0892C30.0169 12.6396 28.7298 14.0411 26.2311 13.9981C24.5788 13.966 23.4068 13.429 22.7784 12.9059C22.7572 12.8884 22.5179 12.6535 22.6458 12.3719C22.7928 12.0085 23.0396 11.5913 23.2343 11.3723C23.3425 11.23 23.628 11.2075 23.7757 11.2965C24.2936 11.6066 25.1386 12.1034 26.1275 12.1355L26.3569 12.1369C27.2406 12.1165 27.7752 11.7941 27.7637 11.2498C27.754 10.7705 27.0536 10.4909 25.9465 10.2882C24.1671 9.96501 22.7361 9.40036 22.7361 7.67637M38.8974 10.0423C37.6428 10.0583 36.4926 10.3888 36.4593 11.3336C36.4593 12.0829 37.09 12.4513 37.9765 12.4032C38.826 12.3244 39.4742 11.9692 39.7597 11.4984C39.8657 11.3233 39.8809 10.6704 39.8747 10.391C39.8732 10.3326 39.7514 10.2189 39.6976 10.1976C39.431 10.0897 39.2334 10.0561 38.8972 10.0431M34.7228 6.23692C35.3097 5.73131 36.4643 4.94412 38.3271 4.98571C40.7728 5.03459 42.0653 6.13992 42.1856 8.77726C42.2348 9.86731 42.1531 12.908 42.132 13.6653C42.1418 13.7171 42.1247 13.7702 42.0862 13.8074C42.0671 13.8258 42.0437 13.8394 42.0181 13.8472C41.9925 13.855 41.9654 13.8567 41.939 13.8521L40.1778 13.8558C39.962 13.8456 39.937 13.7427 39.9339 13.6341L39.9211 13.1832C39.9188 13.0928 39.8303 13.0957 39.8074 13.1103C39.2335 13.694 38.2932 13.9859 37.2936 13.9859C35.7746 13.9859 34.2604 13.125 34.2649 11.42C34.2695 9.67411 35.5543 8.81255 36.9657 8.60968C37.8699 8.47983 38.889 8.59509 39.6598 8.8906C39.709 8.9095 39.8098 8.88185 39.8112 8.81466C39.8142 8.59224 39.8036 8.16834 39.7583 7.96692C39.6447 7.45477 39.2017 7.04254 38.2704 6.93095C38.0788 6.90791 37.8853 6.90295 37.6927 6.91637C36.9521 6.97248 36.0617 7.52914 35.6922 7.7371C35.6051 7.78592 35.4697 7.75022 35.4256 7.69551C35.2106 7.42718 34.6685 6.64338 34.6268 6.51797C34.5851 6.39255 34.6442 6.28814 34.72 6.22246L34.7228 6.23692ZM42.9776 9.47899C42.9625 7.04365 44.7237 4.98921 47.5836 4.97025C49.3675 4.9594 50.6638 5.73848 50.8925 6.1062C50.9379 6.1923 50.9151 6.26451 50.8826 6.35137C50.6513 6.78575 50.3823 7.19975 50.0784 7.58876C49.9627 7.73167 49.8362 7.60917 49.6908 7.51573C49.2856 7.25528 48.5149 6.93708 47.757 6.93708C46.382 6.93708 45.3567 7.84612 45.3689 9.51767C45.3794 11.1227 46.3532 12.0033 47.7615 12.0347C48.4938 12.0522 49.2039 11.6466 49.5787 11.3146C49.6983 11.214 49.8225 11.2635 49.9596 11.3671C50.2284 11.632 50.6138 12.0406 50.8281 12.3155C50.9682 12.4717 50.8638 12.6249 50.813 12.6862C50.2329 13.3938 49.1124 13.9884 47.6297 13.9965C44.5253 14.0183 42.9853 11.9143 42.9708 9.47024M57.7889 13.8886C57.9343 13.8783 59.4895 13.671 59.9673 13.566C60.0854 13.5397 60.1277 13.4442 60.0625 13.3487L58.3611 10.89L56.7445 8.89317C56.6885 8.82014 56.6915 8.74722 56.7521 8.68889L59.7096 5.83181C59.9761 5.55456 59.8157 5.43428 59.59 5.36924C59.1524 5.24383 58.4453 5.08692 58.043 5.00443C57.8735 4.97014 57.669 4.98256 57.5129 5.12845L54.0981 8.39338C53.9845 8.50276 53.9194 8.47855 53.9187 8.32181L53.8453 1.31432C53.8424 1.20483 53.7061 1.12241 53.6295 1.11891L51.8464 1.11523C51.7336 1.13478 51.6445 1.21848 51.6215 1.3268C51.5307 2.6451 51.6594 12.3228 51.7139 13.6769C51.7152 13.7716 51.7915 13.8496 51.8896 13.8564C52.2811 13.8782 53.2494 13.8768 53.7022 13.8688C53.9248 13.8688 53.9521 13.7178 53.9521 13.7178L53.9854 11.1204C53.9854 11.1204 54.0082 11.0052 54.0461 10.9746L54.8351 10.1778C54.8805 10.1355 54.9517 10.1385 54.9971 10.1982C55.2205 10.4886 55.858 11.4327 56.4487 12.276L57.5337 13.7868C57.6154 13.8991 57.711 13.9036 57.7836 13.9013L57.7889 13.8886Z" fill="black"/>
<path fill-rule="evenodd" clip-rule="evenodd" d="M31.3498 13.8873L32.9838 13.8902C33.0445 13.8938 33.1042 13.8737 33.1498 13.8343C33.1721 13.8149 33.1902 13.7914 33.2031 13.765C33.2159 13.7386 33.2232 13.71 33.2245 13.6808C33.323 11.7825 33.2805 2.74467 33.2184 1.31835C33.2132 1.19428 33.1579 1.14831 33.0709 1.1374C32.6771 1.08631 31.555 1.09873 31.1953 1.1885C31.129 1.20192 31.0814 1.25815 31.0811 1.32342C30.9932 5.00181 31.0523 13.4824 31.0712 13.6429C31.0902 13.8035 31.1772 13.8815 31.3491 13.8874L31.3498 13.8873Z" fill="black"/>
<path fill-rule="evenodd" clip-rule="evenodd" d="M4.76074 11.1644C4.76074 10.1503 5.55683 9.33398 6.54569 9.33398C7.53455 9.33398 8.33064 10.1503 8.33064 11.1644V15.67C8.33064 16.684 7.53455 17.5004 6.54569 17.5004C5.55683 17.5004 4.76074 16.684 4.76074 15.67V11.1644Z" fill="#E01E5A"/>
<path fill-rule="evenodd" clip-rule="evenodd" d="M11.3866 12.8339C10.3523 12.8339 9.51953 12.0534 9.51953 11.0839C9.51953 10.1145 10.3522 9.33398 11.3866 9.33398H15.9823C17.0167 9.33398 17.8494 10.1145 17.8494 11.0839C17.8494 12.0534 17.0167 12.8339 15.9823 12.8339H11.3866Z" fill="#ECB22D"/>
<path fill-rule="evenodd" clip-rule="evenodd" d="M9.51953 1.83045C9.51953 0.816351 10.3156 0 11.3045 0C12.2933 0 13.0894 0.816351 13.0894 1.83045V6.33598C13.0894 7.35007 12.2933 8.16642 11.3045 8.16642C10.3156 8.16642 9.51953 7.35007 9.51953 6.33598V1.83045Z" fill="#2FB67C"/>
<path fill-rule="evenodd" clip-rule="evenodd" d="M1.86705 8.16786C0.832677 8.16786 0 7.38739 0 6.41792C0 5.44845 0.832677 4.66797 1.86705 4.66797H6.4627C7.49707 4.66797 8.32975 5.44845 8.32975 6.41792C8.32975 7.38739 7.49707 8.16786 6.4627 8.16786H1.86705Z" fill="#36C5F1"/>
<path fill-rule="evenodd" clip-rule="evenodd" d="M9.51953 15.7499C9.51953 16.7194 10.3156 17.4999 11.3045 17.4999C12.2933 17.4999 13.0894 16.7194 13.0894 15.7499C13.0894 14.7805 12.2933 14 11.3045 14H9.51953V15.7499Z" fill="#ECB22D"/>
<path fill-rule="evenodd" clip-rule="evenodd" d="M16.0652 8.16786H14.2803V6.41792C14.2803 5.44845 15.0764 4.66797 16.0652 4.66797C17.0541 4.66797 17.8502 5.44845 17.8502 6.41792C17.8502 7.38739 17.0541 8.16786 16.0652 8.16786Z" fill="#2FB67C"/>
<path fill-rule="evenodd" clip-rule="evenodd" d="M1.78495 9.33398H3.56989V11.0839C3.56989 12.0534 2.77381 12.8339 1.78495 12.8339C0.796086 12.8339 0 12.0534 0 11.0839C0 10.1145 0.796086 9.33398 1.78495 9.33398Z" fill="#E01E5A"/>
<path fill-rule="evenodd" clip-rule="evenodd" d="M8.33064 1.74995V3.4999H6.54569C5.55683 3.4999 4.76074 2.71942 4.76074 1.74995C4.76074 0.780477 5.55683 0 6.54569 0C7.53455 0 8.33064 0.780477 8.33064 1.74995Z" fill="#36C5F1"/>
</svg>
