<svg width="75" height="20" viewBox="0 0 75 20" fill="none" xmlns="http://www.w3.org/2000/svg">
<path d="M45.0901 0.755598L43.3047 15.2261L42.9408 17.0205C43.0255 17.0205 43.0339 17.0205 43.0847 17.0205C45.0055 17.0205 46.3678 15.3026 46.6301 13.1681L47.6624 4.85626C47.9755 2.3263 46.4693 0.755598 45.0901 0.755598ZM70.3985 8.54191C70.3985 8.54191 69.1632 12.4113 69.0701 12.7429C69.0701 12.4113 68.1393 5.45324 68.1393 5.45324C66.0408 5.45324 64.9239 6.94995 64.3316 8.54191C64.3316 8.54191 62.8339 12.4283 62.7155 12.7514C62.7155 12.4453 62.4785 8.57593 62.4785 8.57593C62.3516 6.63445 60.5916 5.45834 59.1616 5.45834L60.8793 16.0085C63.0793 16.0085 64.2555 14.5033 64.8732 12.9215C64.8732 12.9215 66.1932 9.48586 66.2439 9.33279C66.2439 9.48586 67.1916 16.0085 67.1916 16.0085C69.3916 16.0085 70.5847 14.6053 71.2193 13.0831L74.3078 5.45834C72.1332 5.45834 70.9908 6.9508 70.3985 8.54191ZM55.117 10.5659C54.9901 11.8585 54.4232 13.8059 52.8747 13.8059C51.3178 13.8059 51.5378 11.5183 51.6901 10.4298C51.8508 9.26476 52.5024 7.61497 53.8901 7.61497C55.1424 7.61497 55.2608 9.10318 55.117 10.5659ZM54.127 5.27465C51.6732 5.27465 49.3632 7.08687 48.6524 9.93658C47.9501 12.7854 49.0247 16.153 52.6293 16.153C56.2255 16.153 58.2985 12.6409 58.2985 9.73248C58.2985 6.81899 56.3355 5.27465 54.127 5.27465V5.27465ZM43.0932 5.45834H40.9608V5.34694C41.1216 3.95142 41.4516 3.21922 42.5262 3.10697C43.2624 3.03043 43.5924 2.6469 43.677 2.2319C43.7362 1.9062 43.9393 0.755598 43.9393 0.755598C39.6747 0.731786 38.3378 2.58142 37.9993 5.39371V5.46174C37.3055 5.46174 36.5439 6.24922 36.4085 7.25015V7.61497H37.8216L36.637 17.5137L36.2732 19.2995C36.3578 19.2995 36.3747 19.2995 36.417 19.2995C38.4139 19.2145 39.6916 17.6498 39.9708 15.3537L40.9016 7.61497H41.5701C42.2216 7.61497 42.9916 6.96186 43.1355 5.86314L43.2201 5.46089L43.0932 5.45834ZM32.2624 10.6509C31.9493 12.5133 30.917 13.7634 29.9185 13.7634C28.9116 13.7634 28.4885 13.3212 28.4885 13.3212C28.6747 11.6884 28.8016 10.6934 29.1655 9.83453C29.5293 8.97562 30.4008 7.60647 31.2978 7.60647C32.1778 7.60647 32.5755 8.78853 32.2624 10.6509V10.6509ZM32.5416 5.21257C31.1878 5.21257 30.147 5.95158 29.267 7.04265L30.0455 0.701172C28.2516 0.701172 26.7793 2.27697 26.5001 4.61474L25.1293 15.9234C26.1616 15.9234 27.2616 15.6258 27.8624 14.8519C28.3955 15.5408 29.1824 16.085 30.3501 16.085C33.3878 16.085 35.4778 12.5388 35.4778 9.21373C35.4778 6.17353 34.0055 5.21257 32.5416 5.21257V5.21257ZM11.9293 8.54191C11.9293 8.54191 10.7024 12.4113 10.6093 12.7429C10.6093 12.4113 9.67007 5.45324 9.67007 5.45324C7.58007 5.45324 6.45554 6.94995 5.86492 8.54191C5.86492 8.54191 4.36892 12.4283 4.24708 12.7514C4.24708 12.4453 4.01692 8.57593 4.01692 8.57593C3.89084 6.63445 2.12408 5.45834 0.692383 5.45834L2.41431 16.0085C4.61261 16.0085 5.78961 14.5033 6.41069 12.9215C6.41069 12.9215 7.72392 9.48586 7.78315 9.33279C7.78315 9.48586 8.73084 16.0085 8.73084 16.0085C10.9308 16.0085 12.1155 14.6053 12.7585 13.0831L15.847 5.45834C13.6639 5.45834 12.5216 6.9508 11.9293 8.54191V8.54191ZM21.6262 8.18474C21.6262 8.59294 21.4147 9.29877 18.5208 9.68996C19.1385 7.51292 20.2978 7.3539 20.8393 7.3539C21.3385 7.3539 21.6601 7.74253 21.6262 8.18474V8.18474ZM24.4608 7.96364C24.4608 6.6353 23.1747 5.22703 20.9578 5.22703C18.4616 5.22703 15.7201 7.06391 15.297 10.7275C14.8655 14.4437 17.167 16.085 19.477 16.085C21.787 16.085 22.997 15.1751 24.2324 13.9675C23.1662 12.6154 21.7955 13.2447 21.5332 13.3722C21.2455 13.5168 20.8732 13.7209 20.1032 13.7209C19.2062 13.7209 18.3008 13.3127 18.3008 11.6459C24.0208 11.0931 24.4608 9.29027 24.4608 7.96364V7.96364Z" fill="black"/>
</svg>
