<svg width="88" height="22" viewBox="0 0 88 22" fill="none" xmlns="http://www.w3.org/2000/svg">
<path d="M51.0387 8.66016H47.5746V9.06506C48.6581 9.06506 48.8323 9.32093 48.8323 10.835V13.5644C48.8323 15.0783 48.6583 15.3555 47.5746 15.3555C46.7427 15.2277 46.1813 14.7371 45.4072 13.7989L44.5171 12.7329C45.7168 12.498 46.3553 11.6667 46.3553 10.7283C46.3553 9.55579 45.446 8.66016 43.7428 8.66016H40.3369V9.06506C41.4205 9.06506 41.5947 9.32093 41.5947 10.835V13.5644C41.5947 15.0783 41.4205 15.3555 40.3369 15.3555V15.7606H44.1879V15.3555C43.1044 15.3555 42.9301 15.0783 42.9301 13.5644V12.797H43.259L45.4072 15.7606H51.0387C53.806 15.7606 55.0059 14.1403 55.0059 12.1996C55.0059 10.2593 53.8061 8.66016 51.0387 8.66016ZM42.9303 12.1355V9.29992H43.7236C44.5943 9.29992 44.9815 9.96087 44.9815 10.7285C44.9815 11.4749 44.5943 12.1357 43.7236 12.1357L42.9303 12.1355ZM51.0969 15.0996H50.9613C50.2648 15.0996 50.168 14.9079 50.168 13.927V9.29992C50.168 9.29992 51.0195 9.29992 51.0969 9.29992C53.1095 9.29992 53.4769 10.9203 53.4769 12.1784C53.4769 13.479 53.1093 15.0996 51.0969 15.0996Z" fill="#00749A"/>
<path d="M29.5583 12.9245L30.8936 8.57431C31.2808 7.31632 31.1066 6.95397 29.8681 6.95397V6.52734H33.5062V6.95397C32.2871 6.95397 31.9969 7.27377 31.513 8.83036L29.3067 16.1228H29.0552L27.0811 9.44857L25.0687 16.1228H24.817L22.669 8.83036C22.2046 7.27377 21.8949 6.95397 20.7725 6.95397V6.52734H25.0687V6.95397C23.9268 6.95397 23.617 7.2524 24.0236 8.57431L25.3201 12.9245L27.2747 6.52734H27.6425L29.5583 12.9245Z" fill="#00749A"/>
<path d="M36.137 16.0379C34.0083 16.0379 32.2666 14.3109 32.2666 12.1997C32.2666 10.1102 34.0085 8.38281 36.137 8.38281C38.2658 8.38281 40.0073 10.1102 40.0073 12.1997C40.0073 14.3109 38.2658 16.0379 36.137 16.0379ZM36.137 9.0443C34.3568 9.0443 33.7373 10.8139 33.7373 12.1999C33.7373 13.6074 34.3568 15.3558 36.137 15.3558C37.9369 15.3558 38.5562 13.6074 38.5562 12.1999C38.5562 10.8139 37.9369 9.0443 36.137 9.0443Z" fill="#00749A"/>
<path d="M59.7851 15.334V15.7604H55.3535V15.334C56.6502 15.334 56.8824 14.9716 56.8824 12.839V9.42757C56.8824 7.29495 56.6502 6.95397 55.3535 6.95397V6.52734H59.3593C61.3525 6.52734 62.4559 7.65748 62.4559 9.1717C62.4559 10.643 61.3525 11.7943 59.3593 11.7943H58.2562V12.8388C58.2562 14.9716 58.4884 15.334 59.7851 15.334ZM59.3593 7.29495H58.2562V11.0053H59.3593C60.4432 11.0053 60.9462 10.1738 60.9462 9.1717C60.9462 8.14822 60.4432 7.29495 59.3593 7.29495Z" fill="#464342"/>
<path d="M75.7508 13.7564L75.654 14.1401C75.48 14.8438 75.2668 15.0996 73.8929 15.0996H73.6219C72.6158 15.0996 72.4415 14.8438 72.4415 13.3299V12.3492C73.9511 12.3492 74.0673 12.4982 74.0673 13.6072H74.4349V10.4299H74.0673C74.0673 11.5387 73.9511 11.6879 72.4415 11.6879V9.29992H73.5057C74.88 9.29992 75.0926 9.55579 75.2668 10.2595L75.3638 10.6644H75.6733L75.538 8.66016H69.8483V9.06506C70.9319 9.06506 71.1062 9.32093 71.1062 10.835V13.5644C71.1062 14.9494 70.9583 15.2982 70.1038 15.348C69.2918 15.2113 68.7343 14.7233 67.9715 13.7989L67.0812 12.7329C68.2811 12.498 68.9198 11.6667 68.9198 10.7283C68.9198 9.55579 68.0103 8.66016 66.3073 8.66016H62.9014V9.06506C63.9849 9.06506 64.1591 9.32093 64.1591 10.835V13.5644C64.1591 15.0783 63.9851 15.3555 62.9014 15.3555V15.7606H66.7525V15.3555C65.669 15.3555 65.4946 15.0783 65.4946 13.5644V12.797H65.8236L67.9716 15.7606H75.9252L76.0414 13.7566L75.7508 13.7564ZM65.4944 12.1355V9.29992H66.2877C67.1586 9.29992 67.5458 9.96087 67.5458 10.7285C67.5458 11.4749 67.1586 12.1357 66.2877 12.1357L65.4944 12.1355Z" fill="#464342"/>
<path d="M79.6788 16.0377C78.9047 16.0377 78.2273 15.5901 77.937 15.3127C77.8402 15.4195 77.6662 15.7393 77.6276 16.0377H77.2598V13.0955H77.6468C77.8018 14.5027 78.6917 15.3342 79.8336 15.3342C80.4529 15.3342 80.9561 14.9505 80.9561 14.3109C80.9561 13.7566 80.511 13.33 79.7176 12.9249L78.6145 12.3493C77.8402 11.9438 77.2598 11.2401 77.2598 10.3021C77.2598 9.27863 78.1306 8.40454 79.3305 8.40454C79.9692 8.40454 80.5109 8.66041 80.8401 8.95884C80.9367 8.87354 81.0335 8.63886 81.0917 8.38281H81.4593V10.8991H81.0529C80.9173 9.89685 80.4142 9.06531 79.3887 9.06531C78.8469 9.06531 78.3435 9.40647 78.3435 9.93976C78.3435 10.4941 78.7499 10.7925 79.679 11.2617L80.7431 11.8373C81.6722 12.3277 82.0396 13.117 82.0396 13.7566C82.0396 15.0997 80.9753 16.0377 79.6788 16.0377Z" fill="#464342"/>
<path d="M85.6389 16.0377C84.8647 16.0377 84.1872 15.5901 83.8972 15.3127C83.8004 15.4195 83.6263 15.7393 83.5877 16.0377H83.2199V13.0955H83.6069C83.7617 14.5027 84.6518 15.3342 85.7937 15.3342C86.413 15.3342 86.9162 14.9505 86.9162 14.3109C86.9162 13.7566 86.4712 13.33 85.6775 12.9249L84.5744 12.3493C83.8004 11.9438 83.2197 11.2401 83.2197 10.3021C83.2197 9.27863 84.0906 8.40454 85.2905 8.40454C85.9291 8.40454 86.4708 8.66041 86.8 8.95884C86.8967 8.87354 86.9935 8.63886 87.0513 8.38281H87.4191V10.8991H87.0129C86.8773 9.89685 86.3742 9.06531 85.3487 9.06531C84.8068 9.06531 84.3034 9.40647 84.3034 9.93976C84.3034 10.4941 84.7099 10.7925 85.6389 11.2617L86.7031 11.8373C87.6321 12.3277 87.9996 13.117 87.9996 13.7566C87.9996 15.0997 86.9353 16.0377 85.6389 16.0377Z" fill="#464342"/>
<path d="M1.41895 11.0005C1.41895 14.7357 3.389 17.9636 6.24575 19.4933L2.16043 7.16016C1.68523 8.33375 1.41895 9.63249 1.41895 11.0005Z" fill="#464342"/>
<path d="M15.7654 10.5244C15.7654 9.35817 15.3852 8.55052 15.0591 7.92189C14.625 7.14458 14.2181 6.48632 14.2181 5.70901C14.2181 4.84157 14.8152 4.0341 15.6562 4.0341C15.6942 4.0341 15.7302 4.0393 15.7672 4.04164C14.2435 2.50354 12.2135 1.56445 9.98383 1.56445C6.99183 1.56445 4.35949 3.25589 2.82812 5.81783C3.02906 5.82447 3.21842 5.82914 3.37927 5.82914C4.27507 5.82914 5.66173 5.70937 5.66173 5.70937C6.1234 5.67939 6.17783 6.42653 5.71664 6.48668C5.71664 6.48668 5.25269 6.54683 4.73642 6.57664L7.85521 16.798L9.72944 10.6045L8.3951 6.57628C7.93392 6.54647 7.49701 6.48632 7.49701 6.48632C7.0355 6.45651 7.08961 5.67903 7.55112 5.70901C7.55112 5.70901 8.96547 5.82878 9.80701 5.82878C10.7027 5.82878 12.0895 5.70901 12.0895 5.70901C12.5515 5.67903 12.6057 6.42617 12.1444 6.48632C12.1444 6.48632 11.6795 6.54647 11.1642 6.57628L14.2592 16.7202L15.1134 13.5749C15.4837 12.2697 15.7654 11.3322 15.7654 10.5244Z" fill="#464342"/>
<path d="M10.1341 11.8242L7.56445 20.0514C8.33168 20.2999 9.14308 20.4358 9.9838 20.4358C10.9811 20.4358 11.9376 20.2459 12.8278 19.9009C12.8049 19.8605 12.784 19.8176 12.7669 19.7709L10.1341 11.8242Z" fill="#464342"/>
<path d="M17.4986 6.47266C17.5354 6.77324 17.5563 7.0959 17.5563 7.44299C17.5563 8.40057 17.394 9.47702 16.9051 10.823L14.2891 19.1568C16.8352 17.5209 18.5478 14.4815 18.5478 11.0002C18.5479 9.35959 18.1676 7.81683 17.4986 6.47266Z" fill="#464342"/>
<path d="M9.98344 0C4.47871 0 0 4.93444 0 10.9997C0 17.0657 4.47871 22 9.98344 22C15.488 22 19.9674 17.0657 19.9674 10.9997C19.9672 4.93444 15.488 0 9.98344 0ZM9.98344 21.4958C4.73114 21.4958 0.457763 16.7872 0.457763 10.9997C0.457763 5.21257 4.73098 0.504379 9.98344 0.504379C15.2356 0.504379 19.5086 5.21257 19.5086 10.9997C19.5086 16.7872 15.2356 21.4958 9.98344 21.4958Z" fill="#464342"/>
</svg>
