<svg width="83" height="53" viewBox="0 0 83 53" fill="none" xmlns="http://www.w3.org/2000/svg">
<path d="M0 2H74.0489C77.7762 2 80.7979 5.02163 80.7979 8.749V8.749C80.7979 12.4764 77.7762 15.498 74.0489 15.498H23.3507C19.5993 15.498 16.5582 18.5391 16.5582 22.2905V22.2905C16.5582 26.042 19.5993 29.0831 23.3507 29.0831H38.6738C44.1566 29.0831 48.6014 33.5278 48.6014 39.0106V39.0106" stroke="#1055DB" stroke-width="3"/>
<path d="M47.418 52.0607C48.0038 52.6465 48.9536 52.6465 49.5394 52.0607L59.0853 42.5147C59.6711 41.929 59.6711 40.9792 59.0853 40.3934C58.4995 39.8076 57.5498 39.8076 56.964 40.3934L48.4787 48.8787L39.9934 40.3934C39.4076 39.8076 38.4579 39.8076 37.8721 40.3934C37.2863 40.9792 37.2863 41.9289 37.8721 42.5147L47.418 52.0607ZM46.9787 38.4894L46.9787 51L49.9787 51L49.9787 38.4894L46.9787 38.4894Z" fill="#1055DB"/>
</svg>
