<svg width="395" height="304" viewBox="0 0 395 304" fill="none" xmlns="http://www.w3.org/2000/svg">
<path d="M394.715 0H0V303.416H394.715V0Z" fill="#1055DB"/>
<path opacity="0.3" d="M394.715 13.8965H0V303.401H394.715V13.8965Z" fill="white"/>
<path d="M275.905 59.123H59.3457V251.68H275.905V59.123Z" fill="white"/>
<path d="M232.076 202.055L223.516 240.965L221.955 240.236L230.947 201.832L232.076 202.055Z" fill="#1055DB"/>
<path opacity="0.6" d="M232.076 202.055L223.516 240.965L221.955 240.236L230.947 201.832L232.076 202.055Z" fill="white"/>
<path d="M241.82 121.603C251.467 111.957 251.467 96.3167 241.82 86.6703C232.174 77.0238 216.534 77.0238 206.887 86.6703C197.241 96.3167 197.241 111.957 206.887 121.603C216.534 131.25 232.174 131.25 241.82 121.603Z" fill="#1055DB"/>
<path opacity="0.9" d="M241.82 121.603C251.467 111.957 251.467 96.3167 241.82 86.6703C232.174 77.0238 216.534 77.0238 206.887 86.6703C197.241 96.3167 197.241 111.957 206.887 121.603C216.534 131.25 232.174 131.25 241.82 121.603Z" fill="white"/>
<path d="M172.819 95.3117C172.819 94.2435 173.244 93.219 173.999 92.4637C174.754 91.7083 175.779 91.284 176.847 91.284C177.239 91.2851 177.629 91.3401 178.006 91.4475C177.829 90.2377 177.915 89.004 178.257 87.8302C178.599 86.6564 179.19 85.57 179.99 84.645C180.789 83.72 181.778 82.978 182.89 82.4694C184.002 81.9608 185.211 81.6976 186.433 81.6977C186.962 81.6949 187.49 81.7446 188.009 81.8464C188.829 80.4264 190.095 79.3174 191.611 78.6922C193.127 78.0671 194.807 77.9608 196.389 78.3899C197.972 78.819 199.368 79.7595 200.36 81.0648C201.352 82.3701 201.885 83.9669 201.875 85.6065V85.6065C202.803 85.5633 203.73 85.7088 204.599 86.034C205.469 86.3592 206.264 86.8574 206.936 87.4986C207.607 88.1398 208.142 88.9105 208.507 89.7643C208.873 90.618 209.061 91.5369 209.061 92.4655C209.061 93.3941 208.873 94.3131 208.507 95.1668C208.142 96.0205 207.607 96.7913 206.936 97.4325C206.264 98.0736 205.469 98.5719 204.599 98.8971C203.73 99.2223 202.803 99.3677 201.875 99.3245H176.609C175.584 99.2675 174.62 98.8197 173.915 98.0732C173.21 97.3267 172.818 96.3384 172.819 95.3117V95.3117Z" fill="#1055DB"/>
<path d="M225.521 126.226C225.521 125.158 225.946 124.134 226.701 123.378C227.457 122.623 228.481 122.199 229.549 122.199C229.941 122.2 230.331 122.255 230.708 122.362C230.531 121.152 230.617 119.919 230.959 118.745C231.301 117.571 231.892 116.485 232.692 115.56C233.491 114.635 234.481 113.893 235.593 113.384C236.704 112.875 237.913 112.612 239.135 112.612C239.664 112.61 240.192 112.659 240.711 112.761C241.543 111.37 242.808 110.29 244.312 109.684C245.815 109.079 247.476 108.982 249.04 109.408C250.604 109.834 251.986 110.759 252.975 112.044C253.964 113.328 254.506 114.9 254.518 116.521H254.637C255.564 116.478 256.491 116.623 257.361 116.949C258.231 117.274 259.026 117.772 259.697 118.413C260.369 119.054 260.904 119.825 261.269 120.679C261.634 121.533 261.823 122.452 261.823 123.38C261.823 124.309 261.634 125.228 261.269 126.081C260.904 126.935 260.369 127.706 259.697 128.347C259.026 128.988 258.231 129.487 257.361 129.812C256.491 130.137 255.564 130.282 254.637 130.239H229.371C228.335 130.197 227.356 129.756 226.638 129.008C225.921 128.26 225.521 127.263 225.521 126.226Z" fill="#1055DB"/>
<path d="M246.834 208.802C246.834 208.802 243.148 202.174 233.146 196.422C227.193 196.209 221.27 197.342 215.816 199.736C215.816 199.736 213.958 202.842 216.069 204.061C218.179 205.28 219.948 202.828 219.948 202.828C219.948 202.828 220.334 206.558 223.099 206.677C223.898 206.684 224.678 206.433 225.323 205.962C225.968 205.491 226.444 204.824 226.681 204.061C226.778 205.052 227.17 205.99 227.805 206.756C228.441 207.521 229.292 208.079 230.248 208.356C231.1 208.55 231.99 208.495 232.813 208.197C233.635 207.899 234.354 207.372 234.885 206.677C235.067 207.493 235.449 208.252 235.997 208.884C236.544 209.517 237.239 210.005 238.021 210.303C238.646 210.471 239.307 210.455 239.923 210.257C240.54 210.06 241.087 209.689 241.498 209.189C241.498 209.189 242.093 212.161 244.278 212.161C246.15 212.235 246.834 208.802 246.834 208.802Z" fill="#1055DB"/>
<path d="M87.1535 242.986C87.1535 242.986 84.0324 194.519 68.0107 131.399L71.2656 128.932C71.2656 128.932 85.3106 151.745 99.415 240.117L87.1535 242.986Z" fill="#1055DB"/>
<g opacity="0.5">
<path d="M87.1535 242.986C87.1535 242.986 84.0324 194.519 68.0107 131.399L71.2656 128.932C71.2656 128.932 85.3106 151.745 99.415 240.117L87.1535 242.986Z" fill="white"/>
</g>
<path d="M104.378 234.736C104.378 234.736 99.4144 165.478 126.88 96.1893L123.566 93.2168C123.566 93.2168 93.4991 144.938 90.7793 235.673L104.378 234.736Z" fill="#1055DB"/>
<g opacity="0.6">
<path d="M104.378 234.736C104.378 234.736 99.4144 165.478 126.88 96.1893L123.566 93.2168C123.566 93.2168 93.4991 144.938 90.7793 235.673L104.378 234.736Z" fill="white"/>
</g>
<path d="M59.3454 138.695V140.315L59.7169 139.661L59.3454 138.695ZM100.871 140.776C99.3846 127.4 93.7815 122.436 85.0721 121.618C83.1449 121.446 81.2048 121.752 79.4244 122.51L80.4797 121.886L78.5178 116.431L81.1782 121.514C82.1368 121.042 83.1306 120.644 84.1507 120.325L82.0997 112.359L86.1274 119.79C87.1525 119.564 88.1896 119.395 89.2336 119.285L88.5797 116.699L89.9916 119.226C90.7644 119.226 91.4778 119.226 92.1615 119.226L90.0659 114.38C90.2294 114.633 91.5521 116.803 92.9343 119.24C94.1568 119.278 95.3744 119.412 96.5756 119.642C91.3143 109.03 78.7408 105.463 73.4943 112.3C70.3287 116.431 70.5219 122.54 71.0123 126.196L70.9083 126.285C70.9083 126.077 70.7597 125.869 70.6705 125.646C70.403 120.742 69.1843 105.433 64.7255 103.724C62.3327 102.803 60.5492 104.438 59.3008 106.503V111.765L59.9993 108.792L59.5683 112.092C60.2062 112.227 60.8216 112.452 61.3964 112.76L62.4516 108.406L61.9909 113.102L62.6894 113.593L63.923 109.476L63.0907 113.935C64.3015 114.99 65.3572 116.211 66.2266 117.561V111.616L67.4751 119.567L68.0696 120.697C66.9699 119.093 65.5284 117.753 63.8487 116.773C62.4611 115.999 60.8886 115.619 59.3008 115.674V137.179L60.356 138.562C60.7276 138.012 61.0991 137.477 61.4855 136.956L60.6087 134.445L61.8422 136.511C62.1098 136.169 62.3921 135.842 62.6745 135.515L61.5747 132.171L63.1353 135.024C63.9175 134.195 64.7956 133.462 65.7511 132.84L64.1013 128.782L66.4347 132.29C63.7 135.158 61.4856 140.182 66.3604 148.044C66.3604 148.044 66.4347 145.785 66.7617 142.797L65.6173 141.385L66.8509 141.98C66.9549 141.058 67.0887 140.092 67.2373 139.097L66.3307 137.685L67.3859 138.235L67.5643 137.254L66.3307 134.445L67.9507 135.485C68.0696 135.024 68.1885 134.578 68.3222 134.133L68.783 136.615L69.0505 135.738L70.0463 132.617L72.35 135.515L72.9742 132.617H73.0931L75.5156 134.37C75.2596 132.557 74.8214 130.775 74.2078 129.05H74.4604C75.009 129.441 75.535 129.862 76.0358 130.313L76.7344 129.243V131.086C77.1604 131.522 77.5765 131.968 77.9828 132.423L79.0826 129.347L78.8151 133.434C79.3947 134.162 79.9446 134.92 80.4499 135.678L80.8215 132.706L81.0593 136.629C81.5944 137.491 82.0997 138.324 82.5455 139.111L82.7833 133.642L83.363 140.657C84.4331 142.753 85.0276 144.239 85.0276 144.239C85.0276 144.239 85.9342 135.322 82.2334 129.629C82.9933 129.81 83.7426 130.034 84.4776 130.298C85.491 130.647 86.4835 131.054 87.4501 131.517L88.5351 127.965L88.1932 131.888C89.1296 132.349 90.0511 132.869 90.9279 133.375L91.3738 130.283L91.567 133.761C92.652 134.43 93.6775 135.128 94.6287 135.797L94.1531 130.283L95.3866 136.362C96.3676 137.075 97.2444 137.759 98.0024 138.383L97.8241 134.534L99.1468 139.334C100.247 140.182 100.811 140.776 100.811 140.776H100.871ZM60.7424 126.285L61.0248 122.57L61.2775 126.137L60.7424 126.285ZM64.2797 126.464L64.5621 120.251C64.5621 120.251 64.7701 123.402 65.0376 126.731L64.2797 126.464ZM77.1802 123.655C77.1802 123.417 77.0167 123.179 76.9424 122.926L76.4965 121.663C76.0061 120.177 75.5156 118.809 75.1292 117.725L74.9509 117.219C74.9103 117.073 74.8607 116.929 74.8022 116.788C74.8022 116.64 74.7131 116.521 74.6685 116.402L74.4307 115.733L78.0422 123.164C77.745 123.328 77.4626 123.506 77.1802 123.655ZM79.3204 126.404C79.1978 126.302 79.0688 126.207 78.934 126.122L79.5582 124.74L79.3204 126.404ZM81.7727 128.782C81.4286 128.328 81.051 127.901 80.6431 127.504L82.1294 125.394L81.7727 128.782Z" fill="#1055DB"/>
<path d="M134.311 78.0276C132.399 79.1383 130.759 80.6615 129.511 82.4863C129.734 82.0553 129.942 81.6095 130.165 81.2082L131.651 72.1421V78.8599C132.65 77.3298 133.855 75.9445 135.233 74.743L134.281 69.7047L135.693 74.3863C135.961 74.1783 136.228 73.9999 136.481 73.8364L135.961 68.4711L137.15 73.45C137.801 73.0897 138.502 72.8292 139.231 72.6772L138.755 68.917L139.617 72.6028C139.956 72.5516 140.299 72.5268 140.643 72.5285L139.914 69.7047L141.267 72.5731C141.536 72.6073 141.8 72.6721 142.054 72.7663C142.054 72.7663 139.409 60.8764 133.36 63.1504C128.292 65.0973 126.91 82.4715 126.583 88.1192L126.315 88.8474L126.196 88.7434C126.761 84.5819 126.984 77.6263 123.372 72.915C117.427 65.1122 103.085 69.1845 97.0809 81.2676C98.4537 81.0065 99.8454 80.8574 101.242 80.8217C102.848 78.0425 104.319 75.5753 104.497 75.2781L102.104 80.8069C102.877 80.8069 103.71 80.8069 104.586 80.8961L106.192 78.0128L105.448 80.9852C106.637 81.1142 107.818 81.3077 108.986 81.5649L113.578 73.1082L111.245 82.1742C112.403 82.5554 113.535 83.0121 114.633 83.5416L117.606 77.7452L115.436 83.9726L116.64 84.6711C114.615 83.8115 112.41 83.4643 110.219 83.6605C100.276 84.5819 93.8706 90.2296 92.2061 105.493C92.2061 105.493 92.9194 104.81 94.1679 103.74L95.6541 98.2702L95.446 102.655C96.3081 101.956 97.3038 101.168 98.4185 100.351L99.9048 93.4251L99.3549 99.7118C100.44 98.939 101.614 98.1513 102.848 97.3933L103.056 93.4251L103.561 96.9623C104.572 96.3529 105.612 95.7733 106.682 95.2383L106.296 90.7796L107.529 94.837C108.62 94.3157 109.736 93.8494 110.873 93.4399C111.765 93.1278 112.612 92.89 113.43 92.6819C109.223 99.2362 110.264 109.328 110.264 109.328C110.264 109.328 110.918 107.633 112.151 105.241L112.82 97.2447L113.088 103.487C113.578 102.58 114.143 101.629 114.752 100.663L115.035 96.2043L115.436 99.6227C116.03 98.7606 116.655 97.8986 117.309 97.0663L117.011 92.4144L118.26 95.9219C118.721 95.3869 119.196 94.8667 119.746 94.4357V92.4739L120.549 93.6777C121.109 93.149 121.7 92.6528 122.317 92.1915H122.629C121.935 94.1179 121.437 96.1097 121.143 98.1364V98.1364C121.139 98.1859 121.139 98.2356 121.143 98.285L124.116 96.1895L124.814 99.4889L126.746 97.0663L127.43 96.2043L128.916 100.782L129.436 97.9581C129.585 98.4485 129.719 98.9687 129.852 99.4443L131.71 98.2553L130.298 101.466C130.298 101.837 130.432 102.209 130.506 102.58L131.71 101.956L130.67 103.561C130.848 104.691 130.997 105.791 131.116 106.846L132.513 106.162L131.22 107.782C131.576 111.171 131.666 113.727 131.666 113.727C137.209 104.81 134.638 99.043 131.577 95.7882L134.222 91.8348L132.364 96.4124C133.445 97.1254 134.442 97.958 135.337 98.8944L137.105 95.6544L135.872 99.474C136.199 99.8307 136.511 100.202 136.823 100.589L138.22 98.2405L137.209 101.109C137.67 101.689 138.086 102.313 138.502 102.937L141.014 99.6672L139.29 104.126C140.626 106.424 141.788 108.819 142.768 111.29L144.626 106.147L143.333 112.761C143.957 114.426 144.447 115.927 144.819 117.086L146.052 112.627L145.146 118.23C145.384 119.092 145.503 119.598 145.503 119.598C149.961 105.181 146.469 95.6247 141.98 91.3592L143.466 82.0999L144.314 91.6862C145.489 91.9099 146.65 92.2027 147.791 92.563L148.282 89.5906L148.609 92.89C149.456 93.1724 150.214 93.4845 150.927 93.7966V87.7328C150.927 87.7328 151.314 90.7052 151.715 94.1533C152.979 94.7407 154.192 95.4317 155.341 96.2192C154.405 82.6647 142.887 73.2419 134.311 78.0276ZM113.935 91.8199L113.563 87.9706L115.213 90.3783C114.752 90.8266 114.325 91.3085 113.935 91.8199ZM116.729 89.1149L116.461 87.2126L117.16 88.788L116.729 89.1149ZM119.166 85.979C118.854 85.7858 118.527 85.5777 118.185 85.3994L122.317 76.9129C122.317 76.9129 120.608 81.7135 119.166 85.979ZM133.078 89.4568C133.375 85.652 133.613 82.0256 133.613 82.0256L133.925 89.1001L133.078 89.4568ZM137.343 88.788L137.655 84.7157L137.952 88.9366C137.753 88.8731 137.549 88.8234 137.343 88.788V88.788Z" fill="#1055DB"/>
<g opacity="0.7">
<path d="M78.0424 123.166L74.416 115.734C74.416 115.734 75.9023 119.97 77.1804 123.715C77.4628 123.507 77.7452 123.329 78.0424 123.166Z" fill="white"/>
<path d="M64.5031 120.252L64.2207 126.45L64.9787 126.732C64.7112 123.388 64.5031 120.252 64.5031 120.252Z" fill="white"/>
<path d="M80.6436 127.534C81.055 127.928 81.4329 128.356 81.7731 128.812L82.1001 125.424L80.6436 127.534Z" fill="white"/>
<path d="M79.32 126.42L79.5578 124.756L78.9336 126.138L79.32 126.42Z" fill="white"/>
<path d="M122.332 76.8984L118.2 85.3849C118.527 85.5781 118.854 85.7713 119.166 85.9794C120.608 81.7139 122.332 76.8984 122.332 76.8984Z" fill="white"/>
<path d="M60.965 122.555L60.6826 126.27L61.2177 126.137L60.965 122.555Z" fill="white"/>
<path d="M133.078 89.4725C133.355 89.3531 133.637 89.2489 133.925 89.1604L133.613 82.0859C133.613 82.0859 133.375 85.6529 133.078 89.4725Z" fill="white"/>
<path d="M137.343 88.7735L137.952 88.937L137.655 84.7012L137.343 88.7735Z" fill="white"/>
<path d="M117.16 88.7883L116.462 87.2129L116.729 89.1004L117.16 88.7883Z" fill="white"/>
<path d="M113.563 87.9863L113.935 91.8357C114.324 91.3092 114.751 90.8124 115.213 90.3494L113.563 87.9863Z" fill="white"/>
<path d="M59.3454 138.695V140.315L59.7169 139.661L59.3454 138.695ZM100.871 140.776C99.3846 127.4 93.7815 122.436 85.0721 121.618C83.1449 121.446 81.2048 121.752 79.4244 122.51L80.4797 121.886L78.5178 116.431L81.1782 121.514C82.1368 121.042 83.1306 120.644 84.1507 120.325L82.0997 112.359L86.1274 119.79C87.1525 119.564 88.1896 119.395 89.2336 119.285L88.5797 116.699L89.9916 119.226C90.7644 119.226 91.4778 119.226 92.1615 119.226L90.0659 114.38C90.2294 114.633 91.5521 116.803 92.9343 119.24C94.1568 119.278 95.3744 119.412 96.5756 119.642C91.3143 109.03 78.7408 105.463 73.4943 112.3C70.3287 116.431 70.5219 122.54 71.0123 126.196L70.9083 126.285C70.9083 126.077 70.7597 125.869 70.6705 125.646C70.403 120.742 69.1843 105.433 64.7255 103.724C62.3327 102.803 60.5492 104.438 59.3008 106.503V111.765L59.9993 108.792L59.5683 112.092C60.2062 112.227 60.8216 112.452 61.3964 112.76L62.4516 108.406L61.9909 113.102L62.6894 113.593L63.923 109.476L63.0907 113.935C64.3015 114.99 65.3572 116.211 66.2266 117.561V111.616L67.4751 119.567L68.0696 120.697C66.9699 119.093 65.5284 117.753 63.8487 116.773C62.4611 115.999 60.8886 115.619 59.3008 115.674V137.179L60.356 138.562C60.7276 138.012 61.0991 137.477 61.4855 136.956L60.6087 134.445L61.8422 136.511C62.1098 136.169 62.3921 135.842 62.6745 135.515L61.5747 132.171L63.1353 135.024C63.9175 134.195 64.7956 133.462 65.7511 132.84L64.1013 128.782L66.4347 132.29C63.7 135.158 61.4856 140.182 66.3604 148.044C66.3604 148.044 66.4347 145.785 66.7617 142.797L65.6173 141.385L66.8509 141.98C66.9549 141.058 67.0887 140.092 67.2373 139.097L66.3307 137.685L67.3859 138.235L67.5643 137.254L66.3307 134.445L67.9507 135.485C68.0696 135.024 68.1885 134.578 68.3222 134.133L68.783 136.615L69.0505 135.738L70.0463 132.617L72.35 135.515L72.9742 132.617H73.0931L75.5156 134.37C75.2596 132.557 74.8214 130.775 74.2078 129.05H74.4604C75.009 129.441 75.535 129.862 76.0358 130.313L76.7344 129.243V131.086C77.1604 131.522 77.5765 131.968 77.9828 132.423L79.0826 129.347L78.8151 133.434C79.3947 134.162 79.9446 134.92 80.4499 135.678L80.8215 132.706L81.0593 136.629C81.5944 137.491 82.0997 138.324 82.5455 139.111L82.7833 133.642L83.363 140.657C84.4331 142.753 85.0276 144.239 85.0276 144.239C85.0276 144.239 85.9342 135.322 82.2334 129.629C82.9933 129.81 83.7426 130.034 84.4776 130.298C85.491 130.647 86.4835 131.054 87.4501 131.517L88.5351 127.965L88.1932 131.888C89.1296 132.349 90.0511 132.869 90.9279 133.375L91.3738 130.283L91.567 133.761C92.652 134.43 93.6775 135.128 94.6287 135.797L94.1531 130.283L95.3866 136.362C96.3676 137.075 97.2444 137.759 98.0024 138.383L97.8241 134.534L99.1468 139.334C100.247 140.182 100.811 140.776 100.811 140.776H100.871ZM60.7424 126.285L61.0248 122.57L61.2775 126.137L60.7424 126.285ZM64.2797 126.464L64.5621 120.251C64.5621 120.251 64.7701 123.402 65.0376 126.731L64.2797 126.464ZM77.1802 123.655C77.1802 123.417 77.0167 123.179 76.9424 122.926L76.4965 121.663C76.0061 120.177 75.5156 118.809 75.1292 117.725L74.9509 117.219C74.9103 117.073 74.8607 116.929 74.8022 116.788C74.8022 116.64 74.7131 116.521 74.6685 116.402L74.4307 115.733L78.0422 123.164C77.745 123.328 77.4626 123.506 77.1802 123.655ZM79.3204 126.404C79.1978 126.302 79.0688 126.207 78.934 126.122L79.5582 124.74L79.3204 126.404ZM81.7727 128.782C81.4286 128.328 81.051 127.901 80.6431 127.504L82.1294 125.394L81.7727 128.782Z" fill="white"/>
<path d="M134.311 78.0276C132.399 79.1383 130.759 80.6615 129.511 82.4863C129.734 82.0553 129.942 81.6095 130.165 81.2082L131.651 72.1421V78.8599C132.65 77.3298 133.855 75.9445 135.233 74.743L134.281 69.7047L135.693 74.3863C135.961 74.1783 136.228 73.9999 136.481 73.8364L135.961 68.4711L137.15 73.45C137.801 73.0897 138.502 72.8292 139.231 72.6772L138.755 68.917L139.617 72.6028C139.956 72.5516 140.299 72.5268 140.643 72.5285L139.914 69.7047L141.267 72.5731C141.536 72.6073 141.8 72.6721 142.054 72.7663C142.054 72.7663 139.409 60.8764 133.36 63.1504C128.292 65.0973 126.91 82.4715 126.583 88.1192L126.315 88.8474L126.196 88.7434C126.761 84.5819 126.984 77.6263 123.372 72.915C117.427 65.1122 103.085 69.1845 97.0809 81.2676C98.4537 81.0065 99.8454 80.8574 101.242 80.8217C102.848 78.0425 104.319 75.5753 104.497 75.2781L102.104 80.8069C102.877 80.8069 103.71 80.8069 104.586 80.8961L106.192 78.0128L105.448 80.9852C106.637 81.1142 107.818 81.3077 108.986 81.5649L113.578 73.1082L111.245 82.1742C112.403 82.5554 113.535 83.0121 114.633 83.5416L117.606 77.7452L115.436 83.9726L116.64 84.6711C114.615 83.8115 112.41 83.4643 110.219 83.6605C100.276 84.5819 93.8706 90.2296 92.2061 105.493C92.2061 105.493 92.9194 104.81 94.1679 103.74L95.6541 98.2702L95.446 102.655C96.3081 101.956 97.3038 101.168 98.4185 100.351L99.9048 93.4251L99.3549 99.7118C100.44 98.939 101.614 98.1513 102.848 97.3933L103.056 93.4251L103.561 96.9623C104.572 96.3529 105.612 95.7733 106.682 95.2383L106.296 90.7796L107.529 94.837C108.62 94.3157 109.736 93.8494 110.873 93.4399C111.765 93.1278 112.612 92.89 113.43 92.6819C109.223 99.2362 110.264 109.328 110.264 109.328C110.264 109.328 110.918 107.633 112.151 105.241L112.82 97.2447L113.088 103.487C113.578 102.58 114.143 101.629 114.752 100.663L115.035 96.2043L115.436 99.6227C116.03 98.7606 116.655 97.8986 117.309 97.0663L117.011 92.4144L118.26 95.9219C118.721 95.3869 119.196 94.8667 119.746 94.4357V92.4739L120.549 93.6777C121.109 93.149 121.7 92.6528 122.317 92.1915H122.629C121.935 94.1179 121.437 96.1097 121.143 98.1364V98.1364C121.139 98.1859 121.139 98.2356 121.143 98.285L124.116 96.1895L124.814 99.4889L126.746 97.0663L127.43 96.2043L128.916 100.782L129.436 97.9581C129.585 98.4485 129.719 98.9687 129.852 99.4443L131.71 98.2553L130.298 101.466C130.298 101.837 130.432 102.209 130.506 102.58L131.71 101.956L130.67 103.561C130.848 104.691 130.997 105.791 131.116 106.846L132.513 106.162L131.22 107.782C131.576 111.171 131.666 113.727 131.666 113.727C137.209 104.81 134.638 99.043 131.577 95.7882L134.222 91.8348L132.364 96.4124C133.445 97.1254 134.442 97.958 135.337 98.8944L137.105 95.6544L135.872 99.474C136.199 99.8307 136.511 100.202 136.823 100.589L138.22 98.2405L137.209 101.109C137.67 101.689 138.086 102.313 138.502 102.937L141.014 99.6672L139.29 104.126C140.626 106.424 141.788 108.819 142.768 111.29L144.626 106.147L143.333 112.761C143.957 114.426 144.447 115.927 144.819 117.086L146.052 112.627L145.146 118.23C145.384 119.092 145.503 119.598 145.503 119.598C149.961 105.181 146.469 95.6247 141.98 91.3592L143.466 82.0999L144.314 91.6862C145.489 91.9099 146.65 92.2027 147.791 92.563L148.282 89.5906L148.609 92.89C149.456 93.1724 150.214 93.4845 150.927 93.7966V87.7328C150.927 87.7328 151.314 90.7052 151.715 94.1533C152.979 94.7407 154.192 95.4317 155.341 96.2192C154.405 82.6647 142.887 73.2419 134.311 78.0276ZM113.935 91.8199L113.563 87.9706L115.213 90.3783C114.752 90.8266 114.325 91.3085 113.935 91.8199ZM116.729 89.1149L116.461 87.2126L117.16 88.788L116.729 89.1149ZM119.166 85.979C118.854 85.7858 118.527 85.5777 118.185 85.3994L122.317 76.9129C122.317 76.9129 120.608 81.7135 119.166 85.979ZM133.078 89.4568C133.375 85.652 133.613 82.0256 133.613 82.0256L133.925 89.1001L133.078 89.4568ZM137.343 88.788L137.655 84.7157L137.952 88.9366C137.753 88.8731 137.549 88.8234 137.343 88.788V88.788Z" fill="white"/>
</g>
<path d="M275.906 232.151V251.695H63.9531L65.6474 248.722C68.2614 248.562 70.8167 247.88 73.1626 246.716C75.5085 245.552 77.5974 243.93 79.306 241.945C80.703 240.355 82.0406 238.735 83.512 237.204C83.5912 237.129 83.6611 237.044 83.7201 236.951C84.1976 236.643 84.694 236.365 85.2063 236.119L85.9346 235.852L86.4994 235.629L87.6884 235.168C88.7733 234.737 89.8137 234.276 90.8243 233.786C93.3152 232.606 95.5752 230.99 97.4975 229.015V229.015C98.9838 227.425 100.202 225.582 101.778 224.036C101.778 224.036 102.135 223.932 102.268 223.813L103.472 223.65H103.963H105.449C106.355 223.65 107.262 223.769 108.169 223.843C111.721 229.03 116.194 236.119 118.186 237.056C121.233 238.542 149.471 245.973 151.537 245.512C153.603 245.051 164.527 245.958 167.262 245.854C169.996 245.75 174.945 244.531 182.124 241.232C189.302 237.932 193.226 237.918 201.861 235.168C210.496 232.418 216.293 231.363 221.346 235.599C221.781 235.97 222.286 236.248 222.832 236.416C223.353 236.581 223.892 236.681 224.437 236.714C230.664 237.115 240.979 230.694 244.591 229.624C248.93 228.346 257.209 221.019 262.856 224.437C267.271 227.083 271.09 228.658 275.906 232.151Z" fill="#1055DB"/>
<path opacity="0.7" d="M275.906 232.151V251.695H63.9531L65.6474 248.722C68.2614 248.562 70.8167 247.88 73.1626 246.716C75.5085 245.552 77.5974 243.93 79.306 241.945C80.703 240.355 82.0406 238.735 83.512 237.204C83.5912 237.129 83.6611 237.044 83.7201 236.951C84.1976 236.643 84.694 236.365 85.2063 236.119L85.9346 235.852L86.4994 235.629L87.6884 235.168C88.7733 234.737 89.8137 234.276 90.8243 233.786C93.3152 232.606 95.5752 230.99 97.4975 229.015V229.015C98.9838 227.425 100.202 225.582 101.778 224.036C101.778 224.036 102.135 223.932 102.268 223.813L103.472 223.65H103.963H105.449C106.355 223.65 107.262 223.769 108.169 223.843C111.721 229.03 116.194 236.119 118.186 237.056C121.233 238.542 149.471 245.973 151.537 245.512C153.603 245.051 164.527 245.958 167.262 245.854C169.996 245.75 174.945 244.531 182.124 241.232C189.302 237.932 193.226 237.918 201.861 235.168C210.496 232.418 216.293 231.363 221.346 235.599C221.781 235.97 222.286 236.248 222.832 236.416C223.353 236.581 223.892 236.681 224.437 236.714C230.664 237.115 240.979 230.694 244.591 229.624C248.93 228.346 257.209 221.019 262.856 224.437C267.271 227.083 271.09 228.658 275.906 232.151Z" fill="white"/>
<path opacity="0.8" d="M172.819 95.3117C172.819 94.2435 173.244 93.219 173.999 92.4637C174.754 91.7083 175.779 91.284 176.847 91.284C177.239 91.2851 177.629 91.3401 178.006 91.4475C177.829 90.2377 177.915 89.004 178.257 87.8302C178.599 86.6564 179.19 85.57 179.99 84.645C180.789 83.72 181.778 82.978 182.89 82.4694C184.002 81.9608 185.211 81.6976 186.433 81.6977C186.962 81.6949 187.49 81.7446 188.009 81.8464C188.829 80.4264 190.095 79.3174 191.611 78.6922C193.127 78.0671 194.807 77.9608 196.389 78.3899C197.972 78.819 199.368 79.7595 200.36 81.0648C201.352 82.3701 201.885 83.9669 201.875 85.6065V85.6065C202.803 85.5633 203.73 85.7088 204.599 86.034C205.469 86.3592 206.264 86.8574 206.936 87.4986C207.607 88.1398 208.142 88.9105 208.507 89.7643C208.873 90.618 209.061 91.5369 209.061 92.4655C209.061 93.3941 208.873 94.3131 208.507 95.1668C208.142 96.0205 207.607 96.7913 206.936 97.4325C206.264 98.0736 205.469 98.5719 204.599 98.8971C203.73 99.2223 202.803 99.3677 201.875 99.3245H176.609C175.584 99.2675 174.62 98.8197 173.915 98.0732C173.21 97.3267 172.818 96.3384 172.819 95.3117V95.3117Z" fill="white"/>
<path opacity="0.8" d="M225.521 126.226C225.521 125.158 225.946 124.134 226.701 123.378C227.457 122.623 228.481 122.199 229.549 122.199C229.941 122.2 230.331 122.255 230.708 122.362C230.531 121.152 230.617 119.919 230.959 118.745C231.301 117.571 231.892 116.485 232.692 115.56C233.491 114.635 234.481 113.893 235.593 113.384C236.704 112.875 237.913 112.612 239.135 112.612C239.664 112.61 240.192 112.659 240.711 112.761C241.543 111.37 242.808 110.29 244.312 109.684C245.815 109.079 247.476 108.982 249.04 109.408C250.604 109.834 251.986 110.759 252.975 112.044C253.964 113.328 254.506 114.9 254.518 116.521H254.637C255.564 116.478 256.491 116.623 257.361 116.949C258.231 117.274 259.026 117.772 259.697 118.413C260.369 119.054 260.904 119.825 261.269 120.679C261.634 121.533 261.823 122.452 261.823 123.38C261.823 124.309 261.634 125.228 261.269 126.081C260.904 126.935 260.369 127.706 259.697 128.347C259.026 128.988 258.231 129.487 257.361 129.812C256.491 130.137 255.564 130.282 254.637 130.239H229.371C228.335 130.197 227.356 129.756 226.638 129.008C225.921 128.26 225.521 127.263 225.521 126.226Z" fill="white"/>
<path opacity="0.7" d="M246.834 208.802C246.834 208.802 243.148 202.174 233.146 196.422C227.193 196.209 221.27 197.342 215.816 199.736C215.816 199.736 213.958 202.842 216.069 204.061C218.179 205.28 219.948 202.828 219.948 202.828C219.948 202.828 220.334 206.558 223.099 206.677C223.898 206.684 224.678 206.433 225.323 205.962C225.968 205.491 226.444 204.824 226.681 204.061C226.778 205.052 227.17 205.99 227.805 206.756C228.441 207.521 229.292 208.079 230.248 208.356C231.1 208.55 231.99 208.495 232.813 208.197C233.635 207.899 234.354 207.372 234.885 206.677C235.067 207.493 235.449 208.252 235.997 208.884C236.544 209.517 237.239 210.005 238.021 210.303C238.646 210.471 239.307 210.455 239.923 210.257C240.54 210.06 241.087 209.689 241.498 209.189C241.498 209.189 242.093 212.161 244.278 212.161C246.15 212.235 246.834 208.802 246.834 208.802Z" fill="white"/>
<path d="M178.468 138.65C178.468 138.65 178.75 154.717 193.152 156.084" stroke="#263238" stroke-width="0.5" stroke-linecap="round" stroke-linejoin="round"/>
<path d="M198.16 174.693C194.688 176.452 191.073 177.914 187.355 179.063L186.448 171.929L185.75 166.37C185.75 166.37 199.126 165.672 201.831 159.043C204.536 152.414 194.073 146.663 187.058 143.735C183.788 142.353 181.291 141.58 181.291 141.58V133.123C181.291 133.123 183.104 133.777 185.854 134.921C193.671 138.161 209.069 145.325 212.116 152.608C215.37 160.396 210.154 168.57 198.16 174.693Z" fill="#EBB376"/>
<path opacity="0.2" d="M187.014 143.719C183.744 142.337 181.247 141.564 181.247 141.564V133.107C181.247 133.107 183.06 133.761 185.81 134.906C186.654 137.766 187.06 140.737 187.014 143.719V143.719Z" fill="black"/>
<path opacity="0.2" d="M198.16 174.692C194.688 176.451 191.073 177.913 187.355 179.061L186.448 171.927C189.346 171.883 194.444 172.225 198.16 174.692Z" fill="black"/>
<path d="M141.505 110.13C147.541 104.717 154.978 101.112 162.966 99.7263C176.788 97.0808 186.671 110.13 185.705 121.797C184.739 133.464 178.869 140.895 178.126 144.566C177.382 148.237 181.38 158.284 185.705 161.925C185.705 161.925 148.549 171.066 139.766 166.384C130.982 161.702 136.555 151.908 133.821 139.914C131.086 127.92 130.923 113.519 141.505 110.13Z" fill="#263238"/>
<path d="M198.769 251.679L194.459 243.029L148.623 240.057C147.568 244.159 146.662 247.993 145.889 251.634L198.769 251.679Z" fill="#263238"/>
<path d="M148.654 243.164L147.123 249.837L194.95 247.489L194.162 239.73L148.654 243.164Z" fill="black"/>
<path d="M164.23 251.68L163.962 240.801L161.718 240.86L161.97 251.68H164.23Z" fill="#263238"/>
<path d="M183.648 241.016L173.709 241.631L174.172 249.122L184.111 248.507L183.648 241.016Z" fill="white"/>
<path d="M191.764 238.55L189.506 238.604L189.775 250.015L192.033 249.961L191.764 238.55Z" fill="#263238"/>
<path d="M194.653 243.118L147.955 243.297C148.444 238.575 148.329 233.811 147.613 229.118C146.495 222.127 144.759 215.248 142.426 208.563C136.585 190.729 130.165 176.223 143.675 171.303C156.456 166.637 185.691 166.369 185.691 166.369C185.691 166.369 191.056 180.147 192.661 189.644C196.659 212.918 194.653 243.118 194.653 243.118Z" fill="#EBB376"/>
<path d="M168.198 163.649C168.144 166.494 168.524 169.331 169.327 172.061L151.894 169.728C154.569 166.963 154.599 160.81 154.034 155.757C153.766 153.305 153.365 151.075 153.038 149.53C152.77 148.222 152.562 147.404 152.562 147.404L159.399 148.891L170.576 151.224C169.017 155.182 168.21 159.395 168.198 163.649Z" fill="#EBB376"/>
<path opacity="0.2" d="M170.576 151.165C169.01 155.142 168.203 159.376 168.198 163.65C162.681 162.797 157.655 159.991 154.034 155.743C153.766 153.291 153.365 151.061 153.038 149.516C155.282 149.233 157.393 149.01 159.399 148.832L170.576 151.165Z" fill="black"/>
<path d="M159.889 110.279C173.756 108.793 179.047 115.645 181.663 129.824C184.947 147.539 182.406 160.663 164.645 158.79C140.524 156.353 136.867 112.925 159.889 110.279Z" fill="#EBB376"/>
<path d="M172.611 130.105C173.953 132.056 175.525 133.837 177.293 135.411C176.954 136.031 176.449 136.545 175.835 136.894C175.221 137.243 174.521 137.414 173.815 137.388L172.611 130.105Z" fill="#D58745"/>
<path d="M164.007 129.926C164.155 131.071 163.665 132.066 162.907 132.17C162.149 132.274 161.421 131.442 161.257 130.298C161.094 129.153 161.599 128.158 162.357 128.054C163.115 127.95 163.843 128.797 164.007 129.926Z" fill="#263238"/>
<path d="M162.045 128.115L164.378 126.807C164.378 126.807 163.442 129.095 162.045 128.115Z" fill="#263238"/>
<path d="M178.096 127.772C178.244 128.902 177.754 129.912 176.996 130.016C176.238 130.12 175.51 129.288 175.346 128.144C175.183 126.999 175.688 126.003 176.446 125.899C177.204 125.795 177.932 126.628 178.096 127.772Z" fill="#263238"/>
<path d="M176.134 126.003L178.467 124.695C178.467 124.695 177.531 126.94 176.134 126.003Z" fill="#263238"/>
<path d="M162.787 120.371C162.787 120.371 158.834 120.371 157.006 123.15" stroke="#263238" stroke-width="0.72468" stroke-linecap="round" stroke-linejoin="round"/>
<path d="M172.805 118.66C173.723 118.312 174.708 118.177 175.687 118.264C176.665 118.352 177.61 118.66 178.452 119.166" stroke="#263238" stroke-width="0.72468" stroke-linecap="round" stroke-linejoin="round"/>
<path d="M147.361 135.411C147.361 135.411 152.563 123.298 150.586 114.604C150.586 114.604 176.803 100.291 181.292 127.98C181.292 127.98 181.202 102.907 157.304 105.032C133.405 107.157 137.418 142.025 150.898 151.016C150.898 151.076 144.15 142.976 147.361 135.411Z" fill="#263238"/>
<path d="M149.946 138.087C149.633 136.498 148.704 135.098 147.362 134.193C146.019 133.288 144.373 132.951 142.783 133.257C138.532 134.208 137.477 143.259 148.401 144.18C149.976 144.314 150.675 142.724 149.946 138.087Z" fill="#EBB376"/>
<path d="M170.382 144.462C169.047 144.271 167.781 143.747 166.701 142.94C165.621 142.132 164.76 141.066 164.199 139.84" stroke="#263238" stroke-width="0.5" stroke-linecap="round" stroke-linejoin="round"/>
<path d="M138.205 195.515C138.205 195.515 176.074 186.181 191.933 185.795C196.84 204.502 197.766 224.031 194.652 243.119L147.955 243.297C147.955 243.297 147.479 225.195 138.205 195.515Z" fill="#1055DB"/>
<path d="M150.586 114.603C150.586 114.603 175.852 105.938 182.897 125.467" stroke="#263238" stroke-width="0.5" stroke-linecap="round" stroke-linejoin="round"/>
<path d="M141.416 111.304C143.943 108.05 151.508 97.3338 166.682 97.6311C181.857 97.9283 182.837 111.304 182.837 111.304" stroke="#263238" stroke-width="0.5" stroke-linecap="round" stroke-linejoin="round"/>
<path d="M134.654 133.107C134.661 139.541 133.821 145.947 132.157 152.161C129.363 162.892 132.736 167.454 137.596 168.331" stroke="#263238" stroke-width="0.5" stroke-linecap="round" stroke-linejoin="round"/>
<path d="M150.229 169.534C150.229 169.534 156.887 182.435 177.293 193.314C177.293 193.314 175.673 173.993 169.49 167.082" stroke="#263238" stroke-width="0.5" stroke-linecap="round" stroke-linejoin="round"/>
<path d="M177.293 193.121C177.293 193.121 181.841 198.115 178.988 198.754C176.134 199.393 177.293 193.121 177.293 193.121Z" fill="#263238"/>
<path opacity="0.2" d="M145.652 189.05C145.652 189.05 152.444 202.946 141.743 211.061L137.284 193.717C137.284 193.717 141.654 187.46 145.652 189.05Z" fill="black"/>
<path d="M119.657 251.68H130.432C132.81 247.222 140.955 231.512 141.416 226.682C141.951 221.019 145.756 188.173 145.756 188.173L143.734 171.305C143.734 171.305 135.976 174.069 133.331 180.475C128.872 191.161 129.511 215.877 129.511 222.089C129.511 227.41 121.723 246.642 119.657 251.68Z" fill="#EBB376"/>
<path d="M117.012 250.846C117.012 250.846 117.294 250.059 117.785 248.766" stroke="#1055DB" stroke-width="0.5" stroke-linecap="round" stroke-linejoin="round"/>
<path d="M118.825 245.869C121.694 238.006 126.925 223.486 126.881 222.624C126.806 221.45 125.573 197.729 126.881 190.491C127.794 184.354 130.486 178.618 134.624 173.994" stroke="#1055DB" stroke-width="0.5" stroke-linecap="round" stroke-linejoin="round" stroke-dasharray="3.1 2.07"/>
<path d="M135.679 172.865C136.184 172.345 136.704 171.825 137.269 171.304C136.545 171.141 135.834 170.923 135.144 170.65" stroke="#1055DB" stroke-width="0.5" stroke-linecap="round" stroke-linejoin="round"/>
<path d="M132.424 169.282C131.38 168.67 130.468 167.857 129.741 166.89C129.014 165.923 128.486 164.821 128.188 163.649C126.806 157.555 131.547 143.392 131.16 139.498C130.774 135.604 126.33 122.792 130.358 114.826C131.85 111.619 134.507 109.101 137.789 107.781" stroke="#1055DB" stroke-width="0.5" stroke-linecap="round" stroke-linejoin="round" stroke-dasharray="3.08 2.06"/>
<path d="M139.216 107.306C139.934 107.116 140.673 107.011 141.415 106.994C141.415 106.994 141.921 106.34 142.902 105.314" stroke="#1055DB" stroke-width="0.5" stroke-linecap="round" stroke-linejoin="round"/>
<path d="M144.894 103.264C149.739 98.7011 159.206 91.8347 170.576 94.2572C185.676 97.4675 190.135 116.268 186.924 128.693" stroke="#1055DB" stroke-width="0.5" stroke-linecap="round" stroke-linejoin="round" stroke-dasharray="2.91 1.94"/>
<path d="M186.582 130.09C186.345 130.818 186.092 131.576 185.81 132.185C185.81 132.185 186.597 132.408 187.935 132.854" stroke="#1055DB" stroke-width="0.5" stroke-linecap="round" stroke-linejoin="round"/>
<path d="M190.788 133.881C198.858 136.853 214.107 143.928 215.98 154.227C218.165 166.117 212.472 172.166 198.383 178.676" stroke="#1055DB" stroke-width="0.5" stroke-linecap="round" stroke-linejoin="round" stroke-dasharray="3.07 2.04"/>
<path d="M196.986 179.299L194.95 180.205C194.95 180.205 195.129 180.978 195.441 182.375" stroke="#1055DB" stroke-width="0.5" stroke-linecap="round" stroke-linejoin="round"/>
<path d="M196.02 185.23C198.204 196.258 202.514 223.144 197.179 242.034L200.151 248.321" stroke="#1055DB" stroke-width="0.5" stroke-linecap="round" stroke-linejoin="round" stroke-dasharray="2.95 1.96"/>
<path d="M200.731 249.658L201.683 251.68" stroke="#1055DB" stroke-width="0.5" stroke-linecap="round" stroke-linejoin="round"/>
<path opacity="0.3" d="M19.2766 44.2598H1.48633V289.266H19.2766V44.2598Z" fill="white"/>
<path opacity="0.3" d="M392.724 15.3828H1.48633V42.1351H392.724V15.3828Z" fill="white"/>
<path opacity="0.3" d="M392.723 51.6914H309.702V119.434H392.723V51.6914Z" fill="white"/>
<path opacity="0.2" d="M390.434 53.832H311.753V107.842H390.434V53.832Z" fill="black"/>
<path d="M375.691 55.0215H317.594V106.668H375.691V55.0215Z" fill="white"/>
<path d="M363.92 93.3653L361.631 103.799L361.2 103.591L363.623 93.291L363.92 93.3653Z" fill="#1055DB"/>
<path opacity="0.6" d="M363.92 93.3653L361.631 103.799L361.2 103.591L363.623 93.291L363.92 93.3653Z" fill="white"/>
<path d="M361.854 73.7182C365.515 73.7182 368.483 70.7505 368.483 67.0896C368.483 63.4287 365.515 60.4609 361.854 60.4609C358.193 60.4609 355.226 63.4287 355.226 67.0896C355.226 70.7505 358.193 73.7182 361.854 73.7182Z" fill="#1055DB"/>
<path opacity="0.9" d="M361.854 73.7182C365.515 73.7182 368.483 70.7505 368.483 67.0896C368.483 63.4287 365.515 60.4609 361.854 60.4609C358.193 60.4609 355.226 63.4287 355.226 67.0896C355.226 70.7505 358.193 73.7182 361.854 73.7182Z" fill="white"/>
<path d="M348.032 64.7254C348.032 64.4402 348.144 64.1664 348.345 63.9634C348.545 63.7603 348.817 63.6443 349.102 63.6404C349.206 63.6238 349.311 63.6238 349.414 63.6404C349.407 63.5316 349.407 63.4223 349.414 63.3134C349.412 63.0136 349.47 62.7163 349.583 62.4387C349.697 62.1611 349.864 61.9086 350.075 61.6959C350.287 61.4832 350.538 61.3144 350.815 61.1991C351.092 61.0839 351.388 61.0246 351.688 61.0246C351.832 61.01 351.976 61.01 352.119 61.0246C352.294 60.7309 352.542 60.4874 352.839 60.3181C353.136 60.1488 353.472 60.0594 353.814 60.0586C354.341 60.0585 354.847 60.2658 355.222 60.6357C355.597 61.0056 355.812 61.5083 355.82 62.0353C356.309 62.0353 356.778 62.2294 357.123 62.5751C357.469 62.9207 357.663 63.3894 357.663 63.8782C357.663 64.367 357.469 64.8358 357.123 65.1814C356.778 65.527 356.309 65.7212 355.82 65.7212H349.013C348.757 65.7003 348.518 65.5883 348.338 65.4055C348.158 65.2228 348.049 64.9814 348.032 64.7254V64.7254Z" fill="#1055DB"/>
<path d="M362.167 73.0197C362.167 72.7345 362.279 72.4608 362.479 72.2577C362.68 72.0547 362.952 71.9386 363.237 71.9347C363.34 71.9181 363.446 71.9181 363.549 71.9347C363.512 71.612 363.542 71.2851 363.638 70.9747C363.733 70.6642 363.892 70.377 364.105 70.1312C364.317 69.8853 364.578 69.6862 364.871 69.5464C365.165 69.4066 365.484 69.3292 365.808 69.319C365.952 69.3036 366.096 69.3036 366.239 69.319C366.462 68.9458 366.802 68.6559 367.205 68.4936C367.608 68.3313 368.054 68.3054 368.473 68.42C368.893 68.5345 369.263 68.7832 369.528 69.128C369.793 69.4728 369.937 69.8948 369.94 70.3296C370.195 70.3066 370.452 70.337 370.694 70.4188C370.937 70.5006 371.16 70.6321 371.349 70.8047C371.538 70.9774 371.688 71.1876 371.792 71.4218C371.895 71.656 371.948 71.9091 371.948 72.1651C371.948 72.421 371.895 72.6742 371.792 72.9084C371.688 73.1426 371.538 73.3528 371.349 73.5254C371.16 73.6981 370.937 73.8295 370.694 73.9114C370.452 73.9932 370.195 74.0236 369.94 74.0006H363.178C362.919 73.9871 362.674 73.8802 362.488 73.6998C362.302 73.5195 362.188 73.2778 362.167 73.0197Z" fill="#1055DB"/>
<path d="M367.888 95.164C366.953 93.7712 365.686 92.6324 364.202 91.8497C362.609 91.7876 361.022 92.0927 359.565 92.7414C359.565 92.7414 359.06 93.5737 359.565 93.9007C360.071 94.2277 360.606 93.5589 360.606 93.5589C360.606 93.5589 360.71 94.5695 361.453 94.5992C361.668 94.6026 361.878 94.5364 362.052 94.4105C362.226 94.2846 362.355 94.1058 362.419 93.9007C362.442 94.1655 362.546 94.4169 362.716 94.6213C362.886 94.8258 363.114 94.9736 363.37 95.0451C363.599 95.0992 363.839 95.0859 364.06 95.0067C364.282 94.9276 364.476 94.7861 364.619 94.5992C364.666 94.8168 364.767 95.0191 364.912 95.1878C365.058 95.3565 365.243 95.4863 365.451 95.5653C365.619 95.6129 365.797 95.6101 365.964 95.5572C366.13 95.5044 366.277 95.4038 366.387 95.268C366.387 95.268 366.551 96.0855 367.13 96.0855C367.71 96.0855 367.888 95.164 367.888 95.164Z" fill="#1055DB"/>
<path d="M325.055 104.335C324.17 94.2324 322.45 84.2206 319.913 74.402L320.79 73.748C320.79 73.748 324.55 79.8714 328.34 103.577L325.055 104.335Z" fill="#1055DB"/>
<g opacity="0.5">
<path d="M325.055 104.335C324.17 94.2324 322.45 84.2206 319.913 74.402L320.79 73.748C320.79 73.748 324.55 79.8714 328.34 103.577L325.055 104.335Z" fill="white"/>
</g>
<path d="M329.692 102.119C329.196 89.4543 331.248 76.8193 335.726 64.9627L334.849 64.1602C334.849 64.1602 326.779 78.0416 326.051 102.386L329.692 102.119Z" fill="#1055DB"/>
<g opacity="0.6">
<path d="M329.692 102.119C329.196 89.4543 331.248 76.8193 335.726 64.9627L334.849 64.1602C334.849 64.1602 326.779 78.0416 326.051 102.386L329.692 102.119Z" fill="white"/>
</g>
<path d="M317.594 76.3626V76.7936L317.683 76.6152L317.594 76.3626ZM328.726 76.9125C328.324 73.3307 326.823 71.993 324.49 71.785C323.982 71.7354 323.47 71.8173 323.004 72.0228L323.286 71.8444L322.781 70.3582L323.494 71.7255C323.749 71.5978 324.012 71.4885 324.282 71.3985L323.732 69.2732L324.817 71.2499L325.649 71.1162L325.471 70.4325L325.857 71.1013H326.437L325.872 69.7934L326.645 71.1013C326.974 71.1153 327.301 71.15 327.626 71.2053C326.214 68.3666 322.84 67.4006 321.428 69.2435C320.747 70.3597 320.508 71.6906 320.759 72.9739V72.9739C320.759 72.9739 320.759 72.8699 320.759 72.8105C320.685 71.4877 320.358 67.3857 319.154 66.8655C318.515 66.6128 318.04 67.0587 317.668 67.6086V69.0949L317.846 68.3072L317.728 69.1841C317.898 69.2217 318.063 69.2817 318.218 69.3624L318.5 68.2031L318.381 69.4516L318.575 69.5853L318.902 68.4855L318.679 69.6745C319.003 69.9568 319.288 70.2818 319.526 70.6406V69.0652L319.853 71.1905L320.016 71.5026C319.724 71.0706 319.338 70.7099 318.887 70.4473C318.517 70.2344 318.094 70.1313 317.668 70.1501V75.9316L317.95 76.3031L318.248 75.8721L318.01 75.2033L318.337 75.7532L318.56 75.4857L318.277 74.594L318.694 75.3668C318.901 75.1405 319.136 74.9409 319.392 74.7723L318.946 73.6874L319.57 74.6237C318.842 75.3965 318.248 76.749 319.57 78.8595C319.57 78.8595 319.57 78.2501 319.675 77.3732L319.377 76.9868L319.704 77.1503C319.704 76.8976 319.704 76.645 319.808 76.3774L319.556 76.0059L319.853 76.1545V75.887L319.511 75.129L319.957 75.4114L320.046 75.0547L320.18 75.7086L320.254 75.4708L320.522 74.6386L321.131 75.4114L321.295 74.6386L321.934 75.1141C321.878 74.6071 321.763 74.1083 321.592 73.6279V73.6279L322.023 73.9697L322.201 73.6874V74.1481L322.543 74.5048L322.84 73.6874L322.766 74.7872C322.929 74.9804 323.063 75.1736 323.212 75.3817L323.301 74.5791L323.375 75.6343L323.762 76.2883V74.802L323.925 76.6747C324.208 77.2395 324.371 77.6407 324.371 77.6407C324.497 76.2873 324.234 74.926 323.613 73.7171L324.222 73.8954L325.01 74.2224L325.307 73.2712L325.203 74.3264C325.456 74.4453 325.709 74.594 325.946 74.7277L326.065 73.8954V74.8317C326.363 75.0101 326.63 75.2033 326.898 75.3817L326.764 73.8954L327.091 75.5303C327.358 75.7235 327.596 75.9019 327.804 76.0802V75.0398L328.161 76.3329L328.726 76.9125ZM317.95 73.0334V72.0376V72.9888V73.0334ZM318.902 73.0334L318.976 71.3688C318.976 71.3688 318.976 72.216 319.095 73.1077L318.902 73.0334ZM322.365 72.2903C322.371 72.226 322.371 72.1613 322.365 72.0971L322.246 71.7552L321.874 70.7V70.5662C321.874 70.5662 321.874 70.4771 321.874 70.4473V70.3433C321.87 70.284 321.87 70.2243 321.874 70.165L322.84 72.1565L322.365 72.2903ZM322.944 73.0334L322.84 72.9442L323.004 72.5875L322.944 73.0334ZM323.598 73.6576C323.509 73.5387 323.405 73.4347 323.301 73.3158L323.687 72.751L323.598 73.6576Z" fill="#1055DB"/>
<path d="M337.703 60.0895C337.186 60.38 336.743 60.7871 336.41 61.2785L336.589 60.9367L336.96 58.5141V60.3125C337.234 59.9062 337.559 59.5366 337.926 59.2127L337.674 57.8602L338.045 59.1086L338.268 58.96L338.12 57.4738L338.447 58.8114C338.619 58.7171 338.804 58.647 338.996 58.6033L338.878 57.5927L339.1 58.5884H339.383L339.19 57.8305L339.546 58.5884H339.754C339.754 58.5884 339.056 55.3782 337.421 56.0024C336.069 56.5374 335.697 61.2042 335.608 62.7053C335.608 62.7053 335.608 62.8391 335.533 62.8985C335.819 61.4415 335.548 59.9305 334.776 58.6627C333.17 56.5672 329.336 57.6521 327.716 60.8921C328.084 60.8268 328.457 60.7871 328.831 60.7732L329.707 59.287L329.068 60.7732C329.291 60.759 329.514 60.759 329.737 60.7732L330.168 60.0004L329.96 60.7881C330.28 60.8181 330.598 60.8677 330.911 60.9367L332.145 58.6776L331.521 61.1002C331.83 61.2048 332.133 61.3289 332.427 61.4717L333.245 59.9112L332.65 61.5906L332.977 61.769C332.433 61.5414 331.841 61.4496 331.253 61.5015C328.593 61.7541 326.884 63.2701 326.423 67.3572L326.958 66.8817L327.359 65.3954V66.5695C327.582 66.3763 327.85 66.1683 328.147 65.9453L328.533 64.0875L328.385 65.7818L329.321 65.1576V64.0875L329.455 65.0387C329.722 64.8752 330.005 64.7266 330.302 64.578L330.198 63.3741L330.525 64.4591C330.822 64.3253 331.119 64.1916 331.417 64.0875L332.1 63.8943C331.396 65.2686 331.102 66.8163 331.253 68.353C331.253 68.353 331.432 67.8923 331.758 67.2532L331.937 65.113L332.011 66.7925C332.14 66.5448 332.289 66.2921 332.457 66.0345L332.531 64.8306L332.65 65.7521C332.799 65.5143 332.977 65.2765 333.141 65.0536L333.066 63.8051L333.408 64.7563C333.524 64.6107 333.648 64.4718 333.78 64.3402V63.8051L334.003 64.1321L334.478 63.7457H334.553C334.375 64.2626 334.245 64.795 334.166 65.336L334.939 64.7712L335.132 65.6481L335.652 65.009L335.831 64.7861L336.217 66.0048L336.366 65.2617C336.366 65.3806 336.366 65.5292 336.47 65.6629L336.975 65.3508L336.589 66.2129C336.589 66.302 336.589 66.4061 336.589 66.5101L336.916 66.3466L336.633 66.7628C336.633 67.0749 336.723 67.3721 336.752 67.6545L337.124 67.4613L336.782 67.9072C336.871 68.8138 336.901 69.4974 336.901 69.4974C338.387 67.1046 337.718 65.5589 336.901 64.682L337.614 63.6268L337.109 64.8604C337.403 65.0488 337.673 65.2735 337.911 65.5292L338.387 64.6523L338.06 65.6778C338.149 65.767 338.224 65.871 338.313 65.975L338.684 65.3508L338.417 66.1088L338.759 66.5993L339.442 65.7224L338.967 66.9411C339.332 67.5526 339.646 68.194 339.903 68.8584L340.408 67.4761L340.052 69.2596C340.23 69.7055 340.349 70.1068 340.453 70.4189L340.78 69.215L340.542 70.7013L340.631 71.0728C341.835 67.2086 340.884 64.6374 339.68 63.4782L340.096 61.2339L340.319 63.8051C340.635 63.8668 340.948 63.9462 341.256 64.0429L341.374 63.2255L341.464 64.1172C341.701 64.1172 341.895 64.2807 342.088 64.3551V62.7202C342.088 62.7202 342.192 63.5228 342.296 64.4442C342.638 64.599 342.966 64.783 343.277 64.9941C343.069 61.338 339.992 58.8114 337.703 60.0895ZM332.234 63.7903L332.13 62.7499L332.576 63.4039C332.454 63.5256 332.34 63.6546 332.234 63.7903V63.7903ZM332.977 63.062V62.5567L333.17 62.9728L332.977 63.062ZM333.631 62.2149L333.378 62.0662L334.478 59.7923C334.478 59.7923 334.018 61.0705 333.631 62.2149ZM337.362 63.1512C337.451 62.1405 337.51 61.1745 337.51 61.1745L337.599 63.0769L337.362 63.1512ZM338.506 62.9728L338.595 61.8879L338.669 63.0174L338.506 62.9728Z" fill="#1055DB"/>
<g opacity="0.7">
<path d="M322.602 72.2017L321.621 70.1953C321.621 70.1953 322.037 71.3249 322.364 72.3355L322.602 72.2017Z" fill="white"/>
<path d="M318.976 71.4141L318.901 73.0786L319.095 73.153C319.02 72.2612 318.976 71.4141 318.976 71.4141Z" fill="white"/>
<path d="M323.301 73.3617C323.408 73.4737 323.507 73.5929 323.598 73.7183L323.687 72.7969L323.301 73.3617Z" fill="white"/>
<path d="M322.944 73.1236V72.6777L322.78 73.0493L322.944 73.1236Z" fill="white"/>
<path d="M334.478 59.748L333.378 62.022L333.631 62.1855C334.017 61.0857 334.478 59.748 334.478 59.748Z" fill="white"/>
<path d="M318.024 72.0391V73.0348H318.158L318.024 72.0391Z" fill="white"/>
<path d="M337.36 63.1504H337.598L337.509 61.248C337.509 61.248 337.45 62.1398 337.36 63.1504Z" fill="white"/>
<path d="M338.505 62.9725H338.668L338.594 61.8281L338.505 62.9725Z" fill="white"/>
<path d="M333.095 62.9728L332.917 62.5566V63.062L333.095 62.9728Z" fill="white"/>
<path d="M332.129 62.7207L332.233 63.7611C332.339 63.6254 332.453 63.4964 332.575 63.3747L332.129 62.7207Z" fill="white"/>
<path d="M317.594 76.3645V76.7955L317.683 76.6172L317.594 76.3645ZM328.726 76.9144C328.324 73.3326 326.823 71.995 324.49 71.7869C323.982 71.7374 323.47 71.8193 323.004 72.0247L323.286 71.8464L322.781 70.3601L323.494 71.7275C323.749 71.5998 324.012 71.4905 324.282 71.4005L323.732 69.2752L324.817 71.2519L325.649 71.1181L325.471 70.4344L325.857 71.1032H326.437L325.872 69.7954L326.645 71.1032C326.974 71.1172 327.301 71.152 327.626 71.2073C326.214 68.3686 322.84 67.4025 321.428 69.2455C320.747 70.3616 320.508 71.6925 320.759 72.9759V72.9759C320.759 72.9759 320.759 72.8719 320.759 72.8124C320.685 71.4897 320.358 67.3876 319.154 66.8675C318.515 66.6148 318.04 67.0607 317.668 67.6106V69.0968L317.846 68.3091L317.728 69.186C317.898 69.2237 318.063 69.2836 318.218 69.3644L318.5 68.2051L318.381 69.4535L318.575 69.5873L318.902 68.4875L318.679 69.6765C319.003 69.9588 319.288 70.2838 319.526 70.6425V69.0671L319.853 71.1924L320.016 71.5045C319.724 71.0725 319.338 70.7119 318.887 70.4493C318.517 70.2364 318.094 70.1333 317.668 70.1521V75.9335L317.95 76.3051L318.248 75.8741L318.01 75.2053L318.337 75.7552L318.56 75.4876L318.277 74.5959L318.694 75.3687C318.901 75.1425 319.136 74.9428 319.392 74.7743L318.946 73.6893L319.57 74.6256C318.842 75.3985 318.248 76.751 319.57 78.8614C319.57 78.8614 319.57 78.2521 319.675 77.3752L319.377 76.9888L319.704 77.1522C319.704 76.8996 319.704 76.6469 319.808 76.3794L319.556 76.0078L319.853 76.1564V75.8889L319.511 75.131L319.957 75.4133L320.046 75.0566L320.18 75.7106L320.254 75.4728L320.522 74.6405L321.131 75.4133L321.295 74.6405L321.934 75.1161C321.878 74.609 321.763 74.1102 321.592 73.6298V73.6298L322.023 73.9717L322.201 73.6893V74.15L322.543 74.5067L322.84 73.6893L322.766 74.7891C322.929 74.9823 323.063 75.1755 323.212 75.3836L323.301 74.581L323.375 75.6363L323.762 76.2902V74.804L323.925 76.6766C324.208 77.2414 324.371 77.6427 324.371 77.6427C324.497 76.2893 324.234 74.928 323.613 73.719L324.222 73.8974L325.01 74.2244L325.307 73.2732L325.203 74.3284C325.456 74.4473 325.709 74.5959 325.946 74.7297L326.065 73.8974V74.8337C326.363 75.012 326.63 75.2053 326.898 75.3836L326.764 73.8974L327.091 75.5322C327.358 75.7254 327.596 75.9038 327.804 76.0822V75.0418L328.161 76.3348L328.726 76.9144ZM317.95 73.0354V72.0396V72.9908V73.0354ZM318.902 73.0354L318.976 71.3708C318.976 71.3708 318.976 72.2179 319.095 73.1097L318.902 73.0354ZM322.365 72.2922C322.371 72.228 322.371 72.1633 322.365 72.099L322.246 71.7572L321.874 70.702V70.5682C321.874 70.5682 321.874 70.479 321.874 70.4493V70.3453C321.87 70.2859 321.87 70.2263 321.874 70.1669L322.84 72.1585L322.365 72.2922ZM322.944 73.0354L322.84 72.9462L323.004 72.5895L322.944 73.0354ZM323.598 73.6596C323.509 73.5407 323.405 73.4367 323.301 73.3178L323.687 72.753L323.598 73.6596Z" fill="white"/>
<path d="M337.702 60.0895C337.185 60.38 336.742 60.7871 336.409 61.2785L336.588 60.9367L336.959 58.5141V60.3125C337.233 59.9062 337.558 59.5366 337.925 59.2127L337.673 57.8602L338.044 59.1086L338.267 58.96L338.119 57.4738L338.446 58.8114C338.618 58.7171 338.803 58.647 338.995 58.6033L338.877 57.5927L339.099 58.5884H339.382L339.189 57.8305L339.545 58.5884H339.753C339.753 58.5884 339.055 55.3782 337.42 56.0024C336.068 56.5374 335.696 61.2042 335.607 62.7053C335.607 62.7053 335.607 62.8391 335.533 62.8985C335.818 61.4415 335.547 59.9305 334.775 58.6627C333.169 56.5672 329.335 57.6521 327.715 60.8921C328.083 60.8268 328.456 60.7871 328.83 60.7732L329.706 59.287L329.067 60.7732C329.29 60.759 329.513 60.759 329.736 60.7732L330.167 60.0004L329.959 60.7881C330.279 60.8181 330.597 60.8677 330.91 60.9367L332.144 58.6776L331.52 61.1002C331.829 61.2048 332.132 61.3289 332.426 61.4717L333.244 59.9112L332.649 61.5906L332.976 61.769C332.432 61.5414 331.84 61.4496 331.252 61.5015C328.592 61.7541 326.883 63.2701 326.422 67.3572L326.957 66.8817L327.358 65.3954V66.5695C327.581 66.3763 327.849 66.1683 328.146 65.9453L328.532 64.0875L328.384 65.7818L329.32 65.1576V64.0875L329.454 65.0387C329.721 64.8752 330.004 64.7266 330.301 64.578L330.197 63.3741L330.524 64.4591C330.821 64.3253 331.118 64.1916 331.416 64.0875L332.099 63.8943C331.395 65.2686 331.101 66.8163 331.252 68.353C331.252 68.353 331.431 67.8923 331.758 67.2532L331.936 65.113L332.01 66.7925C332.139 66.5448 332.288 66.2921 332.456 66.0345L332.53 64.8306L332.649 65.7521C332.798 65.5143 332.976 65.2765 333.14 65.0536L333.065 63.8051L333.407 64.7563C333.523 64.6107 333.647 64.4718 333.779 64.3402V63.8051L334.002 64.1321L334.477 63.7457H334.552C334.374 64.2626 334.244 64.795 334.165 65.336L334.938 64.7712L335.131 65.6481L335.651 65.009L335.83 64.7861L336.216 66.0048L336.365 65.2617C336.365 65.3806 336.365 65.5292 336.469 65.6629L336.974 65.3508L336.588 66.2129C336.588 66.302 336.588 66.4061 336.588 66.5101L336.915 66.3466L336.632 66.7628C336.632 67.0749 336.722 67.3721 336.751 67.6545L337.123 67.4613L336.781 67.9072C336.87 68.8138 336.9 69.4974 336.9 69.4974C338.386 67.1046 337.717 65.5589 336.9 64.682L337.613 63.6268L337.108 64.8604C337.402 65.0488 337.672 65.2735 337.911 65.5292L338.386 64.6523L338.059 65.6778C338.148 65.767 338.223 65.871 338.312 65.975L338.683 65.3508L338.416 66.1088L338.758 66.5993L339.441 65.7224L338.966 66.9411C339.331 67.5526 339.645 68.194 339.902 68.8584L340.407 67.4761L340.051 69.2596C340.229 69.7055 340.348 70.1068 340.452 70.4189L340.779 69.215L340.541 70.7013L340.63 71.0728C341.834 67.2086 340.883 64.6374 339.679 63.4782L340.095 61.2339L340.318 63.8051C340.635 63.8668 340.947 63.9462 341.255 64.0429L341.373 63.2255L341.463 64.1172C341.7 64.1172 341.894 64.2807 342.087 64.3551V62.7202C342.087 62.7202 342.191 63.5228 342.295 64.4442C342.637 64.599 342.965 64.783 343.276 64.9941C343.068 61.338 339.991 58.8114 337.702 60.0895ZM332.233 63.7903L332.129 62.7499L332.575 63.4039C332.453 63.5256 332.339 63.6546 332.233 63.7903V63.7903ZM332.976 63.062V62.5567L333.169 62.9728L332.976 63.062ZM333.63 62.2149L333.378 62.0662L334.477 59.7923C334.477 59.7923 334.017 61.0705 333.63 62.2149ZM337.361 63.1512C337.45 62.1405 337.509 61.1745 337.509 61.1745L337.598 63.0769L337.361 63.1512ZM338.505 62.9728L338.594 61.8879L338.669 63.0174L338.505 62.9728Z" fill="white"/>
</g>
<path d="M375.677 101.362V106.609H318.828L319.274 105.821C319.977 105.778 320.664 105.593 321.295 105.279C321.926 104.965 322.487 104.528 322.945 103.993C323.317 103.577 323.673 103.131 324.075 102.73V102.655L324.491 102.432H324.684H324.833L325.16 102.313L325.992 101.942C326.662 101.625 327.271 101.192 327.79 100.664V100.664C328.206 100.233 328.518 99.7422 328.949 99.3261C328.949 99.3261 329.039 99.3261 329.083 99.3261H329.395H329.915H330.644C331.388 100.618 332.292 101.811 333.334 102.878C336.25 103.837 339.23 104.592 342.251 105.137C342.801 105.018 345.729 105.256 346.472 105.241C347.859 105.065 349.203 104.642 350.44 103.993C352.17 103.331 353.942 102.79 355.746 102.373C358.065 101.63 359.611 101.347 360.963 102.492C361.083 102.584 361.219 102.655 361.364 102.7C361.504 102.745 361.649 102.775 361.795 102.789C363.475 102.893 366.254 101.169 367.205 100.887C368.156 100.604 370.594 98.5681 372.11 99.4896C373.358 100.069 374.384 100.5 375.677 101.362Z" fill="#1055DB"/>
<path opacity="0.7" d="M375.677 101.362V106.609H318.828L319.274 105.821C319.977 105.778 320.664 105.593 321.295 105.279C321.926 104.965 322.487 104.528 322.945 103.993C323.317 103.577 323.673 103.131 324.075 102.73V102.655L324.491 102.432H324.684H324.833L325.16 102.313L325.992 101.942C326.662 101.625 327.271 101.192 327.79 100.664V100.664C328.206 100.233 328.518 99.7422 328.949 99.3261C328.949 99.3261 329.039 99.3261 329.083 99.3261H329.395H329.915H330.644C331.388 100.618 332.292 101.811 333.334 102.878C336.25 103.837 339.23 104.592 342.251 105.137C342.801 105.018 345.729 105.256 346.472 105.241C347.859 105.065 349.203 104.642 350.44 103.993C352.17 103.331 353.942 102.79 355.746 102.373C358.065 101.63 359.611 101.347 360.963 102.492C361.083 102.584 361.219 102.655 361.364 102.7C361.504 102.745 361.649 102.775 361.795 102.789C363.475 102.893 366.254 101.169 367.205 100.887C368.156 100.604 370.594 98.5681 372.11 99.4896C373.358 100.069 374.384 100.5 375.677 101.362Z" fill="white"/>
<path opacity="0.8" d="M348.032 64.7254C348.032 64.4402 348.144 64.1664 348.345 63.9634C348.545 63.7603 348.817 63.6443 349.102 63.6404C349.206 63.6238 349.311 63.6238 349.414 63.6404C349.407 63.5316 349.407 63.4223 349.414 63.3134C349.412 63.0136 349.47 62.7163 349.583 62.4387C349.697 62.1611 349.864 61.9086 350.075 61.6959C350.287 61.4832 350.538 61.3144 350.815 61.1991C351.092 61.0839 351.388 61.0246 351.688 61.0246C351.832 61.01 351.976 61.01 352.119 61.0246C352.294 60.7309 352.542 60.4874 352.839 60.3181C353.136 60.1488 353.472 60.0594 353.814 60.0586C354.341 60.0585 354.847 60.2658 355.222 60.6357C355.597 61.0056 355.812 61.5083 355.82 62.0353C356.309 62.0353 356.778 62.2294 357.123 62.5751C357.469 62.9207 357.663 63.3894 357.663 63.8782C357.663 64.367 357.469 64.8358 357.123 65.1814C356.778 65.527 356.309 65.7212 355.82 65.7212H349.013C348.757 65.7003 348.518 65.5883 348.338 65.4055C348.158 65.2228 348.049 64.9814 348.032 64.7254V64.7254Z" fill="white"/>
<path opacity="0.8" d="M362.167 73.0197C362.167 72.7345 362.279 72.4608 362.479 72.2577C362.68 72.0547 362.952 71.9386 363.237 71.9347C363.34 71.9181 363.446 71.9181 363.549 71.9347C363.512 71.612 363.542 71.2851 363.638 70.9747C363.733 70.6642 363.892 70.377 364.105 70.1312C364.317 69.8853 364.578 69.6862 364.871 69.5464C365.165 69.4066 365.484 69.3292 365.808 69.319C365.952 69.3036 366.096 69.3036 366.239 69.319C366.462 68.9458 366.802 68.6559 367.205 68.4936C367.608 68.3313 368.054 68.3054 368.473 68.42C368.893 68.5345 369.263 68.7832 369.528 69.128C369.793 69.4728 369.937 69.8948 369.94 70.3296C370.195 70.3066 370.452 70.337 370.694 70.4188C370.937 70.5006 371.16 70.6321 371.349 70.8047C371.538 70.9774 371.688 71.1876 371.792 71.4218C371.895 71.656 371.948 71.9091 371.948 72.1651C371.948 72.421 371.895 72.6742 371.792 72.9084C371.688 73.1426 371.538 73.3528 371.349 73.5254C371.16 73.6981 370.937 73.8295 370.694 73.9114C370.452 73.9932 370.195 74.0236 369.94 74.0006H363.178C362.919 73.9871 362.674 73.8802 362.488 73.6998C362.302 73.5195 362.188 73.2778 362.167 73.0197Z" fill="white"/>
<path opacity="0.7" d="M367.888 95.164C366.953 93.7712 365.686 92.6324 364.202 91.8497C362.609 91.7876 361.022 92.0927 359.565 92.7414C359.565 92.7414 359.06 93.5737 359.565 93.9007C360.071 94.2277 360.606 93.5589 360.606 93.5589C360.606 93.5589 360.71 94.5695 361.453 94.5992C361.668 94.6026 361.878 94.5364 362.052 94.4105C362.226 94.2846 362.355 94.1058 362.419 93.9007C362.442 94.1655 362.546 94.4169 362.716 94.6213C362.886 94.8258 363.114 94.9736 363.37 95.0451C363.599 95.0992 363.839 95.0859 364.06 95.0067C364.282 94.9276 364.476 94.7861 364.619 94.5992C364.666 94.8168 364.767 95.0191 364.912 95.1878C365.058 95.3565 365.243 95.4863 365.451 95.5653C365.619 95.6129 365.797 95.6101 365.964 95.5572C366.13 95.5044 366.277 95.4038 366.387 95.268C366.387 95.268 366.551 96.0855 367.13 96.0855C367.71 96.0855 367.888 95.164 367.888 95.164Z" fill="white"/>
<path opacity="0.2" d="M375.691 55.0215H317.594V106.668H375.691V55.0215Z" fill="#1055DB"/>
<path d="M354.824 86.0237C353.868 86.4929 352.873 86.8807 351.852 87.183L351.614 85.2806L351.421 83.7944C351.421 83.7944 354.988 83.616 355.731 81.8326C356.474 80.0491 353.65 78.5183 351.777 77.7306C350.9 77.359 350.217 77.1509 350.217 77.1509V74.877C350.217 74.877 350.707 75.0553 351.45 75.3674C353.546 76.2294 357.678 78.1467 358.495 80.1085C359.313 82.0704 358.034 84.374 354.824 86.0237Z" fill="#EBB376"/>
<path opacity="0.2" d="M351.852 77.7149C350.975 77.3433 350.291 77.1353 350.291 77.1353V74.8613C350.291 74.8613 350.781 75.0397 351.525 75.3518C351.75 76.119 351.86 76.9154 351.852 77.7149V77.7149Z" fill="black"/>
<path opacity="0.2" d="M354.825 86.0243C353.868 86.4935 352.874 86.8813 351.852 87.1836L351.614 85.2812C352.734 85.2097 353.85 85.468 354.825 86.0243V86.0243Z" fill="black"/>
<path d="M339.635 68.6632C341.252 67.2111 343.245 66.2428 345.387 65.8691C349.087 65.1557 351.748 68.6484 351.48 71.8141C351.213 74.9798 349.652 76.9416 349.444 77.9225C349.528 79.675 350.253 81.3355 351.48 82.5893C351.48 82.5893 341.537 85.0267 339.159 83.7783C336.781 82.5298 338.297 79.8992 337.539 76.6889C336.781 73.4787 336.781 69.5996 339.635 68.6632Z" fill="#263238"/>
<path d="M354.958 106.667L353.799 104.348L341.508 103.561C341.225 104.66 340.973 105.686 340.765 106.667H354.958Z" fill="#263238"/>
<path d="M341.553 104.378L341.137 106.177L353.963 105.538L353.755 103.457L341.553 104.378Z" fill="black"/>
<path d="M345.729 106.667L345.654 103.754L345.045 103.769L345.119 106.667H345.729Z" fill="#263238"/>
<path d="M350.932 103.811L348.262 103.977L348.387 105.994L351.057 105.829L350.932 103.811Z" fill="white"/>
<path d="M353.1 103.167L352.491 103.182L352.563 106.242L353.173 106.228L353.1 103.167Z" fill="#263238"/>
<path d="M353.874 104.333H341.36C341.486 103.066 341.456 101.788 341.271 100.529C340.972 98.6537 340.509 96.8087 339.888 95.0146C338.328 90.214 336.604 86.3349 340.23 85.0271C343.857 83.7192 351.496 83.6895 351.496 83.6895C352.286 85.7169 352.912 87.8043 353.368 89.9316C354.007 94.7042 354.176 99.5278 353.874 104.333V104.333Z" fill="#EBB376"/>
<path d="M346.784 83.0519C346.771 83.8165 346.876 84.5785 347.096 85.311L342.414 84.6868C343.075 83.5567 343.277 82.2162 342.979 80.9415C342.979 80.2727 342.8 79.6782 342.726 79.262C342.652 78.8459 342.592 78.6973 342.592 78.6973L344.42 79.0837L347.393 79.7079C346.983 80.7747 346.776 81.909 346.784 83.0519V83.0519Z" fill="#EBB376"/>
<path opacity="0.2" d="M347.423 79.7062C347.003 80.7711 346.786 81.9054 346.784 83.0503C345.305 82.8221 343.956 82.0737 342.979 80.9398C342.979 80.271 342.801 79.6765 342.727 79.2604L344.421 79.082L347.423 79.7062Z" fill="black"/>
<path d="M344.555 68.7536C348.271 68.3375 349.697 70.2399 350.396 74C351.273 78.756 350.604 82.2784 345.833 81.7731C339.368 81.0894 338.387 69.4522 344.555 68.7536Z" fill="#EBB376"/>
<path d="M341.196 75.4854C341.957 73.7272 342.254 71.803 342.058 69.8972C342.058 69.8972 349.103 66.0627 350.307 73.5087C350.307 73.5087 350.307 66.7761 343.857 67.3557C337.406 67.9353 338.536 77.2689 342.147 79.6915C342.147 79.6915 340.334 77.581 341.196 75.4854Z" fill="#263238"/>
<path d="M341.894 76.2004C341.808 75.7734 341.556 75.3979 341.194 75.1557C340.832 74.9134 340.389 74.8242 339.962 74.9073C338.832 75.16 338.476 77.5825 341.448 77.8798C341.894 77.8649 342.087 77.4488 341.894 76.2004Z" fill="#EBB376"/>
<path d="M338.743 91.597C338.743 91.597 348.894 89.1001 353.145 88.9961C354.467 94.0153 354.715 99.257 353.873 104.379H341.359C341.018 100.026 340.139 95.7332 338.743 91.597V91.597Z" fill="#1055DB"/>
<path d="M341.969 84.6415C343.744 87.4021 346.256 89.6107 349.222 91.0174C349.222 91.0174 348.791 85.8156 347.141 83.9727" stroke="#263238" stroke-width="0.25" stroke-linecap="round" stroke-linejoin="round"/>
<path d="M349.221 90.957C349.221 90.957 350.44 92.2946 349.682 92.4433C348.924 92.5919 349.221 90.957 349.221 90.957Z" fill="#263238"/>
<path opacity="0.2" d="M340.735 89.872C340.735 89.872 342.564 93.6025 339.695 95.817L338.491 91.1651C338.491 91.1651 339.665 89.4707 340.735 89.872Z" fill="black"/>
<path d="M333.765 106.667H336.648C337.87 104.543 338.867 102.296 339.62 99.9638C339.754 98.4776 340.78 89.6345 340.78 89.6345L340.245 85.1758C339.041 85.6174 338.045 86.4917 337.451 87.6281C336.262 90.4965 336.425 97.1251 336.425 98.7897C336.41 100.157 334.315 105.314 333.765 106.667Z" fill="#EBB376"/>
<path opacity="0.2" d="M370.653 112.285H311.753V114.336H370.653V112.285Z" fill="black"/>
<path opacity="0.2" d="M390.449 110.576H372.808V116.462H390.449V110.576Z" fill="black"/>
<path d="M346.636 112.285H339.249V114.336H346.636V112.285Z" fill="white"/>
<path opacity="0.3" d="M392.723 128.977H309.702V196.719H392.723V128.977Z" fill="white"/>
<path opacity="0.2" d="M366.982 132.111H311.753V170.947H366.982V132.111Z" fill="black"/>
<path opacity="0.5" d="M311.753 167.246C311.753 167.469 313.403 167.796 313.581 167.766C314.785 167.588 315.067 166.443 315.781 165.448C315.879 165.302 316 165.171 316.137 165.061C316.29 164.963 316.468 164.911 316.65 164.911C316.832 164.911 317.01 164.963 317.163 165.061C317.458 165.284 317.701 165.568 317.876 165.894C318.976 163.293 319.868 160.439 321.205 157.957C322.305 155.936 323.405 154.985 323.806 152.473C324.104 150.704 324.698 146.736 325.293 146.439C325.887 146.141 326.779 155.118 327.789 155.118C328.8 155.118 329.276 161.583 330.301 162.029C331.327 162.475 331.327 159.815 332.352 159.815C333.378 159.815 334.552 162.178 335.146 161.583C335.741 160.989 336.633 156.144 338.238 156.144C340.363 156.144 341.21 147.316 342.369 145.74C342.637 145.889 342.622 146.275 342.607 146.587C342.592 146.899 342.696 147.301 343.009 147.33C343.246 146.736 343.499 146.141 343.752 145.547C344.108 144.7 345.684 138.116 347.111 139.825C347.315 140.12 347.457 140.454 347.527 140.806L350.499 152.101C350.588 152.473 350.782 152.919 351.153 152.948L351.718 151.462C351.733 151.401 351.763 151.344 351.807 151.299C351.941 151.15 352.208 151.299 352.298 151.432C352.369 151.617 352.394 151.816 352.372 152.012C352.372 153.424 352.833 153.588 353.546 152.666C353.582 152.625 353.627 152.592 353.677 152.569C353.727 152.547 353.781 152.535 353.836 152.535C353.891 152.535 353.945 152.547 353.995 152.569C354.045 152.592 354.089 152.625 354.126 152.666C354.259 152.844 354.341 153.054 354.363 153.275C355.167 156.126 356.242 158.893 357.574 161.539C357.607 161.663 357.68 161.773 357.782 161.851C358.124 162.074 358.465 161.628 358.614 161.257C359.209 159.77 359.862 158.284 360.561 156.798C360.802 156.82 361.044 156.778 361.263 156.677C361.483 156.575 361.671 156.417 361.809 156.218C362.092 155.819 362.299 155.37 362.419 154.895C362.671 154.108 362.998 150.734 364.128 151.135C364.589 151.299 365.124 152.948 365.124 153.409H366.982V170.887H311.753V167.246Z" fill="white"/>
<path opacity="0.2" d="M366.967 189.332H312.526V191.383H366.967V189.332Z" fill="black"/>
<path d="M347.393 189.332H340.007V191.383H347.393V189.332Z" fill="white"/>
<path opacity="0.2" d="M366.967 178.928H312.526V180.979H366.967V178.928Z" fill="black"/>
<path d="M332.531 178.928H325.145V180.979H332.531V178.928Z" fill="white"/>
<path opacity="0.2" d="M387.804 136.629H373.105C372.293 136.629 371.634 137.288 371.634 138.1V141.623C371.634 142.435 372.293 143.094 373.105 143.094H387.804C388.617 143.094 389.275 142.435 389.275 141.623V138.1C389.275 137.288 388.617 136.629 387.804 136.629Z" fill="black"/>
<path opacity="0.2" d="M387.804 147.404H373.105C372.293 147.404 371.634 148.063 371.634 148.876V152.398C371.634 153.211 372.293 153.869 373.105 153.869H387.804C388.617 153.869 389.275 153.211 389.275 152.398V148.876C389.275 148.063 388.617 147.404 387.804 147.404Z" fill="black"/>
<path opacity="0.2" d="M387.804 158.18H373.105C372.293 158.18 371.634 158.838 371.634 159.651V163.173C371.634 163.986 372.293 164.645 373.105 164.645H387.804C388.617 164.645 389.275 163.986 389.275 163.173V159.651C389.275 158.838 388.617 158.18 387.804 158.18Z" fill="black"/>
<path opacity="0.2" d="M394.715 293.057H0V303.401H394.715V293.057Z" fill="black"/>
<path d="M392.723 44.7363H309.702V51.6771H392.723V44.7363Z" fill="#1055DB"/>
<path d="M392.56 122.02H309.539V128.96H392.56V122.02Z" fill="#1055DB"/>
<path opacity="0.3" d="M392.723 206.26H309.702V290.515H392.723V206.26Z" fill="white"/>
<path opacity="0.3" d="M390.048 209.262H311.753V226.309H390.048V209.262Z" fill="white"/>
<path opacity="0.2" d="M330.272 211.031H314.206V224.556H330.272V211.031Z" fill="black"/>
<path opacity="0.3" d="M390.197 228.287H311.902V245.334H390.197V228.287Z" fill="white"/>
<path opacity="0.2" d="M330.421 230.039H314.354V243.564H330.421V230.039Z" fill="black"/>
<path opacity="0.3" d="M390.346 247.295H312.051V264.342H390.346V247.295Z" fill="white"/>
<path opacity="0.2" d="M330.555 249.049H314.488V262.574H330.555V249.049Z" fill="black"/>
<path opacity="0.3" d="M390.48 266.305H312.185V283.352H390.48V266.305Z" fill="white"/>
<path opacity="0.2" d="M330.703 268.059H314.637V281.583H330.703V268.059Z" fill="black"/>
<path d="M392.56 199.305H309.539V206.245H392.56V199.305Z" fill="#1055DB"/>
<path opacity="0.2" d="M390.45 18.2812H340.765V26.515H390.45V18.2812Z" fill="black"/>
<path opacity="0.3" d="M13.1678 18.2812H4.5625V26.8866H13.1678V18.2812Z" fill="white"/>
<path opacity="0.3" d="M23.5721 18.0879H14.9668V26.6932H23.5721V18.0879Z" fill="white"/>
<path opacity="0.3" d="M33.9754 17.8945H25.3701V26.4999H33.9754V17.8945Z" fill="white"/>
<path opacity="0.3" d="M44.3787 17.7168H35.7734V26.3221H44.3787V17.7168Z" fill="white"/>
<path opacity="0.3" d="M54.783 17.5234H46.1777V26.1288H54.783V17.5234Z" fill="white"/>
<path opacity="0.3" d="M86.306 17.5234H60.2969V26.1288H86.306V17.5234Z" fill="white"/>
<path opacity="0.3" d="M116.788 17.5234H90.7793V26.1288H116.788V17.5234Z" fill="white"/>
<path opacity="0.3" d="M147.271 17.5234H121.262V26.1288H147.271V17.5234Z" fill="white"/>
<path opacity="0.3" d="M177.754 17.5234H151.745V26.1288H177.754V17.5234Z" fill="white"/>
<path opacity="0.3" d="M16.0517 47.3809H3.6416V59.7909H16.0517V47.3809Z" fill="white"/>
<path opacity="0.3" d="M16.0517 62.4961H3.6416V74.9062H16.0517V62.4961Z" fill="white"/>
<path opacity="0.3" d="M16.0517 77.6113H3.6416V90.0214H16.0517V77.6113Z" fill="white"/>
<path opacity="0.3" d="M16.0517 92.7266H3.6416V105.137H16.0517V92.7266Z" fill="white"/>
<path opacity="0.3" d="M16.0517 107.842H3.6416V120.252H16.0517V107.842Z" fill="white"/>
<path opacity="0.3" d="M16.0517 122.957H3.6416V135.367H16.0517V122.957Z" fill="white"/>
<path opacity="0.3" d="M16.0517 138.072H3.6416V150.482H16.0517V138.072Z" fill="white"/>
<path opacity="0.3" d="M16.0517 153.188H3.6416V165.598H16.0517V153.188Z" fill="white"/>
<path opacity="0.3" d="M16.0517 168.301H3.6416V180.711H16.0517V168.301Z" fill="white"/>
<path opacity="0.3" d="M16.0517 183.416H3.6416V195.826H16.0517V183.416Z" fill="white"/>
<path opacity="0.3" d="M16.0517 198.547H3.6416V210.957H16.0517V198.547Z" fill="white"/>
</svg>
