<svg width="1884" height="1815" viewBox="0 0 1884 1815" fill="none" xmlns="http://www.w3.org/2000/svg">
<path d="M1395.23 852.408C1439.13 852.408 1474.71 826.912 1474.71 795.461C1474.71 764.011 1439.13 738.515 1395.23 738.515C1351.33 738.515 1315.74 764.011 1315.74 795.461C1315.74 826.912 1351.33 852.408 1395.23 852.408Z" fill="#1055DB"/>
<path d="M896.521 982.321C960.896 982.321 1013.08 944.933 1013.08 898.813C1013.08 852.692 960.896 815.305 896.521 815.305C832.146 815.305 779.959 852.692 779.959 898.813C779.959 944.933 832.146 982.321 896.521 982.321Z" fill="#1055DB"/>
<path d="M710.693 822.805C781.987 771.727 781.987 688.915 710.693 637.838C639.398 586.761 523.807 586.761 452.513 637.838C381.218 688.915 381.218 771.727 452.513 822.805C523.807 873.882 639.398 873.882 710.693 822.805Z" fill="#1055DB"/>
<path d="M782.483 611.444C849.528 611.444 903.878 572.506 903.878 524.474C903.878 476.442 849.528 437.504 782.483 437.504C715.439 437.504 661.089 476.442 661.089 524.474C661.089 572.506 715.439 611.444 782.483 611.444Z" fill="#1055DB"/>
<path d="M1148.9 562.042C1239.41 562.042 1312.78 509.477 1312.78 444.635C1312.78 379.793 1239.41 327.228 1148.9 327.228C1058.4 327.228 985.024 379.793 985.024 444.635C985.024 509.477 1058.4 562.042 1148.9 562.042Z" fill="#1055DB"/>
<path d="M1182.52 1033.38L1153.09 1067.12C1145.68 1075.63 1133.95 1081.75 1120.36 1084.17C1106.78 1086.59 1092.41 1085.13 1080.31 1080.09L1051.46 1068.1C1042.79 1063.84 1035.59 1058.22 1030.41 1051.66C1025.24 1045.11 1022.22 1037.79 1021.59 1030.28L1018.64 947.956C1018.34 945.849 1017.28 943.834 1015.56 942.112C1013.83 940.389 1011.52 939.019 1008.83 938.138C1001.49 935.489 993.385 934.109 985.168 934.109C976.951 934.109 968.848 935.489 961.509 938.138C958.804 939.002 956.468 940.367 954.744 942.093C953.02 943.819 951.969 945.843 951.7 947.956L945.497 1119.21C944.992 1133.47 936.841 1141.84 927.248 1137.92L909.937 1130.73C901.506 1127.27 894.118 1122.63 888.2 1117.11C882.282 1111.58 877.951 1105.27 875.458 1098.54L856.056 1046.86C854.822 1043.55 851.799 1040.72 847.653 1039C843.507 1037.28 838.577 1036.81 833.948 1037.69C829.318 1038.58 825.369 1040.74 822.967 1043.71C820.566 1046.68 819.911 1050.21 821.145 1053.53L840.548 1105.21C844.268 1115.21 850.715 1124.59 859.517 1132.8C868.318 1141.01 879.301 1147.9 891.832 1153.06L917.654 1163.75C932.08 1169.64 943.044 1185.97 942.539 1200.24L922.848 1746.35C922.848 1752.91 928.907 1759.52 941.025 1764.54C954.652 1769.48 969.713 1772.06 984.988 1772.06C1000.26 1772.06 1015.32 1769.48 1028.95 1764.54C1041.07 1759.37 1047.2 1752.91 1047.13 1746.29L1024.33 1112.18C1023.83 1097.92 1032.12 1089.96 1042.87 1094.41L1062.27 1102.47C1082.48 1110.85 1106.43 1113.28 1129.09 1109.24C1151.74 1105.2 1171.31 1095 1183.67 1080.81L1213.1 1047.07C1215.63 1044.16 1216.45 1040.66 1215.38 1037.32C1214.3 1033.98 1211.42 1031.08 1207.36 1029.27C1203.31 1027.45 1198.41 1026.86 1193.75 1027.64C1189.09 1028.41 1185.05 1030.47 1182.52 1033.38V1033.38Z" fill="#37474F"/>
<path d="M1690.27 467.523C1724.81 360.848 1632.11 254.312 1483.21 229.566C1334.31 204.821 1185.6 271.237 1151.06 377.912C1116.52 484.586 1209.23 591.123 1358.13 615.868C1507.03 640.613 1655.73 574.197 1690.27 467.523Z" fill="#1055DB"/>
<path opacity="0.2" d="M1697.52 421.33V423.087C1697.58 453.765 1687.69 484.035 1668.65 511.513C1649.6 538.991 1621.92 562.928 1587.77 581.441C1553.63 599.954 1513.95 612.538 1471.86 618.203C1429.78 623.867 1386.43 622.458 1345.23 614.086C1304.04 605.714 1266.11 590.607 1234.45 569.955C1202.78 549.302 1178.24 523.667 1162.74 495.066C1147.25 466.465 1141.24 435.679 1145.17 405.13C1149.1 374.58 1162.87 345.101 1185.4 319.012C1173.05 366.033 1185.76 414.662 1221.01 455.299C1256.26 495.936 1311.5 525.627 1375.82 538.51C1440.14 551.393 1508.86 546.531 1568.42 524.884C1627.98 503.238 1674.04 466.38 1697.52 421.588V421.33Z" fill="black"/>
<path d="M1161.45 492.073C1174.4 516.942 1194.19 539.696 1219.64 558.985C1245.09 578.274 1275.68 593.706 1309.61 604.367C1343.54 615.027 1380.11 620.698 1417.16 621.043C1454.21 621.389 1490.97 616.403 1525.28 606.38C1517.55 579.028 1500.75 553.41 1476.3 531.686C1451.84 509.963 1420.46 492.772 1384.78 481.564C1349.11 470.356 1310.2 465.46 1271.33 467.289C1232.46 469.118 1194.77 477.619 1161.45 492.073V492.073Z" fill="#1055DB"/>
<path opacity="0.1" d="M1161.45 492.073C1174.4 516.942 1194.19 539.696 1219.64 558.985C1245.09 578.274 1275.68 593.706 1309.61 604.367C1343.54 615.027 1380.11 620.698 1417.16 621.043C1454.21 621.389 1490.97 616.403 1525.28 606.38C1517.55 579.028 1500.75 553.41 1476.3 531.686C1451.84 509.963 1420.46 492.772 1384.78 481.564C1349.11 470.356 1310.2 465.46 1271.33 467.289C1232.46 469.118 1194.77 477.619 1161.45 492.073V492.073Z" fill="black"/>
<path d="M1433.31 341.077C1458.92 341.077 1462.16 341.077 1472.05 341.49C1478.13 341.557 1484.15 342.36 1489.86 343.868C1493.99 345.015 1497.73 346.766 1500.86 349.008C1503.99 351.25 1506.44 353.934 1508.04 356.89C1510.11 360.966 1511.21 365.264 1511.28 369.602C1511.79 376.837 1511.86 379.007 1511.86 397.352C1511.86 415.697 1511.86 418.022 1511.28 425.102C1511.21 429.44 1510.11 433.737 1508.04 437.814C1506.44 440.77 1503.99 443.454 1500.86 445.696C1497.73 447.938 1493.99 449.688 1489.86 450.836C1484.15 452.344 1478.13 453.147 1472.05 453.213C1461.95 453.523 1458.92 453.627 1433.31 453.627C1407.71 453.627 1404.46 453.627 1394.65 453.213C1388.57 453.153 1382.54 452.349 1376.83 450.836C1372.69 449.708 1368.93 447.964 1365.8 445.72C1362.67 443.475 1360.23 440.781 1358.66 437.814C1356.55 433.742 1355.43 429.443 1355.34 425.102C1354.91 417.867 1354.83 415.697 1354.83 397.352C1354.83 379.007 1354.83 376.682 1355.34 369.602C1355.43 365.26 1356.55 360.962 1358.66 356.89C1360.23 353.923 1362.67 351.228 1365.8 348.984C1368.93 346.739 1372.69 344.996 1376.83 343.868C1382.54 342.354 1388.57 341.55 1394.65 341.49C1404.75 341.18 1407.78 341.077 1433.31 341.077ZM1433.31 328.727C1407.35 328.727 1404.46 328.727 1393.86 329.14C1385.89 329.242 1378.01 330.326 1370.56 332.344C1364.2 334.104 1358.43 336.797 1353.61 340.25C1348.79 343.703 1345.03 347.839 1342.57 352.394C1339.8 357.723 1338.28 363.347 1338.1 369.034C1337.67 376.372 1337.52 378.697 1337.52 397.352C1337.52 416.007 1337.52 418.332 1338.1 425.67C1338.28 431.357 1339.8 436.981 1342.57 442.31C1345.03 446.864 1348.79 451.001 1353.61 454.454C1358.43 457.907 1364.2 460.6 1370.56 462.36C1378.01 464.378 1385.89 465.462 1393.86 465.564C1404.1 465.874 1407.35 465.977 1433.31 465.977C1459.28 465.977 1462.6 465.977 1472.84 465.564C1480.78 465.463 1488.64 464.379 1496.07 462.36C1502.48 460.649 1508.29 457.95 1513.09 454.454C1517.93 451.013 1521.69 446.873 1524.12 442.31C1526.91 436.984 1528.39 431.356 1528.52 425.67C1529.03 418.332 1529.1 416.007 1529.1 397.352C1529.1 378.697 1529.1 376.372 1528.52 369.034C1528.39 363.348 1526.91 357.72 1524.12 352.394C1521.66 347.886 1517.9 343.801 1513.09 340.405C1508.29 336.909 1502.48 334.21 1496.07 332.499C1488.64 330.48 1480.78 329.396 1472.84 329.295C1462.6 328.985 1459.35 328.882 1433.31 328.882" fill="white"/>
<path d="M1433.31 362.109C1423.58 362.109 1414.06 364.179 1405.97 368.056C1397.87 371.933 1391.57 377.443 1387.85 383.889C1384.13 390.335 1383.17 397.426 1385.08 404.266C1386.99 411.105 1391.69 417.384 1398.58 422.309C1405.47 427.234 1414.25 430.582 1423.8 431.93C1433.36 433.278 1443.25 432.566 1452.24 429.882C1461.22 427.199 1468.9 422.666 1474.28 416.857C1479.67 411.047 1482.53 404.223 1482.51 397.249C1482.51 387.902 1477.32 378.938 1468.1 372.328C1458.87 365.719 1446.36 362.006 1433.31 362.006M1433.31 420.141C1426.99 420.141 1420.81 418.798 1415.56 416.283C1410.31 413.768 1406.21 410.192 1403.79 406.009C1401.37 401.826 1400.74 397.223 1401.97 392.783C1403.21 388.342 1406.25 384.263 1410.72 381.061C1415.19 377.86 1420.88 375.68 1427.08 374.796C1433.28 373.913 1439.7 374.366 1445.54 376.099C1451.38 377.832 1456.37 380.766 1459.88 384.53C1463.39 388.295 1465.27 392.721 1465.27 397.249C1465.27 403.32 1461.9 409.143 1455.91 413.436C1449.91 417.729 1441.79 420.141 1433.31 420.141Z" fill="white"/>
<path d="M1495.99 360.714C1496.01 362.351 1495.34 363.955 1494.08 365.321C1492.82 366.687 1491.03 367.755 1488.92 368.389C1486.81 369.023 1484.49 369.194 1482.25 368.881C1480 368.568 1477.94 367.784 1476.32 366.63C1474.7 365.476 1473.59 364.003 1473.14 362.397C1472.69 360.792 1472.91 359.127 1473.78 357.613C1474.66 356.099 1476.13 354.805 1478.03 353.894C1479.93 352.983 1482.17 352.497 1484.45 352.497C1487.5 352.497 1490.43 353.361 1492.59 354.9C1494.75 356.44 1495.97 358.53 1495.99 360.714Z" fill="white"/>
<path d="M1805.32 757.25C1828.17 676.062 1754.82 596.975 1641.5 580.604C1528.17 564.234 1417.78 616.779 1394.93 697.967C1372.08 779.156 1445.43 858.243 1558.75 874.613C1672.07 890.983 1782.47 838.438 1805.32 757.25Z" fill="#1055DB"/>
<path d="M1809.61 726.629V727.973C1809.52 751.105 1801.95 773.908 1787.51 794.596C1773.06 815.284 1752.12 833.294 1726.34 847.217C1700.55 861.14 1670.62 870.598 1638.88 874.849C1607.14 879.1 1574.46 878.03 1543.39 871.721C1512.33 865.413 1483.72 854.037 1459.82 838.487C1435.91 822.936 1417.36 803.631 1405.61 782.086C1393.86 760.54 1389.23 737.337 1392.08 714.295C1394.93 691.253 1405.19 668.997 1422.06 649.271C1419.15 659.248 1417.68 669.412 1417.66 679.604C1417.67 713.738 1434.57 746.764 1465.34 772.822C1496.11 798.879 1538.78 816.284 1585.76 821.945C1632.75 827.607 1681.01 821.16 1721.99 803.749C1762.97 786.337 1794.01 759.088 1809.61 726.836V726.629Z" fill="#1055DB"/>
<path opacity="0.1" d="M1809.61 726.629V727.973C1809.52 751.105 1801.95 773.908 1787.51 794.596C1773.06 815.284 1752.12 833.294 1726.34 847.217C1700.55 861.14 1670.62 870.598 1638.88 874.849C1607.14 879.1 1574.46 878.03 1543.39 871.721C1512.33 865.413 1483.72 854.037 1459.82 838.487C1435.91 822.936 1417.36 803.631 1405.61 782.086C1393.86 760.54 1389.23 737.337 1392.08 714.295C1394.93 691.253 1405.19 668.997 1422.06 649.271C1419.15 659.248 1417.68 669.412 1417.66 679.604C1417.67 713.738 1434.57 746.764 1465.34 772.822C1496.11 798.879 1538.78 816.284 1585.76 821.945C1632.75 827.607 1681.01 821.16 1721.99 803.749C1762.97 786.337 1794.01 759.088 1809.61 726.836V726.629Z" fill="black"/>
<path d="M1391.04 727.972C1391.14 766.528 1412.05 803.561 1449.4 831.324C1496.08 803.585 1526.56 764.329 1534.85 721.288C1543.14 678.247 1528.64 634.543 1494.19 598.783C1462.78 612.016 1436.74 630.896 1418.65 653.556C1400.56 676.216 1391.04 701.868 1391.04 727.972V727.972Z" fill="#1055DB"/>
<path opacity="0.1" d="M1391.04 727.972C1391.14 766.528 1412.05 803.561 1449.4 831.324C1496.08 803.585 1526.56 764.329 1534.85 721.288C1543.14 678.247 1528.64 634.543 1494.19 598.783C1462.78 612.016 1436.74 630.896 1418.65 653.556C1400.56 676.216 1391.04 701.868 1391.04 727.972V727.972Z" fill="black"/>
<path d="M1681.01 678.209C1660.88 677.744 1647.32 685.909 1640.18 702.6C1643.54 701.513 1647.17 700.932 1650.86 700.895C1658.07 700.895 1661.53 703.892 1660.67 709.835C1658.98 715.445 1655.64 720.732 1650.86 725.338C1644.8 732.21 1640.25 735.673 1637.22 735.673C1634.19 735.673 1630.01 730.505 1626.48 719.808C1625.39 716.708 1623.45 708.75 1620.63 696.037C1618.04 684.221 1611.09 678.692 1599.79 679.449C1591.55 681.122 1584.09 684.332 1578.15 688.751C1570.94 693.247 1564.16 697.794 1557.02 702.29L1563.87 708.595C1567.27 706.481 1571.08 704.74 1575.19 703.427C1580.17 703.427 1584.86 709.008 1589.19 720.222L1600.87 750.917C1606.74 762.148 1613.95 767.746 1622.51 767.712C1636.21 767.712 1652.9 758.53 1672.57 740.168C1691.8 722.599 1701.66 708.818 1702.14 698.828C1702.91 685.461 1695.87 678.588 1681.01 678.209Z" fill="white"/>
<path d="M897.17 478.173C1059.22 478.173 1190.59 384.055 1190.59 267.956C1190.59 151.856 1059.22 57.7393 897.17 57.7393C735.116 57.7393 603.745 151.856 603.745 267.956C603.745 384.055 735.116 478.173 897.17 478.173Z" fill="#1055DB"/>
<path opacity="0.5" d="M1190.52 266.405V268.059C1190.5 300.55 1179.96 332.596 1159.74 361.679C1139.52 390.762 1110.17 416.091 1073.98 435.678C1037.79 455.264 995.765 468.575 951.19 474.565C906.615 480.555 860.709 479.061 817.076 470.2C773.443 461.339 733.271 445.353 699.713 423.496C666.156 401.64 640.127 374.508 623.671 344.231C607.214 313.954 600.778 281.356 604.867 248.997C608.956 216.638 623.46 185.399 647.238 157.731C643.08 171.712 640.976 185.966 640.963 200.261C640.944 248.135 664.611 294.465 707.761 331.021C750.912 367.577 810.751 391.993 876.651 399.931C942.55 407.868 1010.24 398.815 1067.71 374.378C1125.17 349.942 1168.69 311.704 1190.52 266.457V266.405Z" fill="#1055DB"/>
<path opacity="0.1" d="M1190.52 266.405V268.059C1190.5 300.55 1179.96 332.596 1159.74 361.679C1139.52 390.762 1110.17 416.091 1073.98 435.678C1037.79 455.264 995.765 468.575 951.19 474.565C906.615 480.555 860.709 479.061 817.076 470.2C773.443 461.339 733.271 445.353 699.713 423.496C666.156 401.64 640.127 374.508 623.671 344.231C607.214 313.954 600.778 281.356 604.867 248.997C608.956 216.638 623.46 185.399 647.238 157.731C643.08 171.712 640.976 185.966 640.963 200.261C640.944 248.135 664.611 294.465 707.761 331.021C750.912 367.577 810.751 391.993 876.651 399.931C942.55 407.868 1010.24 398.815 1067.71 374.378C1125.17 349.942 1168.69 311.704 1190.52 266.457V266.405Z" fill="black"/>
<path d="M1144.07 381.746C1125.23 354.504 1094.08 332.629 1055.69 319.676C1017.3 306.723 973.926 303.453 932.613 310.399C891.3 317.345 854.481 334.098 828.142 357.934C801.802 381.77 787.49 411.288 787.532 441.69C787.539 449.154 788.432 456.605 790.201 463.962C853.352 481.719 923.147 483.23 987.679 468.237C1052.21 453.244 1107.49 422.676 1144.07 381.746V381.746Z" fill="#1055DB"/>
<path opacity="0.1" d="M1144.07 381.746C1125.23 354.504 1094.08 332.629 1055.69 319.676C1017.3 306.723 973.926 303.453 932.613 310.399C891.3 317.345 854.481 334.098 828.142 357.934C801.802 381.77 787.49 411.288 787.532 441.69C787.539 449.154 788.432 456.605 790.201 463.962C853.352 481.719 923.147 483.23 987.679 468.237C1052.21 453.244 1107.49 422.676 1144.07 381.746V381.746Z" fill="black"/>
<path d="M874.161 293.536H916.717V217.211H946.363L949.536 191.683H916.717V177.162C916.717 171.116 918.376 168.739 926.527 168.739H949.536V142.229H920.107C888.442 142.229 874.161 152.203 874.161 171.323V191.683H852.089V217.521H874.161V293.536Z" fill="white"/>
<path d="M778.829 560.395C805.266 442.15 692.898 330.939 527.849 312C362.8 293.06 207.57 373.563 181.133 491.808C154.697 610.053 267.064 721.264 432.114 740.204C597.163 759.144 752.393 678.641 778.829 560.395Z" fill="#1055DB"/>
<path opacity="0.7" d="M782.483 524.474V526.128C782.658 559.747 771.93 592.936 751.143 623.077C730.356 653.218 700.08 679.487 662.702 699.814C625.324 720.14 581.866 733.967 535.754 740.206C489.643 746.444 442.139 744.923 396.988 735.762C351.838 726.601 310.275 710.05 275.577 687.416C240.88 664.781 213.996 636.681 197.046 605.331C180.096 573.982 173.544 540.24 177.905 506.766C182.266 473.292 197.422 441.002 222.178 412.441C217.879 426.863 215.704 441.567 215.686 456.314C215.665 505.689 240.072 553.471 284.571 591.175C329.071 628.878 390.782 654.062 458.746 662.253C526.709 670.445 596.526 661.114 655.796 635.918C715.065 610.722 759.952 571.291 782.483 524.629V524.474Z" fill="#1055DB"/>
<path opacity="0.1" d="M782.483 524.474V526.128C782.658 559.747 771.93 592.936 751.143 623.077C730.356 653.218 700.08 679.487 662.702 699.814C625.324 720.14 581.866 733.967 535.754 740.206C489.643 746.444 442.139 744.923 396.988 735.762C351.838 726.601 310.275 710.05 275.577 687.416C240.88 664.781 213.996 636.681 197.046 605.331C180.096 573.982 173.544 540.24 177.905 506.766C182.266 473.292 197.422 441.002 222.178 412.441C217.879 426.863 215.704 441.567 215.686 456.314C215.665 505.689 240.072 553.471 284.571 591.175C329.071 628.878 390.782 654.062 458.746 662.253C526.709 670.445 596.526 661.114 655.796 635.918C715.065 610.722 759.952 571.291 782.483 524.629V524.474Z" fill="black"/>
<path d="M340.471 599.197C294.92 599.231 251.089 611.662 217.85 633.975C247.628 671.365 292.324 701.527 346.201 720.587C400.078 739.647 460.677 746.736 520.218 740.944C520.795 736.81 521.084 732.572 521.084 728.335C521.075 711.357 516.394 694.546 507.309 678.864C498.225 663.183 484.915 648.938 468.141 636.945C451.366 624.951 431.457 615.444 409.55 608.967C387.643 602.49 364.169 599.17 340.471 599.197V599.197Z" fill="#1055DB"/>
<path opacity="0.1" d="M340.471 599.197C294.92 599.231 251.089 611.662 217.85 633.975C247.628 671.365 292.324 701.527 346.201 720.587C400.078 739.647 460.677 746.736 520.218 740.944C520.795 736.81 521.084 732.572 521.084 728.335C521.075 711.357 516.394 694.546 507.309 678.864C498.225 663.183 484.915 648.938 468.141 636.945C451.366 624.951 431.457 615.444 409.55 608.967C387.643 602.49 364.169 599.17 340.471 599.197V599.197Z" fill="black"/>
<path d="M782.483 528.608C749.498 530.198 717.416 537.009 688.546 548.549C659.676 560.089 634.738 576.072 615.526 595.346C596.313 614.621 583.306 636.708 577.44 660.016C571.574 683.325 572.995 707.276 581.601 730.144C639.775 715.235 690.196 687.939 726.101 651.917C762.006 615.895 781.68 572.869 782.483 528.608V528.608Z" fill="#1055DB"/>
<path opacity="0.1" d="M782.483 528.608C749.498 530.198 717.416 537.009 688.546 548.549C659.676 560.089 634.738 576.072 615.526 595.346C596.313 614.621 583.306 636.708 577.44 660.016C571.574 683.325 572.995 707.276 581.601 730.144C639.775 715.235 690.196 687.939 726.101 651.917C762.006 615.895 781.68 572.869 782.483 528.608V528.608Z" fill="black"/>
<path d="M386.851 550.725C403.62 558.424 423.022 562.672 442.934 563.004C462.846 563.336 482.503 559.74 499.754 552.608C517.006 545.476 531.188 535.083 540.751 522.566C550.314 510.049 554.889 495.889 553.976 481.634C561.432 477.75 567.877 472.958 573.018 467.475C566.147 469.677 558.852 471.123 551.379 471.764C559.356 468.355 565.31 462.968 568.113 456.623C560.629 459.826 552.431 462.081 543.878 463.29C538.1 458.963 530.503 456.111 522.249 455.172C513.995 454.233 505.539 455.257 498.175 458.089C490.81 460.92 484.944 465.402 481.474 470.849C478.004 476.296 477.121 482.408 478.961 488.249C463.778 487.714 448.922 484.892 435.363 479.968C421.804 475.044 409.846 468.129 400.267 459.672C395.392 465.695 393.894 472.819 396.077 479.603C398.26 486.386 403.961 492.322 412.024 496.207C405.953 496.049 400.02 494.863 394.713 492.745C394.617 499.122 397.625 505.323 403.22 510.284C408.814 515.244 416.646 518.653 425.368 519.926C419.751 521.042 413.847 521.202 408.129 520.391C410.557 525.838 415.307 530.602 421.712 534.013C428.117 537.425 435.853 539.311 443.833 539.408C435.854 543.903 426.708 547.217 416.926 549.16C407.144 551.103 396.921 551.635 386.851 550.725V550.725Z" fill="white"/>
<path d="M740.171 1035.22C832.93 968.764 832.93 861.019 740.171 794.565C647.412 728.11 497.02 728.11 404.261 794.565C311.503 861.019 311.503 968.764 404.261 1035.22C497.02 1101.67 647.412 1101.67 740.171 1035.22Z" fill="#1055DB"/>
<path opacity="0.3" d="M605.477 746.421C604.146 753.582 603.471 760.797 603.457 768.021C603.426 792.566 611.113 816.799 625.948 838.923C640.783 861.047 662.384 880.493 689.148 895.815C676.17 907.148 666.436 920.201 660.5 934.229C654.564 948.257 652.543 962.986 654.552 977.573C656.562 992.161 662.562 1006.32 672.211 1019.25C681.859 1032.17 694.968 1043.61 710.787 1052.91C749.235 1033.08 778.525 1005.47 794.892 973.617C811.259 941.767 813.954 907.138 802.63 874.182C791.306 841.226 766.482 811.45 731.348 788.682C696.215 765.915 652.379 751.197 605.477 746.421V746.421Z" fill="#1055DB"/>
<path opacity="0.1" d="M605.477 746.421C604.146 753.582 603.471 760.797 603.457 768.021C603.426 792.566 611.113 816.799 625.948 838.923C640.783 861.047 662.384 880.493 689.148 895.815C676.17 907.148 666.436 920.201 660.5 934.229C654.564 948.257 652.543 962.986 654.552 977.573C656.562 992.161 662.562 1006.32 672.211 1019.25C681.859 1032.17 694.968 1043.61 710.787 1052.91C749.235 1033.08 778.525 1005.47 794.892 973.617C811.259 941.767 813.954 907.138 802.63 874.182C791.306 841.226 766.482 811.45 731.348 788.682C696.215 765.915 652.379 751.197 605.477 746.421V746.421Z" fill="black"/>
<path d="M809.676 913.592V914.883C809.607 941.163 801.044 967.073 784.656 990.585C768.269 1014.1 744.504 1034.57 715.224 1050.4C685.943 1066.23 651.944 1076.98 615.89 1081.82C579.836 1086.66 542.707 1085.45 507.415 1078.29C472.122 1071.13 439.625 1058.2 412.47 1040.54C385.315 1022.87 364.241 1000.94 350.899 976.458C337.556 951.979 332.309 925.618 335.568 899.443C338.828 873.268 350.504 847.989 369.684 825.588C357.095 866.509 366.867 909.331 396.991 945.25C427.115 981.169 475.302 1007.45 531.645 1018.7C587.987 1029.95 648.205 1025.31 699.918 1005.73C751.63 986.153 790.908 953.124 809.676 913.437V913.592Z" fill="#1055DB"/>
<path d="M809.676 913.592V914.883C809.607 941.163 801.044 967.073 784.656 990.585C768.269 1014.1 744.504 1034.57 715.224 1050.4C685.943 1066.23 651.944 1076.98 615.89 1081.82C579.836 1086.66 542.707 1085.45 507.415 1078.29C472.122 1071.13 439.625 1058.2 412.47 1040.54C385.315 1022.87 364.241 1000.94 350.899 976.458C337.556 951.979 332.309 925.618 335.568 899.443C338.828 873.268 350.504 847.989 369.684 825.588C357.095 866.509 366.867 909.331 396.991 945.25C427.115 981.169 475.302 1007.45 531.645 1018.7C587.987 1029.95 648.205 1025.31 699.918 1005.73C751.63 986.153 790.908 953.124 809.676 913.437V913.592Z" fill="#1055DB"/>
<g opacity="0.1">
<path d="M809.676 913.592V914.883C809.607 941.163 801.044 967.073 784.656 990.585C768.269 1014.1 744.504 1034.57 715.224 1050.4C685.943 1066.23 651.944 1076.98 615.89 1081.82C579.836 1086.66 542.707 1085.45 507.415 1078.29C472.122 1071.13 439.625 1058.2 412.47 1040.54C385.315 1022.87 364.241 1000.94 350.899 976.458C337.556 951.979 332.309 925.618 335.568 899.443C338.828 873.268 350.504 847.989 369.684 825.588C357.095 866.509 366.867 909.331 396.991 945.25C427.115 981.169 475.302 1007.45 531.645 1018.7C587.987 1029.95 648.205 1025.31 699.918 1005.73C751.63 986.153 790.908 953.124 809.676 913.437V913.592Z" fill="black"/>
<path d="M809.676 913.592V914.883C809.607 941.163 801.044 967.073 784.656 990.585C768.269 1014.1 744.504 1034.57 715.224 1050.4C685.943 1066.23 651.944 1076.98 615.89 1081.82C579.836 1086.66 542.707 1085.45 507.415 1078.29C472.122 1071.13 439.625 1058.2 412.47 1040.54C385.315 1022.87 364.241 1000.94 350.899 976.458C337.556 951.979 332.309 925.618 335.568 899.443C338.828 873.268 350.504 847.989 369.684 825.588C357.095 866.509 366.867 909.331 396.991 945.25C427.115 981.169 475.302 1007.45 531.645 1018.7C587.987 1029.95 648.205 1025.31 699.918 1005.73C751.63 986.153 790.908 953.124 809.676 913.437V913.592Z" fill="black"/>
</g>
<path d="M528.514 943.926C533.005 943.293 537.243 941.952 540.92 939.998C544.872 937.774 548.063 934.932 550.25 931.691C552.437 928.449 553.564 924.892 553.543 921.292C553.705 917.237 552.227 913.235 549.287 909.768C546.251 906.511 541.783 904.073 536.592 902.844C539.764 901.773 542.607 900.262 544.959 898.399C548.512 895.095 550.303 890.99 550.009 886.824C550.166 882.551 548.423 878.352 545.032 874.835C541.553 871.932 537.165 869.66 532.225 868.205C527.286 866.75 521.935 866.153 516.612 866.464H463.669V945.011H513.006C518.214 945.037 523.411 944.673 528.514 943.926V943.926ZM485.236 880.106H509.039C513.431 880.018 517.815 880.437 522.022 881.346C523.949 881.945 525.556 882.972 526.608 884.274C527.659 885.576 528.1 887.086 527.865 888.581C528.069 889.912 527.768 891.258 526.993 892.477C526.219 893.695 525 894.742 523.465 895.506C519.906 896.884 515.893 897.545 511.852 897.418H485.236V880.106ZM485.236 931.369V910.44H512.212C515.928 910.334 519.634 910.774 523.104 911.732C525.392 912.412 527.321 913.593 528.616 915.106C529.911 916.619 530.507 918.386 530.317 920.155C530.627 922.121 530.105 924.108 528.819 925.859C527.532 927.61 525.541 929.043 523.104 929.973C519.616 931.021 515.846 931.498 512.068 931.369H485.236Z" fill="white"/>
<path d="M572.08 939.843C580.208 944.602 590.437 947.13 600.932 946.974C606.557 947.207 612.186 946.57 617.438 945.108C622.689 943.646 627.441 941.392 631.37 938.499C635.475 935.75 638.232 932.125 639.233 928.164H617.594C616.127 930.298 613.808 932.072 610.931 933.259C608.054 934.446 604.749 934.993 601.437 934.83C597.322 934.924 593.26 934.151 589.752 932.608C586.979 931.266 584.739 929.433 583.247 927.287C581.756 925.141 581.064 922.755 581.24 920.361H640.315C640.48 916.512 640.239 912.66 639.593 908.837C638.741 904.546 636.546 900.448 633.174 896.849C629.738 893.078 624.853 890.099 619.108 888.27C613.105 886.397 606.613 885.464 600.066 885.532C594.745 885.403 589.443 886.051 584.483 887.437C579.523 888.823 575.008 890.917 571.214 893.593C567.298 896.725 564.297 900.387 562.389 904.363C560.481 908.339 559.705 912.549 560.106 916.744C559.544 920.991 560.329 925.275 562.402 929.275C564.476 933.275 567.784 936.888 572.08 939.843V939.843ZM587.227 901.241C588.9 900.097 590.885 899.213 593.057 898.644C595.229 898.075 597.541 897.833 599.85 897.934C604.446 897.824 608.938 898.927 612.472 901.034C614.23 902.215 615.634 903.639 616.601 905.22C617.568 906.801 618.078 908.507 618.099 910.233H581.601C582.024 906.87 584.005 903.705 587.227 901.241V901.241Z" fill="white"/>
<path d="M622.283 871.011H574.677V878.917H622.283V871.011Z" fill="white"/>
<path d="M1228.82 833.65C1362.83 833.65 1471.47 755.82 1471.47 659.813C1471.47 563.805 1362.83 485.976 1228.82 485.976C1094.81 485.976 986.178 563.805 986.178 659.813C986.178 755.82 1094.81 833.65 1228.82 833.65Z" fill="#1055DB"/>
<path opacity="0.2" d="M1471.4 658.521V659.813C1471.38 686.684 1462.67 713.188 1445.95 737.241C1429.23 761.295 1404.95 782.243 1375.02 798.442C1345.1 814.641 1310.34 825.65 1273.47 830.602C1236.61 835.555 1198.64 834.317 1162.56 826.987C1126.47 819.656 1093.25 806.432 1065.5 788.353C1037.75 770.274 1016.23 747.832 1002.63 722.79C989.023 697.748 983.708 670.788 987.099 644.027C990.49 617.265 1002.49 591.431 1022.17 568.554C1018.75 580.124 1017.01 591.917 1016.98 603.745C1016.96 643.331 1036.53 681.64 1072.2 711.868C1107.88 742.097 1157.35 762.288 1211.84 768.856C1266.33 775.424 1322.31 767.944 1369.82 747.744C1417.34 727.544 1453.33 695.931 1471.4 658.521V658.521Z" fill="black"/>
<path d="M1020.29 570.931C990.164 607.204 979.492 650.095 990.269 691.593C1001.05 733.092 1032.54 770.361 1078.86 796.443C1096.12 778.989 1108.32 759.229 1114.72 738.337C1121.13 717.444 1121.61 695.843 1116.15 674.813C1110.69 653.783 1099.39 633.753 1082.93 615.909C1066.46 598.065 1045.16 582.77 1020.29 570.931V570.931Z" fill="#1055DB"/>
<path opacity="0.1" d="M1020.29 570.931C990.164 607.204 979.492 650.095 990.269 691.593C1001.05 733.092 1032.54 770.361 1078.86 796.443C1096.12 778.989 1108.32 759.229 1114.72 738.337C1121.13 717.444 1121.61 695.843 1116.15 674.813C1110.69 653.783 1099.39 633.753 1082.93 615.909C1066.46 598.065 1045.16 582.77 1020.29 570.931V570.931Z" fill="#1055DB"/>
<g opacity="0.1">
<path d="M1020.29 570.932C990.164 607.205 979.492 650.096 990.269 691.594C1001.05 733.093 1032.54 770.362 1078.86 796.444C1096.12 778.99 1108.32 759.23 1114.72 738.338C1121.13 717.445 1121.61 695.844 1116.15 674.814C1110.69 653.784 1099.39 633.754 1082.93 615.91C1066.46 598.065 1045.16 582.771 1020.29 570.932V570.932Z" fill="black"/>
<path opacity="0.1" d="M1020.29 570.932C990.164 607.205 979.492 650.096 990.269 691.594C1001.05 733.093 1032.54 770.362 1078.86 796.444C1096.12 778.99 1108.32 759.23 1114.72 738.338C1121.13 717.445 1121.61 695.844 1116.15 674.814C1110.69 653.784 1099.39 633.754 1082.93 615.91C1066.46 598.065 1045.16 582.771 1020.29 570.932V570.932Z" fill="black"/>
</g>
<path d="M1200.91 655.11C1201.49 655.33 1202.13 655.448 1202.78 655.455C1203.43 655.462 1204.08 655.358 1204.66 655.151C1205.25 654.944 1205.75 654.64 1206.14 654.265C1206.53 653.889 1206.79 653.453 1206.9 652.992C1207.47 651.493 1208.77 647.824 1209.35 646.119C1209.81 645.298 1209.89 644.393 1209.58 643.538C1209.26 642.682 1208.58 641.92 1207.62 641.365C1202.21 636.669 1199.41 630.706 1199.76 624.622C1199.66 619.134 1201.13 613.69 1204.07 608.621C1207.01 603.553 1211.35 598.967 1216.85 595.142C1222.34 591.317 1228.87 588.334 1236.02 586.375C1243.18 584.416 1250.82 583.521 1258.47 583.746C1290.42 583.746 1308.02 597.75 1308.02 616.457C1308.02 641.106 1292.8 661.88 1270.23 661.88C1267.34 661.985 1264.45 661.602 1261.81 660.762C1259.17 659.922 1256.83 658.649 1255 657.045C1253.17 655.441 1251.89 653.551 1251.26 651.527C1250.64 649.504 1250.69 647.404 1251.4 645.395C1255.01 634.595 1261.93 622.917 1261.93 615.113C1262.21 613.492 1262 611.847 1261.32 610.289C1260.63 608.73 1259.49 607.295 1257.96 606.081C1256.44 604.866 1254.57 603.9 1252.48 603.247C1250.39 602.594 1248.13 602.271 1245.85 602.298C1233.15 602.298 1222.91 611.755 1222.91 624.415C1222.83 629.055 1224.13 633.654 1226.73 637.902L1211.37 684.411C1208.66 695.116 1208.54 706.076 1211.01 716.811C1211.06 717.029 1211.2 717.231 1211.4 717.394C1211.61 717.556 1211.88 717.672 1212.18 717.727C1212.48 717.781 1212.79 717.773 1213.08 717.702C1213.37 717.631 1213.63 717.501 1213.82 717.328C1223.3 709.005 1230.62 699.538 1235.46 689.371C1236.9 685.599 1243.83 665.911 1243.83 665.911C1247.02 669.269 1251.33 672.002 1256.36 673.861C1261.4 675.72 1267.01 676.647 1272.68 676.556C1311.05 676.556 1337.02 651.545 1337.02 618.059C1337.02 592.686 1307.09 569.122 1261.57 569.122C1204.95 569.122 1176.39 598.216 1176.39 622.451C1176.53 637.179 1184.32 650.46 1200.91 655.11Z" fill="white"/>
<path d="M1481.09 1044.72C1562.84 986.16 1562.84 891.209 1481.09 832.645C1399.35 774.081 1266.81 774.081 1185.07 832.645C1103.32 891.209 1103.33 986.16 1185.07 1044.72C1266.82 1103.29 1399.35 1103.29 1481.09 1044.72Z" fill="#1055DB"/>
<path d="M1542.3 937.57V938.707C1542.21 961.839 1534.64 984.642 1520.19 1005.33C1505.75 1026.02 1484.81 1044.03 1459.02 1057.95C1433.24 1071.87 1403.3 1081.33 1371.57 1085.58C1339.83 1089.83 1307.14 1088.76 1276.08 1082.46C1245.01 1076.15 1216.41 1064.77 1192.51 1049.22C1168.6 1033.67 1150.05 1014.37 1138.29 992.82C1126.54 971.274 1121.91 948.071 1124.77 925.029C1127.62 901.987 1137.88 879.731 1154.75 860.005C1151.78 869.976 1150.28 880.143 1150.27 890.338C1150.24 924.498 1167.11 957.561 1197.89 983.65C1228.67 1009.74 1271.36 1027.16 1318.38 1032.83C1365.4 1038.49 1413.7 1032.03 1454.7 1014.59C1495.7 997.15 1526.74 969.859 1542.3 937.57V937.57Z" fill="#1055DB"/>
<path opacity="0.2" d="M1542.3 937.57V938.707C1542.21 961.839 1534.64 984.642 1520.19 1005.33C1505.75 1026.02 1484.81 1044.03 1459.02 1057.95C1433.24 1071.87 1403.3 1081.33 1371.57 1085.58C1339.83 1089.83 1307.14 1088.76 1276.08 1082.46C1245.01 1076.15 1216.41 1064.77 1192.51 1049.22C1168.6 1033.67 1150.05 1014.37 1138.29 992.82C1126.54 971.274 1121.91 948.071 1124.77 925.029C1127.62 901.987 1137.88 879.731 1154.75 860.005C1151.78 869.976 1150.28 880.143 1150.27 890.338C1150.24 924.498 1167.11 957.561 1197.89 983.65C1228.67 1009.74 1271.36 1027.16 1318.38 1032.83C1365.4 1038.49 1413.7 1032.03 1454.7 1014.59C1495.7 997.15 1526.74 969.859 1542.3 937.57V937.57Z" fill="black"/>
<path d="M1123.66 938.706C1123.5 968.816 1136.08 998.253 1159.72 1023.14C1189.65 1016.9 1216.67 1005 1237.97 988.696C1259.26 972.391 1274.04 952.281 1280.76 930.476C1287.47 908.671 1285.87 885.973 1276.12 864.764C1266.37 843.554 1248.84 824.614 1225.36 809.931C1194.3 823.256 1168.61 842.127 1150.78 864.699C1132.95 887.271 1123.61 912.772 1123.66 938.706V938.706Z" fill="#1055DB"/>
<path opacity="0.1" d="M1123.66 938.706C1123.5 968.816 1136.08 998.253 1159.72 1023.14C1189.65 1016.9 1216.67 1005 1237.97 988.696C1259.26 972.391 1274.04 952.281 1280.76 930.476C1287.47 908.671 1285.87 885.973 1276.12 864.764C1266.37 843.554 1248.84 824.614 1225.36 809.931C1194.3 823.256 1168.61 842.127 1150.78 864.699C1132.95 887.271 1123.61 912.772 1123.66 938.706V938.706Z" fill="black"/>
<path d="M1346.76 905.893H1318.55V971.211H1346.76V905.893Z" fill="white"/>
<path d="M1332.47 897.366C1335.8 897.386 1339.07 896.697 1341.85 895.387C1344.63 894.076 1346.81 892.203 1348.1 890.005C1349.4 887.807 1349.75 885.383 1349.12 883.04C1348.49 880.698 1346.9 878.543 1344.55 876.849C1342.21 875.154 1339.21 873.997 1335.95 873.524C1332.69 873.051 1329.3 873.284 1326.22 874.192C1323.14 875.1 1320.51 876.643 1318.66 878.625C1316.8 880.607 1315.81 882.939 1315.81 885.325C1315.81 888.501 1317.56 891.548 1320.68 893.803C1323.8 896.058 1328.04 897.338 1332.47 897.366V897.366Z" fill="white"/>
<path d="M1391.69 936.95C1391.69 927.751 1397.61 922.274 1408.93 922.274C1420.26 922.274 1424.22 927.441 1424.22 936.95V971.211H1452.35V929.87C1452.35 912.404 1438.5 904.032 1419.17 904.032C1413.68 903.979 1408.26 904.946 1403.45 906.839C1398.63 908.732 1394.58 911.486 1391.69 914.833V905.996H1364.64V971.314H1391.69V936.95Z" fill="white"/>
<path d="M1093.94 1004.08C1183.89 1004.08 1256.81 951.835 1256.81 887.393C1256.81 822.95 1183.89 770.709 1093.94 770.709C1003.99 770.709 931.071 822.95 931.071 887.393C931.071 951.835 1003.99 1004.08 1093.94 1004.08Z" fill="#1055DB"/>
<path d="M1256.81 886.514V887.393C1256.79 905.426 1250.94 923.211 1239.72 939.351C1228.49 955.491 1212.2 969.548 1192.11 980.418C1172.03 991.288 1148.7 998.675 1123.96 1002C1099.22 1005.32 1073.75 1004.49 1049.53 999.576C1025.31 994.659 1003.02 985.787 984.39 973.658C965.764 961.528 951.316 946.471 942.179 929.668C933.043 912.865 929.467 894.774 931.732 876.814C933.997 858.854 942.042 841.515 955.235 826.157C952.933 833.921 951.773 841.836 951.773 849.773C951.846 876.313 965.026 901.978 988.979 922.223C1012.93 942.468 1046.11 955.988 1082.64 960.388C1119.18 964.789 1156.7 959.785 1188.58 946.265C1220.46 932.744 1244.63 911.578 1256.81 886.514V886.514Z" fill="#1055DB"/>
<path opacity="0.2" d="M1256.81 886.514V887.393C1256.79 905.426 1250.94 923.211 1239.72 939.351C1228.49 955.491 1212.2 969.548 1192.11 980.418C1172.03 991.288 1148.7 998.675 1123.96 1002C1099.22 1005.32 1073.75 1004.49 1049.53 999.576C1025.31 994.659 1003.02 985.787 984.39 973.658C965.764 961.528 951.316 946.471 942.179 929.668C933.043 912.865 929.467 894.774 931.732 876.814C933.997 858.854 942.042 841.515 955.235 826.157C952.933 833.921 951.773 841.836 951.773 849.773C951.846 876.313 965.026 901.978 988.979 922.223C1012.93 942.468 1046.11 955.988 1082.64 960.388C1119.18 964.789 1156.7 959.785 1188.58 946.265C1220.46 932.744 1244.63 911.578 1256.81 886.514V886.514Z" fill="black"/>
<path d="M1015.68 848.067L1054.85 865.895L1093.94 848.067L1054.85 830.188L1015.68 848.067Z" fill="white"/>
<path d="M1093.87 848.067L1133.03 865.895L1172.2 848.067L1133.03 830.188L1093.87 848.067Z" fill="white"/>
<path d="M1015.68 883.517L1054.85 901.396L1093.94 883.517L1054.85 865.637L1015.68 883.517Z" fill="white"/>
<path d="M1133.03 865.637L1093.87 883.517L1133.03 901.396L1172.2 883.517L1133.03 865.637Z" fill="white"/>
<path d="M1055.06 907.287L1094.23 925.167L1133.32 907.287L1094.23 889.459L1055.06 907.287Z" fill="white"/>
<path d="M1002.73 827.211C1089.94 764.731 1089.94 663.433 1002.73 600.953C915.518 538.474 774.124 538.474 686.914 600.954C599.704 663.433 599.704 764.731 686.914 827.211C774.124 889.69 915.518 889.69 1002.73 827.211Z" fill="#1055DB"/>
<path opacity="0.7" d="M1068.12 712.884V714.073C1068.26 738.896 1060.35 763.403 1045.01 785.661C1029.67 807.918 1007.32 827.317 979.721 842.327C952.124 857.337 920.035 867.546 885.988 872.15C851.94 876.754 816.865 875.626 783.53 868.856C750.195 862.085 719.512 849.857 693.902 833.137C668.293 816.416 648.458 795.661 635.962 772.508C623.466 749.356 618.651 724.439 621.898 699.725C625.144 675.011 636.363 651.176 654.669 630.1C643.154 668.468 652.514 708.538 680.838 742.13C709.161 775.722 754.313 800.302 807.075 810.854C859.837 821.405 916.231 817.131 964.744 798.905C1013.26 780.679 1050.23 749.875 1068.12 712.781V712.884Z" fill="#1055DB"/>
<g opacity="0.1">
<path opacity="0.7" d="M1068.12 712.884V714.073C1068.26 738.896 1060.35 763.403 1045.01 785.661C1029.67 807.918 1007.32 827.317 979.721 842.327C952.124 857.337 920.035 867.546 885.988 872.15C851.94 876.754 816.865 875.626 783.53 868.856C750.195 862.085 719.512 849.857 693.902 833.137C668.293 816.416 648.458 795.661 635.962 772.508C623.466 749.356 618.651 724.439 621.898 699.725C625.144 675.011 636.363 651.176 654.669 630.1C643.154 668.468 652.514 708.538 680.838 742.13C709.161 775.722 754.313 800.302 807.075 810.854C859.837 821.405 916.231 817.131 964.744 798.905C1013.26 780.679 1050.23 749.875 1068.12 712.781V712.884Z" fill="black"/>
</g>
<path d="M849.852 632.373C829.64 632.332 809.864 636.589 793.03 644.605C776.196 652.62 763.06 664.034 755.285 677.401C747.511 690.767 745.447 705.487 749.355 719.694C753.264 733.902 762.968 746.959 777.241 757.214C791.513 767.468 809.711 774.457 829.532 777.297C849.352 780.138 869.903 778.701 888.583 773.168C907.262 767.636 923.231 758.258 934.467 746.22C945.702 734.183 951.7 720.027 951.7 705.546C951.7 686.175 940.979 667.595 921.887 653.878C902.795 640.161 876.891 632.428 849.852 632.373V632.373ZM896.809 738.308C896.402 738.832 895.848 739.29 895.182 739.652C894.516 740.015 893.752 740.275 892.939 740.415C892.126 740.556 891.281 740.575 890.457 740.47C889.634 740.365 888.849 740.14 888.153 739.807C864.134 729.162 834.056 726.992 798.279 732.831C796.665 733.101 794.967 732.912 793.542 732.305C792.117 731.699 791.075 730.72 790.634 729.575C790.255 728.412 790.516 727.189 791.362 726.159C792.208 725.13 793.574 724.373 795.178 724.046C834.056 717.845 867.741 720.429 894.284 732.107C895.051 732.371 895.731 732.748 896.282 733.213C896.832 733.677 897.239 734.22 897.477 734.805C897.715 735.39 897.779 736.004 897.664 736.608C897.549 737.211 897.257 737.791 896.809 738.308V738.308ZM909.071 718.207C908.594 718.871 907.923 719.454 907.102 719.914C906.281 720.374 905.33 720.702 904.315 720.874C903.301 721.046 902.246 721.058 901.224 720.91C900.202 720.762 899.237 720.456 898.396 720.015C883.075 713.864 866.201 709.957 848.753 708.519C831.306 707.082 813.634 708.144 796.765 711.644C795.773 711.905 794.717 712.02 793.662 711.98C792.607 711.94 791.574 711.746 790.626 711.411C789.678 711.076 788.836 710.607 788.149 710.031C787.463 709.455 786.947 708.785 786.634 708.062C786.32 707.339 786.215 706.578 786.325 705.825C786.435 705.072 786.758 704.343 787.274 703.682C787.79 703.022 788.488 702.443 789.326 701.981C790.164 701.52 791.124 701.186 792.148 700.999C811.257 697.097 831.258 695.961 850.985 697.656C870.713 699.35 889.772 703.842 907.051 710.869C908.633 711.626 909.732 712.801 910.11 714.136C910.488 715.472 910.115 716.861 909.071 718V718.207ZM910.081 697.536C877.406 683.636 822.804 682.034 791.643 689.113C790.469 689.388 789.23 689.495 787.998 689.426C786.766 689.358 785.565 689.117 784.463 688.716C783.362 688.316 782.381 687.763 781.577 687.091C780.773 686.419 780.162 685.64 779.778 684.798C779.394 683.957 779.246 683.069 779.341 682.187C779.436 681.304 779.773 680.444 780.332 679.654C780.891 678.865 781.662 678.162 782.601 677.586C783.539 677.01 784.626 676.573 785.801 676.298C821.866 668.598 881.806 670.097 919.602 686.168C921.809 687.107 923.42 688.624 924.093 690.399C924.766 692.173 924.449 694.066 923.209 695.676C921.629 696.996 919.475 697.897 917.094 698.235C914.713 698.572 912.243 698.326 910.081 697.536V697.536Z" fill="white"/>
<path d="M838.527 1088.15C922.621 1088.15 990.793 1039.31 990.793 979.065C990.793 918.818 922.621 869.978 838.527 869.978C754.433 869.978 686.261 918.818 686.261 979.065C686.261 1039.31 754.433 1088.15 838.527 1088.15Z" fill="#1055DB"/>
<path d="M990.793 978.237V979.064C990.791 995.929 985.33 1012.56 974.84 1027.66C964.35 1042.76 949.117 1055.91 930.337 1066.08C911.557 1076.25 889.742 1083.16 866.606 1086.27C843.469 1089.38 819.641 1088.6 796.993 1084C774.346 1079.4 753.495 1071.1 736.08 1059.76C718.665 1048.41 705.159 1034.32 696.623 1018.61C688.087 1002.89 684.755 985.968 686.886 969.172C689.018 952.377 696.557 936.164 708.91 921.808C706.758 929.062 705.67 936.457 705.664 943.873C705.721 968.685 718.033 992.681 740.42 1011.61C762.807 1030.54 793.824 1043.19 827.977 1047.3C862.129 1051.42 897.213 1046.74 927.014 1034.1C956.814 1021.46 979.408 1001.67 990.793 978.237V978.237Z" fill="#1055DB"/>
<path opacity="0.2" d="M990.793 978.237V979.064C990.791 995.929 985.33 1012.56 974.84 1027.66C964.35 1042.76 949.117 1055.91 930.337 1066.08C911.557 1076.25 889.742 1083.16 866.606 1086.27C843.469 1089.38 819.641 1088.6 796.993 1084C774.346 1079.4 753.495 1071.1 736.08 1059.76C718.665 1048.41 705.159 1034.32 696.623 1018.61C688.087 1002.89 684.755 985.968 686.886 969.172C689.018 952.377 696.557 936.164 708.91 921.808C706.758 929.062 705.67 936.457 705.664 943.873C705.721 968.685 718.033 992.681 740.42 1011.61C762.807 1030.54 793.824 1043.19 827.977 1047.3C862.129 1051.42 897.213 1046.74 927.014 1034.1C956.814 1021.46 979.408 1001.67 990.793 978.237V978.237Z" fill="#1055DB"/>
<g opacity="0.1">
<path d="M990.793 978.237V979.064C990.791 995.929 985.33 1012.56 974.84 1027.66C964.35 1042.76 949.117 1055.91 930.337 1066.08C911.557 1076.25 889.742 1083.16 866.606 1086.27C843.469 1089.38 819.641 1088.6 796.993 1084C774.346 1079.4 753.495 1071.1 736.08 1059.76C718.665 1048.41 705.159 1034.32 696.623 1018.61C688.087 1002.89 684.755 985.968 686.886 969.172C689.018 952.377 696.557 936.164 708.91 921.808C706.758 929.062 705.67 936.457 705.664 943.873C705.721 968.685 718.033 992.681 740.42 1011.61C762.807 1030.54 793.824 1043.19 827.977 1047.3C862.129 1051.42 897.213 1046.74 927.014 1034.1C956.814 1021.46 979.408 1001.67 990.793 978.237V978.237Z" fill="black"/>
<path opacity="0.2" d="M990.793 978.237V979.064C990.791 995.929 985.33 1012.56 974.84 1027.66C964.35 1042.76 949.117 1055.91 930.337 1066.08C911.557 1076.25 889.742 1083.16 866.606 1086.27C843.469 1089.38 819.641 1088.6 796.993 1084C774.346 1079.4 753.495 1071.1 736.08 1059.76C718.665 1048.41 705.159 1034.32 696.623 1018.61C688.087 1002.89 684.755 985.968 686.886 969.172C689.018 952.377 696.557 936.164 708.91 921.808C706.758 929.062 705.67 936.457 705.664 943.873C705.721 968.685 718.033 992.681 740.42 1011.61C762.807 1030.54 793.824 1043.19 827.977 1047.3C862.129 1051.42 897.213 1046.74 927.014 1034.1C956.814 1021.46 979.408 1001.67 990.793 978.237V978.237Z" fill="black"/>
</g>
<path d="M777.217 970.848C777.207 977.283 778.97 983.657 782.403 989.603C785.836 995.55 790.872 1000.95 797.224 1005.5C803.575 1010.05 811.117 1013.66 819.417 1016.12C827.718 1018.58 836.614 1019.84 845.596 1019.84C849.881 1019.84 854.156 1019.54 858.363 1018.96C864.417 1021.58 871.335 1023 878.408 1023.07C885.481 1023.15 892.454 1021.87 898.613 1019.38C904.771 1016.89 909.894 1013.27 913.455 1008.89C917.017 1004.51 918.889 999.532 918.88 994.464C918.914 989.146 916.837 983.931 912.893 979.426C913.587 976.594 913.948 973.724 913.975 970.848C913.956 957.86 906.746 945.407 893.926 936.223C881.107 927.039 863.725 921.873 845.596 921.86C841.359 921.863 837.132 922.157 832.973 922.738C825.333 919.534 816.422 918.243 807.644 919.066C798.866 919.89 790.72 922.782 784.489 927.288C778.258 931.793 774.297 937.656 773.228 943.952C772.16 950.248 774.045 956.62 778.587 962.063C777.758 964.956 777.299 967.896 777.217 970.848V970.848ZM846.317 936.071C868.389 937.001 881.3 943.925 882.382 950.436C882.576 951.437 882.449 952.456 882.012 953.417C881.574 954.377 880.838 955.254 879.858 955.981C878.879 956.707 877.681 957.265 876.357 957.612C875.032 957.958 873.615 958.084 872.212 957.981C862.258 957.981 861.248 948.421 844.081 948.421C836.363 948.421 829.655 950.746 829.655 955.759C829.655 966.094 884.691 960.151 884.691 983.147C884.691 996.428 869.832 1005.11 847.688 1005.11C828.213 1005.11 808.665 998.805 808.738 987.901C808.677 986.313 809.476 984.769 810.969 983.594C812.462 982.419 814.531 981.703 816.744 981.597C828.213 981.597 828.141 993.844 846.389 993.844C859.229 993.844 863.556 988.676 863.556 985.317C863.556 972.709 808.233 980.46 808.233 956.741C808.521 943.822 823.236 934.985 846.317 935.967V936.071Z" fill="white"/>
<path d="M486.653 773.549C509.284 704.095 449.041 634.649 352.097 618.435C255.152 602.222 158.217 645.381 135.586 714.835C112.955 784.288 173.198 853.734 270.143 869.948C367.087 886.161 464.022 843.002 486.653 773.549Z" fill="#1055DB"/>
<path opacity="0.5" d="M491.367 743.475V744.457C491.308 764.424 484.79 784.108 472.325 801.966C459.86 819.824 441.787 835.369 419.525 847.381C397.262 859.392 371.417 867.544 344.017 871.195C316.617 874.846 288.41 873.897 261.608 868.424C234.806 862.95 210.14 853.1 189.546 839.647C168.952 826.195 152.99 809.505 142.915 790.889C132.839 772.273 128.923 752.238 131.475 732.355C134.027 712.473 142.977 693.284 157.622 676.297C155.093 684.895 153.812 693.658 153.799 702.445C153.782 731.854 168.316 760.316 194.82 782.773C221.324 805.231 258.082 820.231 298.564 825.108C339.046 829.985 380.63 824.423 415.929 809.412C451.228 794.4 477.957 770.909 491.367 743.113V743.475Z" fill="#1055DB"/>
<path opacity="0.1" d="M491.367 743.475V744.457C491.308 764.424 484.79 784.108 472.325 801.966C459.86 819.824 441.787 835.369 419.525 847.381C397.262 859.392 371.417 867.544 344.017 871.195C316.617 874.846 288.41 873.897 261.608 868.424C234.806 862.95 210.14 853.1 189.546 839.647C168.952 826.195 152.99 809.505 142.915 790.889C132.839 772.273 128.923 752.238 131.475 732.355C134.027 712.473 142.977 693.284 157.622 676.297C155.093 684.895 153.812 693.658 153.799 702.445C153.782 731.854 168.316 760.316 194.82 782.773C221.324 805.231 258.082 820.231 298.564 825.108C339.046 829.985 380.63 824.423 415.929 809.412C451.228 794.4 477.957 770.909 491.367 743.113V743.475Z" fill="black"/>
<path fill-rule="evenodd" clip-rule="evenodd" d="M380.142 753.036C378.73 752.503 377.226 752.103 375.67 751.848V751.848C368.339 750.056 361.93 746.725 357.277 742.288C354.675 739.905 352.584 737.258 351.074 734.433V734.433C350.695 733.915 350.496 733.338 350.496 732.753C350.496 732.168 350.695 731.592 351.074 731.074V731.074C352.732 729.707 354.914 728.719 357.349 728.232C360.447 727.591 363.339 726.52 365.86 725.08V725.08C366.391 724.798 366.813 724.425 367.087 723.994C367.097 723.839 367.097 723.684 367.087 723.529C367.229 723.284 367.303 723.02 367.303 722.754C367.303 722.488 367.229 722.225 367.087 721.979V721.979C366.406 721.091 365.344 720.384 364.057 719.964V719.964C363.284 719.654 362.431 719.461 361.549 719.399C360.668 719.337 359.778 719.406 358.936 719.602V719.602C357.452 719.998 355.934 720.326 354.392 720.584C352.693 720.926 350.897 720.926 349.198 720.584C349.224 720.326 349.224 720.067 349.198 719.809C349.198 717.587 349.198 715.261 349.198 712.884C349.627 709.187 349.627 705.471 349.198 701.774V701.774C347.37 695.464 342.199 689.907 334.772 686.271C329.542 683.555 323.389 681.895 316.956 681.465C314.842 681.389 312.723 681.389 310.609 681.465C301.903 681.357 293.388 683.299 286.373 686.995C281.227 689.898 277.183 693.684 274.616 698.001V698.001C272.625 702.345 271.96 706.945 272.668 711.489V711.489C272.988 714.43 272.988 717.384 272.668 720.325C270.644 720.607 268.562 720.607 266.537 720.325V720.325C264.949 720.085 263.383 719.775 261.849 719.395C261.064 719.273 260.25 719.274 259.466 719.399C258.681 719.524 257.944 719.77 257.305 720.119V720.119C256.621 720.376 256.038 720.752 255.61 721.212C255.181 721.673 254.921 722.203 254.852 722.754V722.754C255.097 723.463 255.654 724.097 256.439 724.563L258.026 725.39C261.03 726.633 264.225 727.621 267.547 728.335V728.335C268.52 728.576 269.41 728.964 270.156 729.472C270.903 729.98 271.489 730.597 271.875 731.281C272.097 733.092 271.489 734.906 270.144 736.448V736.448C266.799 741.198 261.837 745.268 255.718 748.282C252.461 749.876 248.852 751.064 245.043 751.796V751.796C243.547 751.961 242.187 752.513 241.22 753.346C241.251 753.448 241.251 753.554 241.22 753.656C241.063 754.016 241.034 754.398 241.135 754.768C241.236 755.138 241.463 755.484 241.797 755.775C242.24 756.174 242.809 756.492 243.456 756.705V756.705C246.552 757.85 249.852 758.685 253.265 759.185C255.346 759.431 257.396 759.794 259.397 760.271C259.397 760.271 259.397 760.787 260.046 761.459C260.695 762.131 260.839 764.198 261.488 765.748C261.59 765.963 261.771 766.153 262.013 766.299C262.254 766.444 262.547 766.54 262.859 766.575C263.604 766.769 264.421 766.769 265.167 766.575V766.575C270.246 765.696 275.519 765.556 280.675 766.162V766.162C285.808 767.577 290.658 769.471 295.101 771.794C298.55 773.535 302.583 774.587 306.786 774.843C310.076 774.999 313.377 774.999 316.668 774.843V774.843C319.409 774.632 322.048 773.978 324.386 772.931V772.931C329.259 770.649 334.291 768.545 339.461 766.627V766.627C341.436 766.25 343.476 766.076 345.52 766.11C349.762 766.006 354.009 766.161 358.215 766.575H358.647C359.215 766.497 359.726 766.277 360.09 765.955C360.217 765.878 360.321 765.783 360.395 765.677C360.47 765.57 360.513 765.454 360.523 765.335C360.523 765.025 360.523 764.87 360.523 765.335C360.561 765.251 360.561 765.16 360.523 765.076C360.959 763.485 361.79 761.962 362.975 760.581C363.743 760.171 364.688 759.969 365.644 760.012C369.102 759.605 372.488 758.929 375.742 757.997V757.997C377.343 757.632 378.768 756.951 379.854 756.033V756.033C380.08 755.798 380.237 755.532 380.317 755.252C380.396 754.971 380.395 754.682 380.314 754.402C380.233 754.122 380.074 753.857 379.846 753.622C379.618 753.387 379.326 753.188 378.988 753.036H380.142Z" fill="white"/>
<path d="M1141.9 523.027C1169.32 451.265 1110.35 377.164 1010.18 357.518C910.016 337.873 806.584 380.122 779.163 451.885C751.741 523.647 810.714 597.748 910.881 617.394C1011.05 637.039 1114.48 594.79 1141.9 523.027Z" fill="#1055DB"/>
<path opacity="0.5" d="M1148.47 486.389V487.423C1148.43 508.235 1141.65 528.757 1128.68 547.379C1115.71 566.001 1096.89 582.217 1073.7 594.754C1050.52 607.292 1023.59 615.81 995.036 619.64C966.482 623.471 937.078 622.509 909.13 616.832C881.181 611.154 855.449 600.915 833.952 586.917C812.454 572.918 795.776 555.542 785.225 536.151C774.675 516.76 770.538 495.881 773.141 475.153C775.744 454.424 785.015 434.409 800.227 416.679C790.659 448.953 798.612 482.626 822.468 510.849C846.324 539.072 884.29 559.724 928.645 568.604C972.999 577.485 1020.41 573.927 1061.23 558.654C1102.06 543.381 1133.22 517.541 1148.4 486.389H1148.47Z" fill="#1055DB"/>
<path opacity="0.1" d="M1148.47 486.389V487.423C1148.43 508.235 1141.65 528.757 1128.68 547.379C1115.71 566.001 1096.89 582.217 1073.7 594.754C1050.52 607.292 1023.59 615.81 995.036 619.64C966.482 623.471 937.078 622.509 909.13 616.832C881.181 611.154 855.449 600.915 833.952 586.917C812.454 572.918 795.776 555.542 785.225 536.151C774.675 516.76 770.538 495.881 773.141 475.153C775.744 454.424 785.015 434.409 800.227 416.679C790.659 448.953 798.612 482.626 822.468 510.849C846.324 539.072 884.29 559.724 928.645 568.604C972.999 577.485 1020.41 573.927 1061.23 558.654C1102.06 543.381 1133.22 517.541 1148.4 486.389H1148.47Z" fill="#1055DB"/>
<g opacity="0.1">
<path opacity="0.5" d="M1148.47 486.389V487.423C1148.43 508.235 1141.65 528.757 1128.68 547.379C1115.71 566.001 1096.89 582.217 1073.7 594.754C1050.52 607.292 1023.59 615.81 995.036 619.64C966.482 623.471 937.078 622.509 909.13 616.832C881.181 611.154 855.449 600.915 833.952 586.917C812.454 572.918 795.776 555.542 785.225 536.151C774.675 516.76 770.538 495.881 773.141 475.153C775.744 454.424 785.015 434.409 800.227 416.679C790.659 448.953 798.612 482.626 822.468 510.849C846.324 539.072 884.29 559.724 928.645 568.604C972.999 577.485 1020.41 573.927 1061.23 558.654C1102.06 543.381 1133.22 517.541 1148.4 486.389H1148.47Z" fill="black"/>
<path opacity="0.1" d="M1148.47 486.389V487.423C1148.43 508.235 1141.65 528.757 1128.68 547.379C1115.71 566.001 1096.89 582.217 1073.7 594.754C1050.52 607.292 1023.59 615.81 995.036 619.64C966.482 623.471 937.078 622.509 909.13 616.832C881.181 611.154 855.449 600.915 833.952 586.917C812.454 572.918 795.776 555.542 785.225 536.151C774.675 516.76 770.538 495.881 773.141 475.153C775.744 454.424 785.015 434.409 800.227 416.679C790.659 448.953 798.612 482.626 822.468 510.849C846.324 539.072 884.29 559.724 928.645 568.604C972.999 577.485 1020.41 573.927 1061.23 558.654C1102.06 543.381 1133.22 517.541 1148.4 486.389H1148.47Z" fill="black"/>
</g>
<path fill-rule="evenodd" clip-rule="evenodd" d="M1028.01 471.454C1027.39 459.568 1020.4 448.311 1008.5 440.021C996.589 431.731 980.682 427.046 964.08 426.939C947.478 426.833 931.457 431.313 919.346 439.449C907.235 447.585 899.964 458.751 899.045 470.628C899.045 471.299 899.045 471.971 899.045 472.643C899.037 480.989 902.23 489.177 908.278 496.31L896.665 520.96L932.369 512.795C941.941 516.558 952.683 518.531 963.602 518.531C972.041 518.551 980.404 517.381 988.212 515.086C996.021 512.791 1003.12 509.416 1009.11 505.155C1015.1 500.894 1019.86 495.83 1023.11 490.251C1026.37 484.673 1028.06 478.689 1028.09 472.643L1028.01 471.454ZM963.53 511.193C952.911 511.218 942.519 508.988 933.668 504.785L912.822 509.591L919.602 495.225C912.87 488.683 909.23 480.771 909.216 472.643C909.216 471.351 909.216 470.111 909.216 468.871C910.545 459.195 916.883 450.226 926.981 443.73C937.078 437.235 950.205 433.682 963.775 433.773C977.346 433.864 990.377 437.591 1000.3 444.221C1010.23 450.85 1016.33 459.902 1017.41 469.594C1017.41 470.628 1017.41 471.609 1017.41 472.643C1017.32 482.855 1011.61 492.629 1001.52 499.845C991.434 507.062 977.784 511.139 963.53 511.193V511.193Z" fill="white"/>
<path fill-rule="evenodd" clip-rule="evenodd" d="M993.103 481.894C991.516 481.325 983.726 478.586 982.283 478.225C980.841 477.863 979.759 477.656 978.677 478.793C977.595 479.93 974.565 482.462 973.7 483.185C972.834 483.909 971.824 484.012 970.237 483.444C965.561 482.161 961.257 480.269 957.542 477.863C954.064 475.623 951.095 473.008 948.743 470.112C948.569 469.933 948.449 469.732 948.388 469.519C948.326 469.307 948.326 469.088 948.387 468.875C948.448 468.662 948.568 468.461 948.741 468.282C948.913 468.104 949.135 467.953 949.392 467.838C950.185 467.321 950.979 466.494 951.844 465.822L952.421 465.306C952.782 464.892 952.998 464.479 953.359 463.962C953.593 463.662 953.715 463.324 953.715 462.98C953.715 462.637 953.593 462.299 953.359 461.998C952.926 461.43 949.752 455.901 948.454 453.627C947.156 451.353 945.785 451.767 944.848 451.767H941.89C941.087 451.785 940.297 451.919 939.567 452.158C938.836 452.398 938.179 452.739 937.635 453.162C935.852 454.369 934.437 455.829 933.481 457.447C932.526 459.066 932.049 460.809 932.081 462.567C932.116 463.864 932.407 465.152 932.946 466.391C934.153 469.213 936.059 471.856 938.572 474.194C945.153 481.566 954.503 487.459 965.549 491.195C981.706 495.691 981.706 494.192 984.591 493.986C986.782 493.72 988.868 493.121 990.709 492.23C992.551 491.338 994.104 490.175 995.266 488.818C996.234 487.19 996.558 485.402 996.204 483.651C995.699 482.72 994.978 482.462 993.103 481.894Z" fill="white"/>
<rect x="8" y="8" width="1868" height="1799" rx="12" stroke="#1055DB" stroke-width="16"/>
</svg>
