<svg width="48" height="48" viewBox="0 0 48 48" fill="none" xmlns="http://www.w3.org/2000/svg">
<circle cx="24" cy="24" r="24" fill="#1055DB"/>
<path d="M3.21023 25.9318V25.25L8.69886 22.4545V23.5455L4.48864 25.5739L4.52273 25.5057V25.6761L4.48864 25.608L8.69886 27.6364V28.7273L3.21023 25.9318ZM13.9158 19.8636L11.1033 30.3125H10.1829L12.9954 19.8636H13.9158ZM16.1136 25.0625V29H15.108V20.2727H16.1136V23.4773H16.1989C16.3523 23.1392 16.5824 22.8707 16.8892 22.6719C17.1989 22.4702 17.6108 22.3693 18.125 22.3693C18.571 22.3693 18.9616 22.4588 19.2969 22.6378C19.6321 22.8139 19.892 23.0852 20.0767 23.4517C20.2642 23.8153 20.358 24.2784 20.358 24.8409V29H19.3523V24.9091C19.3523 24.3892 19.2173 23.9872 18.9474 23.7031C18.6804 23.4162 18.3097 23.2727 17.8352 23.2727C17.5057 23.2727 17.2102 23.3423 16.9489 23.4815C16.6903 23.6207 16.4858 23.8239 16.3352 24.0909C16.1875 24.358 16.1136 24.6818 16.1136 25.0625ZM25.0444 22.4545V23.3068H21.6523V22.4545H25.0444ZM22.641 20.8864H23.6467V27.125C23.6467 27.4091 23.6879 27.6222 23.7702 27.7642C23.8555 27.9034 23.9634 27.9972 24.0941 28.0455C24.2276 28.0909 24.3683 28.1136 24.516 28.1136C24.6268 28.1136 24.7177 28.108 24.7887 28.0966C24.8597 28.0824 24.9165 28.071 24.9592 28.0625L25.1637 28.9659C25.0955 28.9915 25.0004 29.017 24.8782 29.0426C24.756 29.071 24.6012 29.0852 24.4137 29.0852C24.1296 29.0852 23.8512 29.0241 23.5785 28.902C23.3086 28.7798 23.0842 28.5938 22.9052 28.3438C22.729 28.0938 22.641 27.7784 22.641 27.3977V20.8864ZM26.5572 29V22.4545H27.5288V23.4773H27.614C27.7504 23.1278 27.9705 22.8565 28.2745 22.6634C28.5785 22.4673 28.9435 22.3693 29.3697 22.3693C29.8015 22.3693 30.1609 22.4673 30.4478 22.6634C30.7376 22.8565 30.9634 23.1278 31.1254 23.4773H31.1935C31.3612 23.1392 31.6126 22.8707 31.9478 22.6719C32.283 22.4702 32.685 22.3693 33.1538 22.3693C33.739 22.3693 34.2177 22.5526 34.5898 22.919C34.962 23.2827 35.1481 23.8494 35.1481 24.6193V29H34.1424V24.6193C34.1424 24.1364 34.0103 23.7912 33.7461 23.5838C33.4819 23.3764 33.1708 23.2727 32.8129 23.2727C32.3526 23.2727 31.9961 23.4119 31.7433 23.6903C31.4904 23.9659 31.364 24.3153 31.364 24.7386V29H30.3413V24.517C30.3413 24.1449 30.2205 23.8452 29.979 23.6179C29.7376 23.3878 29.4265 23.2727 29.0458 23.2727C28.7844 23.2727 28.5401 23.3423 28.3129 23.4815C28.0884 23.6207 27.9066 23.8139 27.7674 24.0611C27.631 24.3054 27.5629 24.5881 27.5629 24.9091V29H26.5572ZM37.9925 20.2727V29H36.9869V20.2727H37.9925ZM45.6129 25.9318L40.1243 28.7273V27.6364L44.3345 25.608L44.3004 25.6761V25.5057L44.3345 25.5739L40.1243 23.5455V22.4545L45.6129 25.25V25.9318Z" fill="white"/>
</svg>
