<svg width="327" height="229" viewBox="0 0 327 229" fill="none" xmlns="http://www.w3.org/2000/svg">
<path d="M4.06429 10.9444L305.188 6.06477L308.568 214.626L7.44398 219.506L4.06429 10.9444Z" fill="white" stroke="#7FA4EC" stroke-width="8"/>
<path d="M315.549 219.36L4.07093 224.408L0.523438 5.49219L312.002 0.444737L315.549 219.36ZM6.38872 222.034L313.215 217.062L309.744 2.83756L2.91725 7.80963L6.38872 222.034Z" fill="#EBEBEB"/>
<path d="M310.834 1.63135L1.71094 6.64062L2.07342 29.0093L311.196 24L310.834 1.63135Z" fill="#455A64"/>
<path d="M312.402 25.1492L0.923769 30.1967L0.523438 5.49219L312.002 0.444737L312.402 25.1492ZM3.24156 27.8227L310.068 22.8506L309.744 2.83756L2.91725 7.80963L3.24156 27.8227Z" fill="#EBEBEB"/>
<path d="M22.8978 17.6441C22.9198 18.7607 22.61 19.8587 22.0075 20.799C21.4051 21.7394 20.5371 22.4798 19.5136 22.9266C18.49 23.3733 17.3569 23.5063 16.2577 23.3086C15.1586 23.1109 14.1428 22.5915 13.3391 21.8161C12.5353 21.0407 11.9797 20.0442 11.7427 18.9529C11.5056 17.8615 11.5978 16.7244 12.0075 15.6854C12.4172 14.6465 13.126 13.7525 14.0441 13.1167C14.9622 12.4808 16.0484 12.1318 17.1651 12.1137C18.6564 12.0947 20.095 12.6649 21.1683 13.7004C22.2417 14.7359 22.8632 16.153 22.8978 17.6441V17.6441Z" fill="#1055DB"/>
<path d="M45.8793 17.271C45.9013 18.3876 45.5915 19.4856 44.989 20.426C44.3866 21.3664 43.5186 22.1068 42.495 22.5535C41.4715 23.0003 40.3384 23.1332 39.2392 22.9355C38.1401 22.7379 37.1243 22.2184 36.3205 21.443C35.5168 20.6676 34.9612 19.6712 34.7241 18.5798C34.4871 17.4885 34.5793 16.3513 34.989 15.3124C35.3986 14.2734 36.1074 13.3795 37.0256 12.7436C37.9437 12.1078 39.0299 11.7587 40.1465 11.7406C41.6378 11.7216 43.0765 12.2918 44.1498 13.3273C45.2232 14.3628 45.8447 15.78 45.8793 17.271V17.271Z" fill="#EBEBEB"/>
<path d="M68.8616 16.898C68.8837 18.0146 68.5738 19.1126 67.9714 20.0529C67.3689 20.9933 66.501 21.7337 65.4774 22.1805C64.4539 22.6272 63.3208 22.7602 62.2216 22.5625C61.1224 22.3648 60.1066 21.8454 59.3029 21.07C58.4991 20.2946 57.9436 19.2981 57.7065 18.2068C57.4695 17.1154 57.5617 15.9783 57.9714 14.9393C58.3811 13.9004 59.0899 13.0064 60.008 12.3706C60.9261 11.7347 62.0123 11.3857 63.1289 11.3676C64.6203 11.3486 66.0588 11.9188 67.1322 12.9543C68.2056 13.9898 68.8271 15.4069 68.8616 16.898V16.898Z" fill="white"/>
<path d="M110.829 134.534C111.636 135.314 112.282 136.247 112.729 137.277C113.175 138.307 113.415 139.416 113.433 140.539C113.451 141.662 113.248 142.777 112.835 143.821C112.421 144.866 111.806 145.818 111.025 146.625C109.512 148.193 107.438 149.096 105.26 149.137C102.981 149.201 100.767 148.369 99.0947 146.818L60.9156 109.38C60.8429 109.259 60.8031 109.12 60.8008 108.979C60.7986 108.837 60.8338 108.698 60.9026 108.574V108.574C60.7607 108.213 60.7542 107.812 60.8843 107.446V107.446C60.8843 107.446 60.8843 107.446 60.8712 106.64C60.8581 105.834 60.8712 106.64 60.8712 106.64L60.8555 105.672C60.8555 105.672 60.8555 105.672 60.8425 104.866L60.8163 103.254L60.7981 102.126C60.7981 102.126 60.7981 102.126 60.7798 100.997C60.7798 100.997 60.7796 100.997 61.5726 100.178L98.5164 61.3615C100.087 59.7798 102.213 58.8745 104.442 58.8384C106.671 58.8023 108.825 59.6382 110.446 61.1682C111.253 61.9489 111.899 62.8811 112.346 63.9115C112.793 64.9419 113.032 66.0502 113.051 67.1731C113.069 68.2961 112.865 69.4116 112.452 70.4559C112.039 71.5002 111.424 72.4528 110.642 73.2592L78.9218 106.024L110.829 134.534Z" fill="#1055DB"/>
<path d="M144.92 138.351L175.898 59.8012C176.255 58.9166 176.782 58.1106 177.45 57.4297C178.117 56.7487 178.912 56.2063 179.79 55.8327C180.667 55.4591 181.61 55.2618 182.563 55.2524C183.517 55.243 184.463 55.4219 185.347 55.7781C186.232 56.1344 187.038 56.6611 187.719 57.3287C188.4 57.9964 188.943 58.7915 189.316 59.6689C189.69 60.5463 189.887 61.4888 189.896 62.4424C189.905 63.396 189.727 64.3423 189.371 65.2269L158.393 143.777C157.866 145.129 156.947 146.292 155.753 147.116C154.559 147.94 153.145 148.388 151.695 148.4C150.799 148.64 149.858 148.655 148.954 148.445C147.97 148.121 147.069 147.585 146.314 146.876C145.559 146.166 144.968 145.301 144.584 144.338C144.199 143.376 144.03 142.342 144.088 141.307C144.146 140.273 144.43 139.264 144.92 138.351Z" fill="#1055DB"/>
<path d="M255.321 105.104L254.531 106.085L217.584 144.74C215.963 146.344 213.778 147.247 211.497 147.257C209.27 147.295 207.116 146.463 205.493 144.936C204.686 144.155 204.04 143.223 203.594 142.192C203.147 141.162 202.907 140.054 202.889 138.931C202.871 137.808 203.074 136.692 203.488 135.648C203.901 134.604 204.516 133.651 205.297 132.845L237.018 100.079L204.252 68.3593C203.445 67.5786 202.8 66.6464 202.353 65.616C201.906 64.5857 201.666 63.4774 201.648 62.3544C201.63 61.2315 201.833 60.116 202.247 59.0717C202.66 58.0274 203.275 57.0747 204.056 56.2683C205.654 54.6758 207.807 53.7652 210.062 53.7286C212.318 53.6921 214.499 54.5324 216.147 56.0724L254.33 93.6711L255.149 94.4645C255.149 94.4645 255.162 95.2701 255.167 95.5926C255.172 95.915 255.167 95.5926 255.167 95.5926C255.132 96.0221 255.139 96.4544 255.188 96.8826C255.188 96.8826 255.188 96.8826 255.188 96.8826L255.243 100.268C255.243 100.268 255.258 101.235 255.263 101.558C255.619 102.079 255.813 102.692 255.824 103.322C255.834 103.953 255.659 104.572 255.321 105.104V105.104Z" fill="#1055DB"/>
<path d="M319.61 223.293L326.699 211.819L323.197 209.643C322.696 209.326 322.292 208.875 322.031 208.342C321.769 207.808 321.661 207.212 321.716 206.62C321.758 205.948 321.758 205.273 321.716 204.601C321.701 204.008 321.85 203.422 322.145 202.908C322.44 202.394 322.871 201.971 323.389 201.687L327 199.741L320.717 187.795L317.106 189.754C316.584 190.029 315.997 190.155 315.409 190.116C314.82 190.078 314.254 189.877 313.772 189.536C313.223 189.15 312.652 188.795 312.063 188.472C311.54 188.193 311.104 187.772 310.807 187.257C310.509 186.742 310.36 186.153 310.378 185.558L310.498 181.423L297.066 181L296.946 185.147C296.922 185.754 296.727 186.343 296.384 186.843C296.041 187.344 295.564 187.737 295.008 187.976L294.129 188.424C293.828 188.581 293.552 188.75 293.263 188.919C292.762 189.231 292.185 189.396 291.596 189.396C291.007 189.396 290.43 189.231 289.929 188.919L286.402 186.731L279.361 198.229L282.864 200.418C283.363 200.736 283.766 201.186 284.027 201.72C284.289 202.253 284.398 202.848 284.344 203.44C284.284 204.108 284.26 204.778 284.272 205.447C284.288 206.039 284.141 206.624 283.848 207.138C283.555 207.652 283.127 208.075 282.611 208.361L279 210.308L285.355 222.217L288.966 220.258C289.488 219.983 290.075 219.857 290.663 219.896C291.252 219.934 291.818 220.135 292.3 220.476C292.846 220.858 293.412 221.209 293.997 221.528C294.52 221.809 294.955 222.23 295.255 222.744C295.554 223.259 295.706 223.846 295.694 224.442L295.562 228.589L308.994 229L309.126 224.865C309.15 224.272 309.337 223.697 309.667 223.204C309.996 222.711 310.455 222.319 310.992 222.072C311.293 221.939 311.594 221.782 311.883 221.625C312.172 221.468 312.46 221.31 312.749 221.129C313.252 220.818 313.831 220.653 314.422 220.653C315.013 220.653 315.592 220.818 316.095 221.129L319.61 223.293ZM308.236 214.83C306.315 215.863 304.133 216.3 301.965 216.087C299.797 215.874 297.74 215.02 296.055 213.633C294.37 212.246 293.133 210.387 292.5 208.294C291.866 206.2 291.865 203.964 292.497 201.87C293.128 199.775 294.364 197.916 296.048 196.527C297.731 195.139 299.787 194.283 301.955 194.068C304.123 193.853 306.306 194.288 308.227 195.32C310.148 196.351 311.722 197.932 312.749 199.861C314.111 202.44 314.402 205.455 313.558 208.248C312.715 211.041 310.806 213.385 308.248 214.769L308.236 214.83Z" fill="#1055DB" fill-opacity="0.5"/>
</svg>
