<svg width="36" height="36" viewBox="0 0 36 36" fill="none" xmlns="http://www.w3.org/2000/svg">
<g clip-path="url(#clip0_574_16648)">
<path d="M24.1569 31.392V28.4901C24.1569 26.9508 23.5454 25.4745 22.4569 24.3861C21.3685 23.2976 19.8922 22.6862 18.3529 22.6862H8.19607C6.65678 22.6862 5.18053 23.2976 4.09208 24.3861C3.00363 25.4745 2.39215 26.9508 2.39215 28.4901V31.392" stroke="#1055DB" stroke-width="2" stroke-linecap="round" stroke-linejoin="round"/>
<path d="M13.2745 16.8823C16.4799 16.8823 19.0784 14.2838 19.0784 11.0783C19.0784 7.87292 16.4799 5.27441 13.2745 5.27441C10.0691 5.27441 7.47058 7.87292 7.47058 11.0783C7.47058 14.2838 10.0691 16.8823 13.2745 16.8823Z" stroke="#1055DB" stroke-width="2" stroke-linecap="round" stroke-linejoin="round"/>
<path d="M29.9608 12.5293V21.2352" stroke="#1055DB" stroke-width="2" stroke-linecap="round" stroke-linejoin="round"/>
<path d="M34.3137 16.8823H25.6078" stroke="#1055DB" stroke-width="2" stroke-linecap="round" stroke-linejoin="round"/>
</g>
<defs>
<clipPath id="clip0_574_16648">
<rect width="34.8235" height="34.8235" fill="white" transform="translate(0.941177 0.921509)"/>
</clipPath>
</defs>
</svg>
