<svg width="69" height="61" viewBox="0 0 69 61" fill="none" xmlns="http://www.w3.org/2000/svg">
<rect width="69" height="61" rx="4" fill="#EAF0FC"/>
<path d="M37.0501 24C38.0268 24.1906 38.9244 24.6683 39.6281 25.3719C40.3318 26.0756 40.8095 26.9733 41.0001 27.95M37.0501 20C39.0793 20.2254 40.9716 21.1342 42.4163 22.577C43.8609 24.0198 44.7721 25.911 45.0001 27.94M44.0001 35.92V38.92C44.0012 39.1985 43.9441 39.4742 43.8326 39.7293C43.721 39.9845 43.5574 40.2136 43.3521 40.4019C43.1469 40.5901 42.9046 40.7335 42.6408 40.8227C42.377 40.9119 42.0974 40.9451 41.8201 40.92C38.7429 40.5856 35.7871 39.5341 33.1901 37.85C30.7739 36.3147 28.7254 34.2662 27.1901 31.85C25.5 29.2412 24.4483 26.271 24.1201 23.18C24.0951 22.9035 24.1279 22.6248 24.2166 22.3616C24.3052 22.0985 24.4476 21.8567 24.6348 21.6516C24.822 21.4466 25.0499 21.2827 25.3038 21.1705C25.5578 21.0583 25.8324 21.0003 26.1101 21H29.1101C29.5954 20.9952 30.0658 21.1671 30.4338 21.4835C30.8018 21.8 31.0421 22.2394 31.1101 22.72C31.2367 23.6801 31.4715 24.6227 31.8101 25.53C31.9446 25.8879 31.9737 26.2769 31.894 26.6509C31.8142 27.0248 31.6289 27.3681 31.3601 27.64L30.0901 28.91C31.5136 31.4135 33.5865 33.4864 36.0901 34.91L37.3601 33.64C37.6319 33.3711 37.9752 33.1858 38.3492 33.1061C38.7231 33.0263 39.1121 33.0555 39.4701 33.19C40.3773 33.5286 41.32 33.7634 42.2801 33.89C42.7658 33.9585 43.2095 34.2032 43.5266 34.5775C43.8437 34.9518 44.0122 35.4296 44.0001 35.92Z" stroke="#EB5757" stroke-width="2" stroke-linecap="round" stroke-linejoin="round"/>
</svg>
