<svg width="33" height="33" viewBox="0 0 33 33" fill="none" xmlns="http://www.w3.org/2000/svg">
<path d="M28.6309 1.83203H4.13086C3.02623 1.83203 2.13086 2.72753 2.13086 3.83203V28.332C2.13086 29.4367 3.02623 30.332 4.13086 30.332H28.6309C29.7354 30.332 30.6309 29.4367 30.6309 28.332V3.83203C30.6309 2.72753 29.7354 1.83203 28.6309 1.83203ZM12.67 12.4368L7.70286 16.1765L12.67 19.4913V22.3107L5.45898 17.1437V15.4569L12.67 9.60603V12.4368ZM15.4222 24.7053H13.4107L17.3685 7.45866H19.3801L15.4222 24.7053ZM27.3027 17.1435L20.0917 22.3105V19.4912L25.0589 16.1764L20.0917 12.4367V9.60591L27.3027 15.4568V17.1435Z" fill="#1055DB"/>
</svg>
